<svg width="31" height="30" viewBox="0 0 31 30" fill="none" xmlns="http://www.w3.org/2000/svg">
<path fill-rule="evenodd" clip-rule="evenodd" d="M29.4286 15C29.4286 22.6925 23.1925 28.9286 15.5 28.9286C7.80746 28.9286 1.57143 22.6925 1.57143 15C1.57143 7.30746 7.80746 1.07143 15.5 1.07143C23.1925 1.07143 29.4286 7.30746 29.4286 15ZM30.5 15C30.5 23.2843 23.7843 30 15.5 30C7.21573 30 0.5 23.2843 0.5 15C0.5 6.71573 7.21573 0 15.5 0C23.7843 0 30.5 6.71573 30.5 15ZM20.842 11.8956H21.9505V7.44088H17.4958V8.55626H19.7266V9.66483H18.6112V10.7802H17.4958V11.8956H16.3805V13.011H15.2651V14.1263H14.1565V15.2417H13.0412V16.3503H11.9258V17.4656H10.8104V18.581H9.69503V19.6964H8.57966V20.8118H9.69503V19.6964H10.8104V18.581H11.9258V17.4656H13.0412V16.3503H14.1565V15.2417H15.2651V14.1263H16.3805V13.011H17.4958V11.8956H18.6112V10.7802H19.7266V9.66483H20.842V11.8956Z" fill="#FF4D00"/>
</svg>
