<svg width="104" height="32" viewBox="0 0 104 32" fill="none" xmlns="http://www.w3.org/2000/svg">
<g clip-path="url(#clip0_149_204)">
<path d="M60.0713 16.7266V18.7546H60.9467V27.0363H60.0713V29.0789H63.8648V27.0859H62.9515V24.1678H63.5351L66.0271 29.0672H68.0697V27.0859H67.209L65.7499 24.1678H66.3802L67.4745 23.0735V17.71L66.4911 16.7266H60.0713ZM62.9281 18.5971H65.5193V22.1602H62.9281V18.5971Z" fill="#FF4D00"/>
<path d="M48.0221 2.41895L45.104 12.7287H44.2285V14.7713H47.9725V12.7287H47.0358L47.4268 11.4652H50.3186L50.7097 12.7287H49.773V14.7713H53.5169V12.7287H52.6415L49.7234 2.41895H48.0221ZM48.8887 6.24751L49.8838 9.67639H47.8674L48.8887 6.24751Z" fill="#FF4D00"/>
<path d="M53.8619 16.6887L52.5137 18.0369V27.7221L53.8619 29.0732L57.6845 29.0411L58.9569 27.7221V18.0369L57.6845 16.718L53.8619 16.6887ZM54.5446 18.5621H57.0104V27.1589H54.5446V18.5621Z" fill="#FF4D00"/>
<path d="M44.0742 16.6829V18.7255H44.9497V26.9924H44.0742V29.0352H47.8678V27.0422H46.9573V24.1239L50.3686 24.1356L51.4628 23.053V17.6663L50.4941 16.6829H44.0742ZM46.9282 18.7138H49.5165V21.9646H46.9282V18.7138Z" fill="#FF4D00"/>
<path d="M36.0352 2.40747V4.28968H37.0419V12.8397H36.0352V14.7862H42.1632L43.453 13.4964V9.17747L42.56 8.28457L43.4909 7.35377V3.57479L42.3236 2.40747H36.0352ZM38.9532 4.45024H41.5796V7.39168H38.9532V4.45024ZM38.9532 9.41096H41.5796V12.9128H38.9532V9.41096Z" fill="#FF4D00"/>
<path d="M54.4482 2.41895V4.46172H55.3237V12.7287H54.4482V14.7713H58.2418V12.7782H57.3314V9.86016H57.915L60.4071 14.7596H62.4497V12.7782H61.583L60.124 9.86016H60.7573L61.8516 8.76591V3.40235L60.8681 2.41895H54.4482ZM57.3022 4.45004H59.8905V7.85255H57.3022V4.45004Z" fill="#FF4D00"/>
<path d="M82.141 2.3811L80.79 3.72931V13.4233L82.141 14.7744L85.9638 14.7422L87.2624 13.4233V3.72931L85.9638 2.41036L82.141 2.3811ZM82.821 4.25452H85.2897V12.8396H82.821V4.25452Z" fill="#FF4D00"/>
<path d="M90.0785 2.3811L88.7217 3.72931V13.4233L90.0697 14.7744L93.8954 14.7422L95.1853 13.4233V3.72931L93.9042 2.41036L90.0785 2.3811ZM90.7643 4.25452H93.233L93.2301 12.8396H90.7643V4.25452Z" fill="#FF4D00"/>
<path d="M16.0399 0L16.4514 1.03301L17.6157 1.1439L16.7607 1.83549L17.0146 2.9969L16.0399 2.34616L15.0682 2.9969L15.3571 1.84133L14.4641 1.1439L15.6197 1.03885L16.0399 0ZM20.1895 0.53985L20.3179 1.64581L21.4122 2.05435L20.4083 2.50082L20.35 3.68849L19.5796 2.80722L18.4707 3.18074L19.0514 2.14189L18.3715 1.23728L19.5125 1.43571L20.1895 0.53985ZM24.056 2.14189L23.8926 3.24202L24.8439 3.92194L23.7583 4.09119L23.3936 5.2205L22.8771 4.16998L21.7098 4.24585L22.5415 3.39084L22.1184 2.34032L23.1689 2.82765L24.056 2.14189ZM27.3739 4.69232L26.9303 5.71074L27.6715 6.61536L26.5801 6.49571L25.9323 7.49371L25.7076 6.34397L24.5608 6.11344L25.5851 5.50356L25.4508 4.38008L26.3379 5.1242L27.3739 4.69232ZM29.9622 8.01605L29.2706 8.88565L29.7492 9.95076L28.7279 9.55389L27.8437 10.3476L27.9254 9.18038L26.8778 8.65803L28.0246 8.33704L28.188 7.21649L28.8504 8.16487L29.9622 8.01605ZM31.5993 11.8855L30.7064 12.545L30.8931 13.7005L30.0089 13.0498L28.9496 13.5896L29.3319 12.4808L28.4536 11.7045L29.6471 11.6929L30.0935 10.654L30.4875 11.7425L31.5993 11.8855ZM32.1216 16.0379L31.0857 16.4406L30.9661 17.605L30.2803 16.747L29.1189 16.9922L29.7755 16.0233L29.1306 15.0458L30.2861 15.3434L30.9865 14.4534L31.0857 15.609L32.1216 16.0379ZM31.5526 20.1175L30.4496 20.24L30.0323 21.3314L29.5946 20.3246L28.4069 20.2604L29.294 19.493L28.9234 18.3812L29.9622 18.9706L30.8698 18.2936L30.6655 19.4346L31.5526 20.1175ZM29.9447 24.0394L28.8475 23.8701L28.1588 24.8156L27.9983 23.7301L26.869 23.3566L27.9225 22.8488L27.8554 21.6786L28.7045 22.5161L29.758 22.0989L29.2648 23.1494L29.9447 24.0394ZM27.406 27.3398L26.3875 26.8904L25.48 27.6258L25.6055 26.5344L24.6133 25.8807L25.7631 25.6648L26.0024 24.518L26.6035 25.5481L27.7299 25.4197L26.9799 26.3039L27.406 27.3398ZM24.0822 29.8669L23.2156 29.1694L22.1475 29.6422L22.5532 28.6237L21.7623 27.7337L22.9296 27.8242L23.4578 26.7795L23.7729 27.9292L24.8935 28.0985L23.9393 28.7551L24.0822 29.8669ZM20.1836 31.4397L19.53 30.5409L18.3744 30.7219L19.031 29.8406L18.4999 28.7784L19.6029 29.1665L20.385 28.2969L20.3908 29.4875L21.4268 29.9427L20.3354 30.3308L20.1836 31.4397ZM16.037 32L15.6401 30.9612L14.4787 30.8328L15.3396 30.1558L15.1032 28.9885L16.0691 29.6538L17.0496 29.0148L16.7432 30.1674L17.6274 30.8736L16.4718 30.967L16.037 32ZM11.8554 31.4426L11.7415 30.3367L10.6531 29.9106L11.6598 29.4817L11.7357 28.294L12.4944 29.184L13.6091 28.8251L13.0138 29.8552L13.6821 30.7686L12.544 30.5585L11.8554 31.4426ZM8.02679 29.8669L8.20188 28.7697L7.26225 28.0781L8.34778 27.9234L8.72714 26.797L9.22906 27.8534L10.3992 27.795L9.5588 28.6383L9.96734 29.6918L8.92265 29.1928L8.02679 29.8669ZM4.69431 27.2843L5.14954 26.2688L4.42001 25.3555L5.51138 25.4897L6.17088 24.5005L6.37806 25.6531L7.52488 25.8982L6.49187 26.4935L6.61151 27.6199L5.73316 26.8641L4.69431 27.2843ZM2.12345 23.9752L2.82672 23.1144L2.35982 22.0434L3.37824 22.4549L4.27118 21.6699L4.17489 22.8371L5.21665 23.3741L4.064 23.6805L3.88891 24.7981L3.23526 23.841L2.12345 23.9752ZM0.550593 20.1408L1.45521 19.493L1.28304 18.3374L2.15847 18.9998L3.2265 18.4746L2.82672 19.5747L3.69632 20.3626L2.50281 20.3597L2.04175 21.3927L1.66239 20.2984L0.550593 20.1408ZM0.0107422 15.8862L1.04959 15.4952L1.18674 14.3338L1.85791 15.2004L3.02515 14.9699L2.3569 15.9329L2.98722 16.9192L1.83748 16.6041L1.12546 17.4853L1.04084 16.3268L0.0107422 15.8862ZM0.579774 11.7483L1.68574 11.6403L2.11762 10.5548L2.54366 11.5674L3.72842 11.6491L2.83256 12.402L3.18857 13.5196L2.15847 12.9185L1.24218 13.5809L1.46104 12.4428L0.579774 11.7483ZM2.12637 7.96644L3.22358 8.15028L3.92393 7.21065L4.06983 8.29911L5.19623 8.68722L4.13403 9.18038L4.18656 10.3535L3.34906 9.50429L2.28979 9.90699L2.79754 8.86522L2.12637 7.96644ZM4.73225 4.59894L5.74483 5.06L6.66404 4.33631L6.52397 5.42477L7.50737 6.09302L6.35472 6.29436L6.10084 7.43826L5.51138 6.39942L4.38499 6.51322L5.14662 5.64071L4.73225 4.59894ZM8.07348 2.11563L8.92849 2.82181L10.0053 2.36367L9.58506 3.37917L10.3642 4.27795L9.19696 4.1729L8.65711 5.21175L8.35654 4.05617L7.2389 3.87525L8.20188 3.22743L8.07348 2.11563ZM11.9429 0.452307L12.5849 1.35984L13.7434 1.19643L13.0751 2.06602L13.5945 3.13697L12.4944 2.73427L11.7007 3.59511L11.7124 2.40452L10.6823 1.93763L11.7766 1.56119L11.9429 0.452307Z" fill="#FF4D00"/>
<path d="M24.7096 21.8857L19.6963 9.10731C20.5717 8.56454 21.0444 7.88754 20.8635 7.02962C20.5717 5.73981 17.07 5.5122 13.7462 6.15419C10.4225 6.79617 8.5374 8.05096 8.78544 9.3466C8.88758 9.88645 9.45661 10.2921 10.3204 10.5372L9.49163 24.4303C9.48531 24.6001 9.54657 24.7655 9.66199 24.8902C9.7774 25.0149 9.93756 25.0888 10.1073 25.0956L10.5451 25.1132C10.7123 25.1188 10.8752 25.0593 10.9993 24.9471C11.1234 24.835 11.1991 24.679 11.2104 24.512L11.473 20.0882C12.471 20.4004 13.9972 20.4646 15.716 20.237L16.5389 25.7581C16.55 25.8414 16.5775 25.9217 16.6198 25.9943C16.6621 26.0669 16.7184 26.1305 16.7854 26.1812C16.8525 26.232 16.9289 26.2689 17.0103 26.2899C17.0917 26.311 17.1764 26.3157 17.2596 26.3037L17.6944 26.2425C17.7778 26.2314 17.8581 26.2038 17.9307 26.1615C18.0033 26.1192 18.0668 26.0629 18.1176 25.9959C18.1683 25.9289 18.2053 25.8524 18.2263 25.771C18.2473 25.6897 18.252 25.6049 18.2401 25.5217L17.4085 19.9277C19.1418 19.5571 20.6359 19.0902 21.5201 18.4686L23.1134 22.5306C23.1786 22.6847 23.3014 22.8072 23.4557 22.8721C23.61 22.937 23.7834 22.939 23.9392 22.8779L24.3448 22.7145C24.5028 22.6526 24.6298 22.5306 24.6982 22.3754C24.7665 22.2201 24.7706 22.044 24.7096 21.8857ZM11.9458 18.8334C11.8728 18.4161 13.1363 17.9025 15.3074 17.491L15.535 19.0143C13.5478 19.2799 12.0129 19.2157 11.9458 18.8334ZM11.6364 17.316L12.0275 10.7969C12.7899 10.8282 13.5536 10.7911 14.3094 10.686L15.1265 16.1691C13.9131 16.3779 12.7371 16.7643 11.6364 17.316ZM9.77176 8.78049C11.2775 9.64133 15.8006 10.1141 19.6933 7.37979C16.5564 10.8436 10.049 9.99442 9.77176 8.78049ZM15.9873 10.3884C16.7118 10.2347 17.4269 10.0398 18.1292 9.80474L20.4958 15.8482C19.2687 15.7175 18.0304 15.7341 16.8073 15.8978L15.9873 10.3884ZM17.2275 18.7312L17.0058 17.2167C18.9463 16.9658 20.633 16.9454 20.7147 17.3043C20.8402 17.8733 19.2877 18.3402 17.2275 18.7312Z" fill="#FF4D00"/>
<path d="M96.4131 2.3811V4.45004H97.3148V12.8513H96.4131V14.7714H103.989V9.83396H101.85V12.8513H99.3808V4.45004H100.245V2.3811H96.4131Z" fill="#FF4D00"/>
<path d="M72.8582 16.6887H68.3701V21.0776H70.2435V18.5359H71.545V27.083H70.7192V29.079H74.4865V27.083H73.6607V18.5359H74.9621V21.0776H76.8326V16.6887H72.8582Z" fill="#FF4D00"/>
<path d="M75.8406 2.3811H71.3555V6.76994H73.226V4.23119H74.5275V12.8513H73.7016V14.7714H77.4718V12.8513H76.6431V4.23119H77.9446V6.76994H79.818V2.3811H75.8406Z" fill="#FF4D00"/>
<path d="M77.787 25.5831V27.7834L79.0827 29.079H83.1855L84.5395 27.725V22.9072L83.2964 21.667H79.818V18.603H82.4326V20.1846H84.5395V17.8618L83.3694 16.6946H78.858L77.7637 17.7889V22.6534L78.8521 23.7418H82.4677V27.0918H79.8297V25.5831H77.787Z" fill="#FF4D00"/>
<path d="M36.0585 25.5831V27.7834L37.3541 29.079H41.457L42.811 27.725V22.9072L41.5679 21.667H38.0895V18.603H40.7041V20.1846H42.811V17.8618L41.6408 16.6946H37.1294L36.0352 17.7889V22.6534L37.1236 23.7418H40.7392V27.0918H38.1012V25.5831H36.0585Z" fill="#FF4D00"/>
<path d="M63.6229 11.2697V13.4699L64.9186 14.7656H69.0215L70.3725 13.4145V8.59376L69.1323 7.35356H65.6539V4.28955H68.2657V5.87116H70.3725V3.54835L69.2053 2.3811H64.691L63.5967 3.4754V8.33989L64.6851 9.42834H68.3036V12.7783H65.6656V11.2697H63.6229Z" fill="#FF4D00"/>
</g>
<defs>
<clipPath id="clip0_149_204">
<rect width="103.978" height="32" fill="white" transform="translate(0.0107422)"/>
</clipPath>
</defs>
</svg>
