<svg width="60" height="32" viewBox="0 0 60 32" fill="none" xmlns="http://www.w3.org/2000/svg">
<g clip-path="url(#clip0_172_1202)">
<path d="M46.0561 10.0223C45.4339 10.5112 44.6339 10.8001 43.7673 10.8001C41.7673 10.8001 40.145 9.2223 40.145 7.28896C40.145 5.35563 41.7895 3.77785 43.7895 3.77785C44.6561 3.77785 45.4561 4.06674 46.0784 4.55563L46.8561 3.77785C46.0339 3.08896 44.9673 2.68896 43.8117 2.68896C41.2117 2.68896 39.1006 4.75563 39.1006 7.28896C39.1006 9.8223 41.2117 11.889 43.8117 11.889C44.9673 11.889 46.0339 11.4667 46.8561 10.8001L46.0561 10.0223Z" fill="#FF4D00"/>
<path d="M32.1449 18.2C32.5227 18.2 32.8338 17.8889 32.8338 17.5112C32.8338 17.1334 32.5227 16.8223 32.1449 16.8223C31.7672 16.8223 31.4561 17.1334 31.4561 17.5112C31.4561 17.8889 31.7672 18.2 32.1449 18.2Z" fill="#FF4D00"/>
<path d="M32.7002 19.5112H31.6113V28.689H32.7002V19.5112Z" fill="#FF4D00"/>
<path d="M9.43381 7.26674C9.43381 4.75563 7.43381 2.68896 4.98937 2.68896C3.67826 2.68896 2.45603 3.26674 1.63381 4.26674V2.68896H0.544922V15.1779H1.63381V10.2667C2.47826 11.289 3.67826 11.8667 4.98937 11.8667C7.43381 11.8667 9.43381 9.80008 9.43381 7.26674ZM4.98937 10.7779C3.16714 10.7779 1.70048 9.28897 1.63381 7.40008V7.26674C1.63381 5.33341 3.1227 3.77785 4.98937 3.77785C6.85603 3.77785 8.34492 5.33341 8.34492 7.26674C8.34492 9.20008 6.83381 10.7779 4.98937 10.7779Z" fill="#FF4D00"/>
<path d="M13.4562 28.689C14.7673 28.689 15.9673 28.1112 16.8117 27.089V28.689H17.9006V19.5112H16.8117V21.089C15.9673 20.089 14.7673 19.5112 13.4562 19.5112C11.0117 19.5112 9.01172 21.5557 9.01172 24.089C9.03394 26.6223 11.0117 28.689 13.4562 28.689ZM10.1006 24.0668C10.1006 22.1335 11.6117 20.5779 13.4562 20.5779C15.3006 20.5779 16.8117 22.1335 16.8117 24.0668V24.2001C16.7451 26.089 15.2562 27.5779 13.4562 27.5779C11.6117 27.6001 10.1006 26.0223 10.1006 24.0668Z" fill="#FF4D00"/>
<path d="M29.6115 24.0665C29.6115 21.5554 27.6115 19.4888 25.1671 19.4888C23.856 19.4888 22.6338 20.0665 21.8115 21.0665V19.4888H20.7227V31.9999H21.8115V27.0888C22.656 28.111 23.856 28.6888 25.1671 28.6888C27.6338 28.6888 29.6115 26.6221 29.6115 24.0665ZM25.1893 27.5999C23.3671 27.5999 21.9004 26.111 21.8338 24.2221V24.0888C21.8338 22.1554 23.3449 20.5999 25.1893 20.5999C27.0338 20.5999 28.5449 22.1554 28.5449 24.0888C28.5449 26.0221 27.0338 27.5999 25.1893 27.5999Z" fill="#FF4D00"/>
<path d="M17.5228 2.68896V8.11119C17.5228 9.60008 16.345 10.8001 14.8339 10.8001C13.345 10.7779 12.1673 9.60008 12.1673 8.11119V2.68896H11.1006V8.11119C11.1006 10.1779 12.7673 11.8667 14.8339 11.8667C16.9228 11.8667 18.6117 10.1779 18.6117 8.11119V2.68896H17.5228Z" fill="#FF4D00"/>
<path d="M25.1896 2.68889C23.8785 2.68889 22.6785 3.26667 21.834 4.28889V0H20.7451V11.8889H21.834V10.3111C22.6785 11.3111 23.8785 11.8889 25.1896 11.8889C27.634 11.8889 29.634 9.84445 29.634 7.31111C29.6118 4.75556 27.634 2.68889 25.1896 2.68889ZM28.5451 7.28889C28.5451 9.22222 27.034 10.7778 25.1896 10.7778C23.3451 10.7778 21.834 9.22222 21.834 7.28889V7.15556C21.9007 5.26667 23.3896 3.77778 25.1896 3.77778C27.034 3.77778 28.5451 5.35556 28.5451 7.28889Z" fill="#FF4D00"/>
<path d="M36.3891 1.37778C36.7669 1.37778 37.078 1.06667 37.078 0.688889C37.078 0.311111 36.7669 0 36.3891 0C36.0113 0 35.7002 0.311111 35.7002 0.688889C35.7002 1.06667 36.0113 1.37778 36.3891 1.37778Z" fill="#FF4D00"/>
<path d="M36.9453 2.68896H35.8564V11.8667H36.9453V2.68896Z" fill="#FF4D00"/>
<path d="M49.9224 1.37778C50.3002 1.37778 50.6113 1.06667 50.6113 0.688889C50.6113 0.311111 50.3002 0 49.9224 0C49.5447 0 49.2335 0.311111 49.2335 0.688889C49.2113 1.06667 49.5224 1.37778 49.9224 1.37778Z" fill="#FF4D00"/>
<path d="M50.4561 2.68896H49.3672V11.8667H50.4561V2.68896Z" fill="#FF4D00"/>
<path d="M49.8339 19.5112C48.8117 19.5112 47.8339 19.9335 47.145 20.6668V19.5112H46.1006V28.689H47.145V23.2446C47.1895 21.7557 48.3895 20.5557 49.8339 20.5557C51.3228 20.5557 52.5228 21.7557 52.5228 23.2446V28.689H53.5895V23.2446C53.5673 21.1779 51.8784 19.5112 49.8339 19.5112Z" fill="#FF4D00"/>
<path d="M59.1452 27.6443L59.0341 27.6666C58.923 27.6888 58.7674 27.7332 58.5007 27.7332C58.0563 27.7332 57.8785 27.4666 57.8785 26.8221V20.5555H59.1452V19.511H57.8785V16.4221H56.7674V19.511H55.4785V20.5555H56.7674V26.8443C56.7674 27.5332 56.9007 27.9777 57.1452 28.2666C57.3896 28.5555 57.7674 28.6888 58.2341 28.6888C58.5896 28.6888 58.9007 28.6443 59.1007 28.5555L59.1674 28.5332L59.1452 27.6443Z" fill="#FF4D00"/>
<path d="M42.2781 26.0446C41.6781 27.0223 40.6115 27.6223 39.4559 27.6223C37.6781 27.6223 36.1893 26.2001 36.0559 24.3557H43.3448C43.6337 24.3557 43.8781 24.1335 43.8781 23.8668V23.7779C43.6781 21.3557 41.7893 19.5112 39.4559 19.5112C36.9893 19.5112 34.9893 21.5779 34.9893 24.1112C34.9893 26.6223 36.9893 28.689 39.4559 28.689C40.967 28.689 42.3448 27.9112 43.167 26.6223L42.2781 26.0446ZM39.4559 20.5779C41.0337 20.5779 42.3893 21.7335 42.7226 23.3112H36.1448C36.5004 21.689 37.8559 20.5779 39.4559 20.5779Z" fill="#FF4D00"/>
<path d="M6.5449 24.2666C6.5449 24.2666 6.25601 24.0444 5.96712 23.9111C5.65601 23.7777 5.23379 23.6444 4.32268 23.4222C4.18934 23.4 4.07823 23.3777 3.96712 23.3333C3.36712 23.1777 2.90046 22.9777 2.5449 22.7333C2.21157 22.4444 2.10046 22.1999 2.10046 21.8888C2.12268 21.5555 2.32268 21.2222 2.67823 20.9555C3.07823 20.6444 3.67823 20.5111 4.3449 20.5333C5.10046 20.5555 5.67823 20.9555 6.30046 21.4L6.36712 21.4444L7.1449 20.7111C7.05601 20.6222 7.03379 20.5999 6.76712 20.4222C6.1449 19.9999 5.38934 19.5555 4.36712 19.5111C3.47823 19.4666 2.70046 19.6444 2.07823 20.0444C1.41157 20.4888 0.989345 21.1333 0.989345 21.8222C0.989345 22.3333 1.07823 22.8222 1.61157 23.3111C2.23379 23.9111 3.18934 24.2222 4.05601 24.3777C4.81157 24.5333 5.50046 24.8 5.85601 25.0888C6.27823 25.4666 6.41157 25.7555 6.41157 26.1555C6.38934 26.5333 6.1449 26.8888 5.72268 27.1555C5.30046 27.4666 4.67823 27.6444 4.05601 27.6222C3.21157 27.5777 2.3449 27.2222 1.47823 26.5333L1.41157 26.4888L0.633789 27.2L0.700456 27.2666C1.72268 28.1333 2.81157 28.6222 3.98934 28.6888C4.85601 28.7333 5.61157 28.5111 6.32268 28.0444C7.03379 27.5555 7.43379 26.9111 7.47823 26.2C7.5449 25.4666 7.16712 24.7111 6.5449 24.2666Z" fill="#FF4D00"/>
<path d="M58.4785 7.44435C58.4785 7.44435 58.1896 7.22213 57.9007 7.0888C57.5896 6.95546 57.1674 6.82213 56.2563 6.59991C56.1229 6.57768 56.0118 6.55546 55.9007 6.51102C55.3007 6.35546 54.834 6.15546 54.4785 5.91102C54.1452 5.62213 54.0118 5.37768 54.034 5.06657C54.0563 4.73324 54.2563 4.39991 54.6118 4.13324C55.0118 3.82213 55.6118 3.6888 56.2785 3.71102C57.034 3.73324 57.6118 4.13324 58.234 4.57768L58.3007 4.62213L59.0785 3.8888C58.9896 3.79991 58.9674 3.77768 58.7007 3.59991C58.0785 3.17768 57.3229 2.73324 56.3007 2.6888C55.4118 2.64435 54.634 2.82213 54.0118 3.22213C53.3452 3.66657 52.9229 4.31102 52.9229 4.99991C52.9229 5.51102 53.0118 5.99991 53.5452 6.4888C54.1674 7.0888 55.1229 7.39991 55.9896 7.55546C56.7452 7.71102 57.434 7.97768 57.7896 8.26657C58.2118 8.64435 58.3452 8.93324 58.3452 9.33324C58.3229 9.71102 58.0785 10.0666 57.6563 10.3332C57.234 10.6444 56.6118 10.8221 55.9896 10.7999C55.1452 10.7555 54.2785 10.3999 53.4118 9.71102L53.3452 9.66657L52.5674 10.3777L52.634 10.4444C53.6563 11.311 54.7452 11.7999 55.9229 11.8666C56.7896 11.911 57.5452 11.6888 58.2563 11.2221C58.9674 10.7332 59.3674 10.0888 59.4118 9.37769C59.4785 8.64435 59.1229 7.8888 58.4785 7.44435Z" fill="#FF4D00"/>
<path d="M32.7002 0H31.6113V11.8667H32.7002V0Z" fill="#FF4D00"/>
</g>
<defs>
<clipPath id="clip0_172_1202">
<rect width="58.9111" height="32" fill="white" transform="translate(0.544922)"/>
</clipPath>
</defs>
</svg>
