<svg width="108" height="32" viewBox="0 0 108 32" fill="none" xmlns="http://www.w3.org/2000/svg">
<g clip-path="url(#clip0_172_1110)">
<path d="M27.66 0.901855H19.8363L11.9004 14.6026L19.8442 28.3025H27.6672L19.4838 14.6026L27.66 0.901855Z" fill="#FF4D00"/>
<path d="M6.00047 11.3495C6.05803 12.5418 5.15107 13.5551 3.97457 13.6135C2.79807 13.6718 1.79745 12.7529 1.7399 11.5607C1.68234 10.3691 2.58965 9.35537 3.76616 9.29706C4.94266 9.23875 5.94292 10.1579 6.00047 11.3495Z" fill="#FF4D00"/>
<path d="M9.40906 12.3645C9.44088 13.0265 8.93717 13.5897 8.28368 13.6219C7.63019 13.6545 7.07429 13.1439 7.04247 12.4818C7.0103 11.8198 7.51436 11.2566 8.16786 11.2243C8.82135 11.1921 9.37725 11.7024 9.40906 12.3645Z" fill="#FF4D00"/>
<path d="M9.99287 5.8826C8.78598 9.2099 9.51062 10.3243 9.51062 10.3243C6.9113 9.93026 2.7948 6.9713 2.85914 4.02718C2.90347 1.98742 4.31163 0.256222 6.32323 0.156262C10.3518 -0.0432963 10.5541 4.33467 9.99287 5.8826Z" fill="#FF4D00"/>
<path d="M11.0143 20.4481C9.40949 15.7583 10.0165 14.093 10.0165 14.093C6.33901 15.0296 0.526922 19.9117 1.02848 24.13C1.37596 27.0531 3.63852 29.338 6.54099 29.1939C12.3534 28.906 11.7832 22.6957 11.0143 20.4481Z" fill="#FF4D00"/>
<path d="M95.5125 19.1665C92.7884 19.1665 90.9141 21.1483 90.9141 24.0102C90.9141 26.8442 92.8248 28.7428 95.6404 28.7428C96.8123 28.7428 97.8365 28.4675 98.6662 27.9721L97.3693 25.8005C96.8767 26.1304 96.315 26.3071 95.7867 26.3071C94.7993 26.3071 94.1047 25.8439 93.8669 24.853H99.9461C99.9829 24.6585 100.001 24.2511 100.001 23.9548C99.9918 21.1114 98.1726 19.1665 95.5125 19.1665ZM93.8762 23.0193C94.0954 22.1208 94.6348 21.63 95.5218 21.63C96.3536 21.63 96.9113 22.1117 97.1398 23.0193H93.8762Z" fill="#FF4D00"/>
<path d="M64.9773 19.1321C62.2532 19.1321 60.3789 21.1139 60.3789 23.9758C60.3789 26.8098 62.2897 28.7083 65.1053 28.7083C66.2771 28.7083 67.3014 28.4331 68.1311 27.9376L66.8341 25.766C66.3415 26.096 65.7799 26.2727 65.2515 26.2727C64.2641 26.2727 63.5695 25.8095 63.3318 24.8186H69.4109C69.4477 24.6241 69.466 24.2166 69.466 23.9204C69.4566 21.077 67.6378 19.1321 64.9773 19.1321ZM63.3411 22.9849C63.5602 22.0863 64.0997 21.5956 64.9866 21.5956C65.8185 21.5956 66.3762 22.0773 66.6046 22.9849H63.3411Z" fill="#FF4D00"/>
<path d="M45.1209 4.39771C42.3968 4.39771 40.5225 6.37952 40.5225 9.24143C40.5225 12.0754 42.4332 13.974 45.2488 13.974C46.4207 13.974 47.4449 13.6987 48.2746 13.2033L46.9777 11.0317C46.485 11.3616 45.9234 11.5383 45.3951 11.5383C44.4077 11.5383 43.7131 11.0751 43.4753 10.0842H49.5545C49.5913 9.88972 49.6095 9.48227 49.6095 9.18601C49.6002 6.34258 47.781 4.39771 45.1209 4.39771ZM43.4846 8.25052C43.7038 7.35196 44.2432 6.86122 45.1302 6.86122C45.962 6.86122 46.5197 7.34291 46.7482 8.25052H43.4846Z" fill="#FF4D00"/>
<path d="M32.7086 0.891602H29.7422V13.5815H32.7086V0.891602Z" fill="#FF4D00"/>
<path d="M54.6062 13.8141C56.926 13.8141 58.8103 12.5624 58.8103 9.79832V4.74707H56.0373V9.54624C56.0373 10.6719 55.4327 11.1847 54.6062 11.1847C53.7708 11.1847 53.1755 10.6719 53.1755 9.54624V4.74707H50.3936V9.78926C50.3936 12.5624 52.2779 13.8141 54.6062 13.8141Z" fill="#FF4D00"/>
<path d="M67.043 13.5799H69.8246V4.74683H67.043V13.5799Z" fill="#FF4D00"/>
<path d="M45.4044 20.5277V19.5104H42.7383V28.3435H45.5199V23.5714C45.5199 22.4726 46.1244 21.9775 47.1107 21.9775C47.6084 21.9775 48.7288 21.9811 48.7288 21.9811L48.7638 19.4024C48.5507 19.339 48.195 19.2673 47.7864 19.2673C46.72 19.2673 45.911 19.6726 45.4044 20.5277Z" fill="#FF4D00"/>
<path d="M106.092 19.2674C105.026 19.2674 104.217 19.6726 103.71 20.5277V19.5104H101.044V28.3435H103.826V23.5714C103.826 22.4726 104.43 21.9775 105.416 21.9775C105.914 21.9775 107.034 21.9811 107.034 21.9811L107.069 19.4024C106.856 19.339 106.501 19.2674 106.092 19.2674Z" fill="#FF4D00"/>
<path d="M62.7435 8.81604C62.7435 7.7172 63.3481 7.22211 64.3344 7.22211C64.832 7.22211 65.9524 7.22574 65.9524 7.22574L65.9874 4.64705C65.7744 4.58404 65.4186 4.51196 65.01 4.51196C63.9436 4.51196 63.1346 4.91724 62.6281 5.77233V4.75498H59.9619V13.5881H62.7435V8.81604Z" fill="#FF4D00"/>
<path d="M55.695 15.7273H50.3623V28.3331H53.3309V24.074H55.7215C58.7701 24.074 60.3967 22.4174 60.3967 19.9321C60.3967 17.402 58.7701 15.7273 55.695 15.7273ZM55.6503 21.391H53.3309V18.4556H55.6503C56.7171 18.4556 57.3745 18.9684 57.3745 19.9321C57.3745 20.8865 56.7171 21.391 55.6503 21.391Z" fill="#FF4D00"/>
<path d="M75.4089 19.4634C74.4937 19.4634 73.6436 19.743 72.935 20.2207V19.5H70.251V31.9349H73.024V27.8231C73.7147 28.2657 74.5309 28.5257 75.4089 28.5257C77.8791 28.5257 79.8814 26.4972 79.8814 23.9945C79.8814 21.4919 77.8791 19.4634 75.4089 19.4634ZM75.2623 26.11C74.109 26.11 73.1738 25.1629 73.1738 23.9945C73.1738 22.8262 74.109 21.8787 75.2623 21.8787C76.4156 21.8787 77.3504 22.8262 77.3504 23.9945C77.3504 25.1629 76.4156 26.11 75.2623 26.11Z" fill="#FF4D00"/>
<path d="M85.8298 19.4634C84.9146 19.4634 84.0645 19.743 83.3559 20.2207V19.5H80.6719V31.9349H83.4449V27.8231C84.1356 28.2657 84.9518 28.5257 85.8298 28.5257C88.2997 28.5257 90.3023 26.4972 90.3023 23.9945C90.3023 21.4919 88.2997 19.4634 85.8298 19.4634ZM85.6832 26.11C84.5299 26.11 83.5947 25.1629 83.5947 23.9945C83.5947 22.8262 84.5299 21.8787 85.6832 21.8787C86.8364 21.8787 87.7713 22.8262 87.7713 23.9945C87.7713 25.1629 86.8364 26.11 85.6832 26.11Z" fill="#FF4D00"/>
<path d="M37.5767 13.5787H41.1991L37.4169 7.2468L41.1955 0.891357H37.5731L33.8984 7.23521L37.5767 13.5787Z" fill="#FF4D00"/>
<path d="M35.0675 15.7273H29.7441V24.1804H32.7124V18.5095H35.0053C37.3162 18.5095 38.4269 19.9684 38.4269 22.0302C38.4269 24.0653 37.3162 25.5506 35.0053 25.5506L29.7441 25.5491V28.3332H35.0675C38.9606 28.3332 41.5288 25.8302 41.5288 22.0302C41.5288 18.2303 38.9606 15.7273 35.0675 15.7273Z" fill="#FF4D00"/>
<path d="M77.6477 4.74679V5.33098C76.9703 4.9123 76.177 4.66675 75.3251 4.66675C72.8548 4.66675 70.8525 6.69565 70.8525 9.19791C70.8525 11.7005 72.8548 13.7291 75.3251 13.7291C76.1573 13.7291 76.9335 13.4948 77.6009 13.0938C77.4883 14.3343 76.4809 14.8942 75.417 14.8942C74.7138 14.8942 74.0657 14.7569 73.4533 14.4777L72.226 16.5939C73.1991 17.1013 74.4128 17.3617 75.6125 17.3617C78.4653 17.3617 80.3407 15.633 80.3407 12.7335V4.74679H77.6477ZM75.5221 11.2949C74.3688 11.2949 73.4336 10.3478 73.4336 9.17944C73.4336 8.01107 74.3688 7.06362 75.5221 7.06362C76.6754 7.06362 77.6105 8.01107 77.6105 9.17944C77.6105 10.3478 76.6754 11.2949 75.5221 11.2949Z" fill="#FF4D00"/>
<path d="M69.8576 2.26011C69.8955 3.04458 69.2985 3.71171 68.5242 3.7501C67.7499 3.78849 67.0914 3.18366 67.0535 2.39919C67.0156 1.61472 67.6126 0.947592 68.3869 0.909202C69.1612 0.870812 69.8197 1.47564 69.8576 2.26011Z" fill="#FF4D00"/>
</g>
<defs>
<clipPath id="clip0_172_1110">
<rect width="106.32" height="32" fill="white" transform="translate(0.839844)"/>
</clipPath>
</defs>
</svg>
