<svg width="46" height="32" viewBox="0 0 46 32" fill="none" xmlns="http://www.w3.org/2000/svg">
<g clip-path="url(#clip0_147_164)">
<path fill-rule="evenodd" clip-rule="evenodd" d="M24.8418 1.08905C22.5812 1.08905 20.535 2.03733 19.0648 3.56863L19.0664 3.57735C17.4589 1.45797 14.8969 0.0925293 12.0335 0.0925293C7.14388 0.0925293 3.17528 4.04646 3.17528 8.9386C3.17401 10.149 3.42197 11.3466 3.90369 12.4569C1.63305 13.7972 0.102539 16.2768 0.102539 19.125C0.102539 23.3637 3.50181 26.815 7.70484 26.815C8.23042 26.8154 8.75459 26.7608 9.26884 26.6522C10.4243 29.7852 13.4216 32.0135 16.9549 32.0135C20.3374 32.0135 23.2427 29.9527 24.4902 27.0208C25.4706 27.4991 26.5475 27.7467 27.6383 27.7446C30.3175 27.7446 32.6702 26.2535 33.901 24.0587C34.5339 24.1847 35.1803 24.2514 35.8434 24.2514C41.2688 24.2514 45.6728 19.8116 45.6728 14.333C45.6728 8.8545 41.2688 4.41471 35.8434 4.41471C34.4758 4.41401 33.1234 4.70233 31.8748 5.26078C30.4682 2.76445 27.856 1.08905 24.8418 1.08905ZM27.043 11.255C27.1312 11.2704 27.2184 11.2911 27.3041 11.317C27.3228 11.3243 27.3734 11.3495 27.3526 11.4091L27.1507 11.964C27.1338 12.0057 27.1222 12.0312 27.0361 12.0049C27.0147 11.9985 26.9829 11.9893 26.901 11.9719C26.8416 11.9595 26.7635 11.9499 26.684 11.9499C26.5879 11.9486 26.4923 11.9624 26.4005 11.9908C26.3168 12.0183 26.2409 12.0655 26.1793 12.1285C26.1133 12.1947 26.0354 12.291 25.9941 12.4105C25.9098 12.6537 25.8698 12.9101 25.858 12.9855C25.8563 12.9969 25.8551 13.0041 25.8546 13.0066H26.699C26.7697 13.0063 26.7922 13.0391 26.7853 13.0917L26.6868 13.6412C26.6716 13.7208 26.5982 13.7181 26.5982 13.7181H25.7282L25.133 17.0872C25.0706 17.4355 24.9925 17.7344 24.901 17.9752C24.8084 18.2181 24.7116 18.3962 24.5577 18.5662C24.4153 18.7239 24.2544 18.8403 24.0696 18.9072C23.8859 18.9735 23.6643 19.0077 23.4212 19.0077C23.3051 19.0077 23.1812 19.0055 23.0342 18.9708C22.9284 18.9459 22.8706 18.9281 22.7929 18.9003C22.7597 18.8884 22.7335 18.8472 22.7522 18.7949C22.7706 18.742 22.9262 18.3139 22.9481 18.2578C22.9751 18.1891 23.0436 18.2152 23.0436 18.2152L23.047 18.2167C23.0922 18.2357 23.1248 18.2494 23.1861 18.2615C23.2489 18.274 23.3339 18.2848 23.3979 18.2848C23.5128 18.2848 23.6176 18.2707 23.7087 18.24C23.819 18.203 23.883 18.1395 23.9505 18.0532C24.0202 17.9641 24.0768 17.8413 24.1347 17.6774C24.1935 17.5114 24.2465 17.2923 24.2929 17.0259L24.8852 13.7181H24.3015C24.2311 13.7185 24.2085 13.6856 24.2154 13.633L24.3139 13.0835C24.3293 13.0036 24.4024 13.0066 24.4024 13.0066H25.0021L25.0344 12.8275C25.124 12.2969 25.3027 11.8936 25.5652 11.6289C25.8296 11.3622 26.2062 11.2272 26.684 11.2272C26.8042 11.2259 26.9244 11.2352 27.043 11.255ZM15.4274 17.1132C15.4716 17.1132 15.5031 17.0771 15.5031 17.0329V11.3922C15.5031 11.3481 15.4716 11.3124 15.4274 11.3124H14.7269C14.6826 11.3124 14.6511 11.3481 14.6511 11.3922V17.0329C14.6511 17.0771 14.6826 17.1132 14.7269 17.1132H15.4274ZM6.7533 16.7328C6.7396 16.7198 6.71715 16.6985 6.74083 16.6367L6.74016 16.6353L6.92435 16.1227C6.95349 16.0349 7.02047 16.0642 7.04726 16.0804C7.0678 16.093 7.08617 16.105 7.10512 16.1174L7.1052 16.1174C7.13305 16.1356 7.16218 16.1546 7.20132 16.1775C7.74553 16.5216 8.24772 16.5243 8.40529 16.5243C8.81053 16.5243 9.06338 16.3081 9.06338 16.0183V16.0025C9.06338 15.6876 8.67489 15.5676 8.22612 15.4296L8.12699 15.3987C7.51077 15.2228 6.85101 14.9682 6.85101 14.1874V14.1715C6.85101 13.431 7.44881 12.9133 8.30449 12.9133L8.39776 12.913C8.90011 12.913 9.38572 13.0587 9.73737 13.2732C9.76935 13.2923 9.8005 13.3293 9.78275 13.3784C9.76601 13.4253 9.60977 13.8436 9.59186 13.891C9.55887 13.9787 9.46811 13.92 9.46811 13.92C9.16167 13.7506 8.68276 13.6168 8.28088 13.6168C7.91918 13.6168 7.68475 13.8095 7.68475 14.0708V14.0864C7.68475 14.3913 8.08496 14.5223 8.5488 14.6728L8.62901 14.6988C9.24188 14.8914 9.89829 15.1612 9.89829 15.9017V15.9174C9.89829 16.7183 9.31724 17.2159 8.38286 17.2159C7.92404 17.2159 7.48532 17.1438 7.0198 16.8975C6.99948 16.8858 6.97917 16.8743 6.95888 16.8628L6.95883 16.8628C6.8922 16.8252 6.82583 16.7877 6.76025 16.7402C6.75865 16.7379 6.75617 16.7356 6.7533 16.7328ZM20.4338 16.7316C20.4199 16.7186 20.3972 16.6973 20.421 16.6353L20.4189 16.634L20.6031 16.1213C20.6301 16.0376 20.709 16.0684 20.7259 16.0791L20.7585 16.1003C20.7946 16.1239 20.8292 16.1464 20.8801 16.1761C21.4226 16.5202 21.9262 16.5229 22.0841 16.5229C22.4893 16.5229 22.7422 16.3068 22.7422 16.017V16.0012C22.7422 15.6862 22.3554 15.5663 21.9049 15.4282L21.8059 15.3974C21.1897 15.2215 20.53 14.9668 20.53 14.1861V14.1702C20.53 13.4296 21.1278 12.9119 21.9834 12.9119L22.0769 12.9116C22.5792 12.9116 23.0648 13.0574 23.4165 13.2718C23.4483 13.2909 23.4796 13.3279 23.4617 13.377C23.4466 13.4239 23.2902 13.8423 23.2725 13.8897C23.2393 13.9773 23.1486 13.9187 23.1486 13.9187C22.8405 13.7493 22.3632 13.6154 21.9613 13.6154C21.5996 13.6154 21.3652 13.8081 21.3652 14.0695V14.0851C21.3652 14.39 21.7654 14.521 22.2293 14.6714L22.3095 14.6974C22.924 14.8901 23.5788 15.1598 23.5788 15.9003V15.9161C23.5788 16.7169 22.9977 17.2145 22.0633 17.2145C21.6045 17.2145 21.1658 17.1425 20.7003 16.8962L20.6676 16.8775L20.6387 16.8611L20.6386 16.8611C20.5721 16.8236 20.5058 16.7862 20.4407 16.7389C20.4391 16.7366 20.4366 16.7343 20.4338 16.7316ZM29.5132 16.128C29.6782 15.8752 29.7626 15.5186 29.7627 15.0667C29.7626 14.6147 29.6792 14.2598 29.5132 14.0103C29.3491 13.7635 29.1013 13.6434 28.753 13.6434C28.4047 13.6434 28.1582 13.7624 27.9961 14.0103C27.833 14.26 27.75 14.6151 27.75 15.0675C27.75 15.5199 27.8325 15.8784 27.9961 16.1297C28.1586 16.3787 28.4064 16.5 28.753 16.5C29.0996 16.5 29.3485 16.3777 29.5132 16.128ZM30.1881 13.5496C30.3471 13.7406 30.4662 13.9684 30.5431 14.2281H30.5414C30.6174 14.4861 30.6561 14.7693 30.6561 15.0675C30.6561 15.3674 30.6174 15.6489 30.5414 15.9069C30.4644 16.1666 30.3453 16.3944 30.1864 16.5854C30.0273 16.7764 29.8247 16.9292 29.5869 17.0378C29.3491 17.1463 29.0678 17.2016 28.7513 17.2016C28.4348 17.2016 28.1535 17.1463 27.9141 17.0378C27.6763 16.9289 27.4738 16.7764 27.3146 16.5854C27.1555 16.3944 27.0361 16.1666 26.9596 15.9069C26.8834 15.6489 26.8447 15.3674 26.8447 15.0675C26.8447 14.7676 26.8834 14.4861 26.9596 14.2281C27.0366 13.9684 27.1559 13.7406 27.3146 13.5496C27.4737 13.3586 27.6763 13.2051 27.9141 13.0939C28.1535 12.9828 28.4332 12.9264 28.7513 12.9264C29.0695 12.9264 29.3508 12.9825 29.5886 13.0939C29.828 13.2045 30.0288 13.3586 30.1881 13.5496ZM36.8552 16.3254C36.8552 16.3254 36.9292 16.2967 36.9548 16.3726L37.148 16.9021C37.1725 16.9677 37.1162 16.9949 37.1162 16.9949C36.8215 17.1117 36.4112 17.1926 36.011 17.1926C35.3345 17.1926 34.8154 16.9982 34.4705 16.6129C34.1255 16.2292 33.9514 15.7048 33.9514 15.0581C33.9514 14.7582 33.9941 14.4751 34.0786 14.2171C34.164 13.9574 34.2913 13.7295 34.4588 13.5385C34.6262 13.3475 34.8372 13.1939 35.0867 13.0828C35.3362 12.9716 35.6276 12.9155 35.9558 12.9155C36.1768 12.9155 36.3727 12.9289 36.5419 12.9547C36.7227 12.982 36.9615 13.0468 37.0626 13.0864C37.0812 13.0936 37.1321 13.1187 37.1114 13.1782C37.0624 13.3166 37.0236 13.4231 36.9829 13.5347L36.982 13.5371L36.9819 13.5372C36.9619 13.5923 36.9413 13.6487 36.9188 13.7109C36.8895 13.7915 36.8284 13.7649 36.8284 13.7649C36.5705 13.6841 36.3243 13.6468 36.0028 13.6468C35.6177 13.6468 35.3263 13.7775 35.1371 14.0288C34.9454 14.2834 34.8385 14.6151 34.8374 15.0575C34.8357 15.5433 34.9563 15.9019 35.1723 16.1247C35.3866 16.3473 35.688 16.4598 36.0648 16.4598C36.2172 16.4598 36.3618 16.4495 36.4918 16.4291C36.6207 16.409 36.7418 16.3688 36.8552 16.3254ZM38.3202 14.6299L38.3202 14.6302L38.3118 14.6299L38.3202 14.6299ZM38.3202 14.6299C38.3576 14.3787 38.4264 14.1694 38.5345 14.007C38.6965 13.759 38.9431 13.6233 39.2897 13.6233C39.6364 13.6233 39.8658 13.7597 40.0299 14.007C40.1387 14.1703 40.1863 14.3873 40.204 14.6302L38.3202 14.6299ZM40.6109 13.4591C40.7181 13.5747 40.8827 13.8277 40.9492 14.0773L40.9527 14.0779C41.1118 14.6364 41.0441 15.1243 41.0329 15.205L41.0316 15.2154C41.0244 15.2835 40.9547 15.2841 40.9547 15.2841L38.309 15.2821C38.324 15.6842 38.4212 15.9674 38.6154 16.1617C38.8063 16.3515 39.1094 16.4727 39.5196 16.4733C40.0921 16.4749 40.3654 16.3694 40.5525 16.2972C40.5707 16.2902 40.588 16.2836 40.6047 16.2773C40.6047 16.2773 40.6777 16.2512 40.7042 16.3234L40.8767 16.8076C40.9112 16.8892 40.8835 16.9175 40.8542 16.9339C40.6901 17.026 40.2882 17.1961 39.5247 17.1986C39.1546 17.1998 38.8314 17.1463 38.5652 17.0433C38.2972 16.9394 38.0745 16.792 37.9004 16.6027C37.7262 16.415 37.5971 16.1888 37.5169 15.9308C37.4375 15.6745 37.3972 15.3914 37.3972 15.0864C37.3972 14.7882 37.436 14.5034 37.5131 14.2437C37.5901 13.9807 37.7108 13.7511 37.8714 13.5568C38.0322 13.3625 38.2365 13.207 38.4793 13.0927C38.7221 12.9793 39.0218 12.9235 39.3517 12.9235C39.6118 12.9231 39.8692 12.9753 40.1086 13.0771C40.2743 13.1475 40.4401 13.2765 40.6109 13.4591ZM17.1711 14.6299L17.1711 14.6302L17.1627 14.6299L17.1711 14.6299ZM19.0549 14.6302L17.1711 14.6299C17.2085 14.3787 17.2774 14.1694 17.3854 14.007C17.5475 13.759 17.794 13.6233 18.1406 13.6233C18.4872 13.6233 18.7166 13.7597 18.8807 14.007C18.9894 14.1703 19.037 14.3873 19.0549 14.6302ZM19.4618 13.4591C19.569 13.5747 19.7337 13.8277 19.8 14.0773L19.8019 14.0779C19.9612 14.6364 19.8935 15.1243 19.8823 15.205L19.8809 15.2154C19.8737 15.2835 19.8041 15.2841 19.8041 15.2841L17.1583 15.2821C17.1734 15.6842 17.2705 15.9674 17.4648 16.1617C17.6557 16.3515 17.9604 16.4727 18.369 16.4733C18.9415 16.4749 19.2147 16.3694 19.4019 16.2972C19.42 16.2902 19.4374 16.2836 19.4541 16.2773C19.4541 16.2773 19.5271 16.2512 19.5537 16.3234L19.7262 16.8076C19.7609 16.8892 19.7331 16.9175 19.7039 16.9339C19.5398 17.026 19.1379 17.1961 18.3744 17.1986C18.0026 17.1998 17.6811 17.1463 17.4149 17.0433C17.1469 16.9394 16.9242 16.792 16.7501 16.6027C16.5776 16.415 16.4483 16.1888 16.3683 15.9308C16.2884 15.6745 16.2484 15.3914 16.2484 15.0864C16.2484 14.7882 16.2871 14.5034 16.3639 14.2437C16.441 13.9807 16.562 13.7511 16.7223 13.5568C16.883 13.3625 17.0873 13.207 17.3301 13.0927C17.5729 12.9793 17.8727 12.9235 18.2026 12.9235C18.4626 12.9231 18.7201 12.9753 18.9594 13.0771C19.1252 13.1475 19.291 13.2765 19.4618 13.4591ZM11.3086 16.1991C11.3429 16.2528 11.3573 16.2731 11.461 16.3559L11.4625 16.3567C11.4625 16.3567 11.6986 16.5434 12.2361 16.511C12.6145 16.4882 12.9491 16.416 12.9491 16.416V15.2148C12.7118 15.1784 12.4724 15.1579 12.2324 15.1536C11.6932 15.1469 11.4655 15.3446 11.4655 15.3446C11.3064 15.4569 11.2294 15.6244 11.2294 15.8556C11.2294 16.003 11.2562 16.1181 11.3086 16.1991ZM12.1006 14.4845C12.2664 14.4845 12.4054 14.4883 12.5125 14.4962L12.5151 14.5024C12.5151 14.5024 12.7244 14.5213 12.9504 14.5542V14.4424C12.9504 14.0906 12.8769 13.9232 12.7327 13.8125C12.5854 13.6994 12.3644 13.6416 12.0797 13.6416C12.0797 13.6416 11.4367 13.6332 10.9293 13.9096C10.9058 13.9235 10.8859 13.9314 10.8859 13.9314C10.8859 13.9314 10.8225 13.9537 10.7992 13.8885L10.6116 13.3859C10.5832 13.313 10.6354 13.2809 10.6354 13.2809C10.8732 13.0946 11.4492 12.9826 11.4492 12.9826C11.6401 12.9443 11.96 12.9175 12.1575 12.9175C12.685 12.9175 13.0919 13.0398 13.3699 13.2827C13.6489 13.5256 13.7902 13.9194 13.7902 14.4488L13.7917 16.8613C13.7917 16.8613 13.7967 16.9312 13.7314 16.9478C13.7314 16.9478 13.6336 16.9744 13.5456 16.9947C13.3249 17.0425 13.1033 17.0857 12.8808 17.1241C12.6195 17.1681 12.35 17.1909 12.0787 17.1909C11.8208 17.1909 11.5864 17.1669 11.3787 17.1195C11.1694 17.0726 10.9881 16.9935 10.8412 16.8866C10.6936 16.7796 10.575 16.6373 10.4963 16.4728C10.4159 16.307 10.3752 16.1042 10.3752 15.8697C10.3752 15.6385 10.4229 15.4341 10.5165 15.2598C10.6093 15.0871 10.7405 14.9381 10.9 14.8242C11.0591 14.7096 11.2449 14.6235 11.4509 14.5679C11.6552 14.5126 11.8746 14.4845 12.1006 14.4845ZM33.7848 13.1061C33.7847 13.1158 33.7827 13.1253 33.7789 13.1341L33.7806 13.1232C33.7555 13.1953 33.6267 13.557 33.5813 13.6778C33.5641 13.7237 33.5358 13.7548 33.4849 13.7491C33.4849 13.7491 33.3333 13.7136 33.1952 13.7136C33.0751 13.7136 32.9556 13.7304 32.8402 13.7635C32.7172 13.8017 32.6052 13.8689 32.5136 13.9596C32.4177 14.0534 32.3398 14.1842 32.2826 14.3483C32.2244 14.5141 32.1953 14.7772 32.1953 15.0419V17.0188C32.1953 17.0401 32.1869 17.0605 32.1719 17.0755C32.1569 17.0906 32.1365 17.099 32.1153 17.0991H31.422C31.4008 17.099 31.3804 17.0906 31.3654 17.0755C31.3503 17.0605 31.3419 17.0401 31.3418 17.0188V13.0817C31.3418 13.0374 31.3736 13.0017 31.4175 13.0017H32.094C32.1385 13.0017 32.1699 13.0374 32.1699 13.0817L32.1702 13.4033C32.2707 13.266 32.4518 13.1472 32.6156 13.0733C32.7814 12.9989 32.9656 12.9429 33.2971 12.9637C33.4696 12.9744 33.6942 13.0219 33.7392 13.0389C33.7482 13.0424 33.7563 13.0477 33.7632 13.0544C33.7701 13.0612 33.7755 13.0692 33.7792 13.0781C33.7829 13.087 33.7848 13.0965 33.7848 13.1061Z" fill="#FF4D00"/>
</g>
<defs>
<clipPath id="clip0_147_164">
<rect width="45.7143" height="32" fill="white" transform="translate(0.142578)"/>
</clipPath>
</defs>
</svg>
