<svg width="28" height="32" viewBox="0 0 28 32" fill="none" xmlns="http://www.w3.org/2000/svg">
<path d="M13.2584 8.93913C16.1685 8.93913 18.5453 11.2812 18.5453 14.1449C18.5453 16.5797 16.841 18.6319 14.5453 19.2L4.07575 8.92754H13.2584V8.93913ZM21.3047 25.8435C25.096 23.2928 27.5888 19.0029 27.5888 14.1449C27.5888 6.34203 21.154 0 13.2468 0H0.423579V1.48406H13.2584C20.3308 1.48406 26.0931 7.16522 26.0931 14.1449C26.0931 18.5971 23.7511 22.5159 20.2149 24.7652L18.5685 23.142C21.7105 21.3333 23.8323 17.971 23.8323 14.1333C23.8323 8.38261 19.0902 3.71014 13.2584 3.71014H0.423579V5.1942H13.2584C18.2555 5.1942 22.3134 9.2058 22.3134 14.1333C22.3134 17.5652 20.3424 20.5565 17.4555 22.0522L15.7395 20.371C18.2671 19.3971 20.0526 16.9739 20.0526 14.1333C20.0526 10.4348 17.0149 7.43188 13.2584 7.43188H0.400391L12.5511 19.3623H0.423579V20.8464H13.2584C13.525 20.8464 13.7801 20.8348 14.0352 20.8L15.9482 22.6783C15.1018 22.9333 14.1975 23.0841 13.2584 23.0841H0.423579V24.5681H13.2584C14.6265 24.5681 15.925 24.313 17.1308 23.8377L18.8584 25.5304C17.1656 26.342 15.2642 26.8058 13.2584 26.8058H0.423579V28.2899H13.2584C15.6816 28.2899 17.9772 27.687 19.983 26.6319L23.9482 30.5159H0.423579V32H27.6004L21.3047 25.8435Z" fill="#FF4D00"/>
</svg>
