<svg width="156" height="32" viewBox="0 0 156 32" fill="none" xmlns="http://www.w3.org/2000/svg">
<g clip-path="url(#clip0_172_1223)">
<path d="M25.1181 2.51381C23.6757 0.838466 21.5356 0.000530508 18.6979 0H0.279992L8.88776 7.1547H15.5324C16.2085 7.09728 16.8859 7.24864 17.4732 7.58838C17.6939 7.81173 17.8605 8.08261 17.9603 8.38025C18.0602 8.67789 18.0906 8.99443 18.0494 9.30565V10.7985C18.0494 12.094 17.2101 12.7417 15.5316 12.7417H8.88776L0.124023 19.5853H16.8724C18.4848 19.6417 20.0989 19.5482 21.694 19.306C22.7521 19.0428 23.7258 18.5142 24.5229 17.7702C25.4317 16.9234 26.1437 15.8875 26.6086 14.7355C27.0735 13.5836 27.2799 12.3437 27.2134 11.1033V9.32235C27.2123 6.3653 26.5139 4.09579 25.1181 2.51381Z" fill="#FF4D00" fill-opacity="0.5"/>
<path d="M0.117188 19.583V31.9969L8.8857 25.1533V19.571L0.117188 19.583Z" fill="#FF4D00" fill-opacity="0.25"/>
<path d="M8.8857 21.3838V19.583H0.117188L8.8857 21.3838Z" fill="#FF4D00" fill-opacity="0.5"/>
<path d="M40.7086 7.15157H51.5923C52.1556 7.11166 52.7208 7.19812 53.2464 7.40464C53.7721 7.61116 54.245 7.93251 54.6305 8.34521C55.3458 9.26048 55.6986 10.4074 55.6212 11.5665V12.4036C55.6527 12.9906 55.555 13.5774 55.335 14.1226C55.115 14.6678 54.7781 15.158 54.348 15.5588C53.9705 15.9107 53.5096 16.1608 53.0087 16.2853C52.254 16.3999 51.4902 16.4441 50.7273 16.4174H45.1036V19.5368H40.707L40.7086 7.15157ZM45.0455 13.1826H50.0923C50.888 13.1826 51.2859 12.876 51.2859 12.2628V11.5561C51.3054 11.4088 51.2909 11.2591 51.2436 11.1182C51.1963 10.9774 51.1174 10.8493 51.013 10.7436C50.7348 10.5828 50.414 10.5111 50.0939 10.5383H45.0471L45.0455 13.1826Z" fill="#FF4D00"/>
<path d="M58.5015 19.5351H53.8789L60.7137 7.14746H65.6984L72.5157 19.5351H67.7952L66.6063 17.4263H59.5901L58.5015 19.5351ZM63.0739 10.9512L60.9254 14.782H65.1175L63.0739 10.9512Z" fill="#FF4D00"/>
<path d="M87.785 12.1855C87.828 12.5706 87.7729 12.9604 87.6249 13.3185C87.4768 13.6766 87.2407 13.9915 86.9383 14.2338C86.7446 14.3639 86.5386 14.4745 86.3232 14.5641C86.784 14.7688 87.1712 15.1094 87.433 15.5403C87.6949 15.9713 87.8188 16.4719 87.7882 16.9752V19.5352H83.5961V17.0047C83.5961 16.533 83.3221 16.2975 82.7741 16.298H77.1799V19.536H73.0801V7.15153H83.9677C84.834 7.09678 85.6955 7.31648 86.4298 7.77939C86.8615 8.08013 87.2113 8.48384 87.4475 8.95392C87.6837 9.42401 87.7989 9.9456 87.7826 10.4715L87.785 12.1855ZM77.1799 13.2081H82.591C83.3985 13.2081 83.8025 12.9479 83.803 12.4274V11.3977C83.8192 11.2734 83.8075 11.147 83.7686 11.0278C83.7298 10.9086 83.6649 10.7995 83.5786 10.7086C83.3458 10.5713 83.0759 10.5104 82.8067 10.5343H77.1782L77.1799 13.2081Z" fill="#FF4D00"/>
<path d="M98.8984 16.3864C99.2063 16.4162 99.5168 16.3776 99.808 16.2734C99.8844 16.2194 99.9458 16.1468 99.9862 16.0623C100.027 15.9779 100.045 15.8846 100.039 15.7912V15.5525C100.049 15.4474 100.036 15.3414 100.002 15.2415C99.9679 15.1416 99.9129 15.0501 99.8406 14.9732C99.4636 14.8458 99.0634 14.8018 98.6677 14.8442H93.5271C92.5161 14.9108 91.5072 14.6869 90.6193 14.1989C90.2101 13.9048 89.8849 13.5087 89.6762 13.0499C89.4675 12.5912 89.3825 12.0858 89.4297 11.584V10.9888C89.4297 8.79407 90.4697 7.54736 92.5499 7.24869C93.3561 7.1662 94.1666 7.13298 94.9769 7.14922H98.6581C99.4478 7.12569 100.238 7.17552 101.018 7.29803C101.724 7.43262 102.365 7.79626 102.843 8.33254C103.304 8.86655 103.548 9.55337 103.528 10.2583V10.3577H94.4127C94.1864 10.3361 93.9584 10.3763 93.753 10.4739C93.6727 10.5195 93.6049 10.5845 93.5559 10.6628C93.5068 10.7412 93.4781 10.8305 93.4721 10.9227V11.1384C93.4721 11.4599 93.5822 11.6538 93.8024 11.7201C93.9211 11.7468 94.0428 11.758 94.1645 11.7535H99.9314C100.847 11.6867 101.763 11.869 102.584 12.2811C103.44 12.8302 103.869 13.8469 103.87 15.3313V15.8756C103.88 16.2793 103.846 16.6829 103.77 17.0795C103.655 17.5845 103.41 18.0508 103.06 18.4323C102.428 19.0237 101.615 19.384 100.753 19.4549C100.139 19.5211 99.5218 19.5477 98.9048 19.5345H93.7077C92.6418 19.6184 91.5735 19.4049 90.6217 18.9177C90.2891 18.692 90.0193 18.3853 89.8379 18.0265C89.642 17.6714 89.5373 17.2733 89.5331 16.8679V16.3848L98.8984 16.3864Z" fill="#FF4D00"/>
<path d="M116.184 7.15151C117.343 7.15151 118.094 7.17353 118.436 7.21757C119.141 7.27415 119.81 7.55812 120.34 8.02685C121.005 8.69228 121.435 9.5559 121.566 10.4873C121.626 11.1627 121.648 11.841 121.632 12.5189V15.0463C121.632 16.8633 121.241 18.0415 120.459 18.5811C119.866 18.9946 119.19 19.276 118.478 19.4062C117.79 19.5095 117.094 19.5536 116.398 19.5383H109.713C108.369 19.6123 107.04 19.2214 105.949 18.4314C105.256 17.8808 104.909 16.7741 104.909 15.1115V14.4678C104.892 14.2975 104.888 14.1262 104.895 13.9553L104.909 12.5181C104.891 11.7781 104.935 11.0378 105.041 10.3051C105.116 9.54358 105.444 8.82915 105.972 8.27543C106.5 7.72172 107.198 7.36054 107.956 7.24938C108.576 7.16835 109.202 7.1351 109.827 7.14991L116.184 7.15151ZM111.15 10.5383C110.691 10.4926 110.229 10.5721 109.811 10.7682C109.627 10.9368 109.486 11.147 109.4 11.3812C109.313 11.6154 109.284 11.8669 109.315 12.1147V14.5115C109.308 14.747 109.315 14.9826 109.333 15.2174C109.432 15.8412 109.934 16.1532 110.837 16.1532H115.713C116.727 16.1532 117.234 15.7099 117.234 14.8235V11.7669C117.234 10.9462 116.721 10.5359 115.696 10.5359L111.15 10.5383Z" fill="#FF4D00"/>
<path d="M127.654 19.5353H123.376V7.15161H129.4L135.853 15.231V7.15161H139.953V19.5392H134.02L127.654 11.5816V19.5353Z" fill="#FF4D00"/>
<path d="M150.913 16.3864C151.22 16.4162 151.531 16.3776 151.822 16.2734C151.898 16.2195 151.96 16.1468 152 16.0624C152.04 15.978 152.058 15.8846 152.052 15.7912V15.5525C152.062 15.4474 152.05 15.3414 152.016 15.2415C151.982 15.1416 151.927 15.0501 151.854 14.9731C151.477 14.8458 151.077 14.8018 150.681 14.8442H145.544C144.533 14.9109 143.524 14.687 142.636 14.1989C142.227 13.9047 141.902 13.5085 141.693 13.0498C141.485 12.5911 141.4 12.0857 141.447 11.584V10.9888C141.447 8.79406 142.487 7.54735 144.567 7.24868C145.373 7.16622 146.184 7.133 146.994 7.14921H150.675C151.465 7.12571 152.255 7.17553 153.035 7.29802C153.74 7.43277 154.382 7.79641 154.859 8.33253C155.32 8.86662 155.564 9.55339 155.544 10.2583V10.3577H146.427C146.201 10.3361 145.973 10.3763 145.767 10.4739C145.687 10.5195 145.619 10.5845 145.57 10.6628C145.521 10.7412 145.492 10.8305 145.487 10.9227V11.1384C145.487 11.4599 145.596 11.6538 145.816 11.7201C145.935 11.7468 146.057 11.758 146.179 11.7535H151.946C152.861 11.6867 153.778 11.869 154.598 12.2811C155.455 12.8302 155.883 13.8469 155.883 15.3312V15.8755C155.893 16.2792 155.86 16.6828 155.785 17.0795C155.67 17.5845 155.425 18.0508 155.075 18.4323C154.443 19.0239 153.63 19.3843 152.767 19.4549C152.153 19.5211 151.536 19.5477 150.919 19.5345H145.722C144.656 19.6184 143.588 19.4049 142.636 18.9177C142.303 18.692 142.034 18.3853 141.852 18.0265C141.656 17.6715 141.552 17.2734 141.548 16.8679V16.3848L150.913 16.3864Z" fill="#FF4D00"/>
<path d="M8.88136 21.3838V19.583H0.115234L8.88136 21.3838Z" fill="#FF4D00" fill-opacity="0.75"/>
</g>
<defs>
<clipPath id="clip0_172_1223">
<rect width="155.77" height="32" fill="white" transform="translate(0.115234)"/>
</clipPath>
</defs>
</svg>
