<svg width="1400" height="143" viewBox="0 0 1400 143" fill="none" xmlns="http://www.w3.org/2000/svg">
<path d="M1391.66 143H1291.03V134.631H1307.77V16.8417H1291.03V8.42083H1341.34V16.8417H1324.56V134.631H1374.87V126.21H1383.26V117.789H1391.66V109.368H1400V126.21H1391.66V143Z" fill="#FF4D00"/>
<path d="M1278.44 143H1228.13V134.631H1244.92V109.368H1236.52V100.947H1194.6V109.368H1186.21V84.1569H1194.6V92.5264H1236.52V84.1569H1228.13V58.8944H1219.79V33.6833H1211.39V8.42083H1219.79V0H1228.13V33.6833H1236.52V58.8944H1244.92V84.1569H1253.31V109.368H1261.7V134.631H1278.44V143ZM1211.39 58.8944H1203V33.6833H1211.39V58.8944ZM1203 84.1569H1194.6V58.8944H1203V84.1569ZM1203 143H1161.13V134.631H1177.82V109.368H1186.21V134.631H1203V143Z" fill="#FF4D00"/>
<path d="M1131.8 143H1081.49V134.631H1098.28V16.8417H1064.7V25.2625H1056.31V33.6833H1047.97V42.0528H1039.62V25.2625H1047.97V0H1056.31V8.42083H1165.33V0H1173.72V25.2625H1165.33V42.0528H1156.93V16.8417H1115.01V134.631H1131.8V143Z" fill="#FF4D00"/>
<path d="M1031.18 143H980.865V134.631H997.602V16.8417H980.865V8.42083H1031.18V16.8417H1014.39V134.631H1031.18V143Z" fill="#FF4D00"/>
<path d="M964.026 42.0528H955.632V33.6833H947.289V25.2625H938.895V16.8417H888.583V8.42083H955.632V25.2625H964.026V42.0528ZM888.583 134.631H871.795V126.21H863.401V117.789H855.007V100.947H846.664V50.4736H855.007V33.6833H863.401V25.2625H871.795V16.8417H888.583V25.2625H880.189V33.6833H871.795V50.4736H863.401V100.947H871.795V117.789H880.189V126.21H888.583V134.631ZM955.632 143H888.583V134.631H938.895V126.21H947.289V92.5264H926.304V84.1569H972.42V92.5264H964.026V134.631H955.632V143Z" fill="#FF4D00"/>
<path d="M838.321 143H788.009V134.631H804.745V16.8417H788.009V8.42083H838.321V16.8417H821.533V134.631H838.321V143Z" fill="#FF4D00"/>
<path d="M737.747 143H653.91V134.631H670.647V16.8417H653.91V8.42083H737.747V16.8417H687.435V134.631H737.747V143ZM754.535 134.631H737.747V126.21H746.141V117.789H754.535V100.947H762.878V50.4736H754.535V33.6833H746.141V25.2625H737.747V16.8417H754.535V25.2625H762.878V33.6833H771.272V50.4736H779.666V100.947H771.272V117.789H762.878V126.21H754.535V134.631Z" fill="#FF4D00"/>
<path d="M607.794 143H557.482V134.631H574.27V84.1569H565.876V67.3153H557.482V50.4736H549.088V33.6833H540.694V16.8417H524.008V8.42083H574.27V16.8417H557.482V33.6833H565.876V50.4736H574.27V67.3153H582.664V84.1569H591.006V134.631H607.794V143ZM624.582 33.6833H616.188V16.8417H599.4V8.42083H641.319V16.8417H624.582V33.6833ZM616.188 50.4736H607.794V33.6833H616.188V50.4736ZM607.794 67.3153H599.4V50.4736H607.794V67.3153ZM599.4 84.1569H591.006V67.3153H599.4V84.1569Z" fill="#FF4D00"/>
<path d="M486.338 143H402.501V134.631H419.237V16.8417H402.501V8.42083H486.338V16.8417H436.025V134.631H486.338V143ZM503.126 134.631H486.338V126.21H494.732V117.789H503.126V100.947H511.469V50.4736H503.126V33.6833H494.732V25.2625H486.338V16.8417H503.126V25.2625H511.469V33.6833H519.863V50.4736H528.256V100.947H519.863V117.789H511.469V126.21H503.126V134.631Z" fill="#FF4D00"/>
<path d="M306.021 143H264.103V134.631H280.839V16.8417H264.103V8.42083H306.021V25.2625H314.415V42.0528H322.758V58.8944H331.152V75.7361H339.546V92.5264H347.94V109.368H356.334V126.21H364.728V16.8417H347.94V8.42083H389.859V16.8417H373.071V143H347.94V126.21H339.546V109.368H331.152V92.5264H322.758V75.7361H314.415V58.8944H306.021V42.0528H297.627V25.2625H289.233V134.631H306.021V143Z" fill="#FF4D00"/>
<path d="M251.512 143H201.199V134.631H217.987V109.368H209.593V100.947H167.674V109.368H159.281V84.1569H167.674V92.5264H209.593V84.1569H201.199V58.8944H192.856V33.6833H184.462V8.42083H192.856V0H201.199V33.6833H209.593V58.8944H217.987V84.1569H226.381V109.368H234.775V134.631H251.512V143ZM184.462 58.8944H176.068V33.6833H184.462V58.8944ZM176.068 84.1569H167.674V58.8944H176.068V84.1569ZM176.068 143H134.201V134.631H150.887V109.368H159.281V134.631H176.068V143Z" fill="#FF4D00"/>
<path d="M50.3126 143H0V134.631H16.7367V16.8417H0V8.42083H83.8372V16.8417H92.2312V25.2625H100.625V67.3153H92.2312V75.7361H83.8372V84.1569H67.0493V92.5264H75.4433V100.947H83.8372V109.368H92.2312V117.789H100.625V126.21H108.968V134.631H125.756V143H92.2312V134.631H83.8372V126.21H75.4433V117.789H67.0493V109.368H58.6554V100.947H50.3126V92.5264H41.9186V84.1569H33.5247V134.631H50.3126V143ZM33.5247 75.7361H75.4433V67.3153H83.8372V25.2625H75.4433V16.8417H33.5247V75.7361Z" fill="#FF4D00"/>
</svg>
