<svg width="120" height="20" viewBox="0 0 120 20" fill="none" xmlns="http://www.w3.org/2000/svg">
<path fill-rule="evenodd" clip-rule="evenodd" d="M106.471 12H98.7023V11.3159H98V1H107.173V3.06486H109.293V3.74895H110V9.25105H109.293V9.93934H107.173V11.3159H106.471V12ZM100.822 5.81381H101.529V3.06486H100.822V5.81381ZM103.645 5.81381H104.351V3.06486H103.645V5.81381ZM107.173 8.56276H108.587V4.43724H107.173V8.56276ZM100.822 9.93934H104.351V9.25105H105.058V8.56276H105.764V7.19039H105.058V8.56276H104.351V9.25105H100.822V8.56276H100.116V7.19039H99.409V8.56276H100.116V9.25105H100.822V9.93934ZM14.6992 11.5H10.8594V10.8633H12.1367V1.90234H10.8594V1.26172H17.2578V1.90234H17.8984V2.54297H18.5391V5.74219H17.8984V6.38281H17.2578V7.02344H15.9766V7.66016H16.6172V8.30078H17.2578V8.94141H17.8984V9.58203H18.5391V10.2227H19.1758V10.8633H20.457V11.5H17.8984V10.8633H17.2578V10.2227H16.6172V9.58203H15.9766V8.94141H15.3359V8.30078H14.6992V7.66016H14.0586V7.02344H13.418V10.8633H14.6992V11.5ZM13.418 6.38281H16.6172V5.74219H17.2578V2.54297H16.6172V1.90234H13.418V6.38281ZM76.4375 11.5H70.0391V10.8633H71.3164V1.90234H70.0391V1.26172H76.4375V1.90234H72.5977V10.8633H76.4375V11.5ZM76.4375 10.8633V10.2227H77.0781V9.58203H77.7188V8.30078H78.3555V4.46094H77.7188V3.18359H77.0781V2.54297H76.4375V1.90234H77.7188V2.54297H78.3555V3.18359H78.9961V4.46094H79.6367V8.30078H78.9961V9.58203H78.3555V10.2227H77.7188V10.8633H76.4375ZM65 6.5H25V7.5H65V6.5ZM1 7.5H2V18.5H89V7.5H90V18.5H118V7.5H119V18.5V19.5H118H90H89H2H1V7.5Z" fill="#FF4D00"/>
</svg>
