<svg width="424" height="251" viewBox="0 0 424 251" fill="none" xmlns="http://www.w3.org/2000/svg">
<g clip-path="url(#clip0_240_356)">
<mask id="mask0_240_356" style="mask-type:luminance" maskUnits="userSpaceOnUse" x="0" y="0" width="424" height="251">
<path d="M424 0H0V251H424V0Z" fill="white"/>
</mask>
<g mask="url(#mask0_240_356)">
<path d="M71.1825 0H6.18978C2.77126 0 0 2.77473 0 6.19753V71.2716C0 74.6944 2.77126 77.4691 6.18978 77.4691H71.1825C74.6009 77.4691 77.3723 74.6944 77.3723 71.2716V6.19753C77.3723 2.77473 74.6009 0 71.1825 0Z" fill="#FF4D00" fill-opacity="0.1"/>
<path d="M71.1822 0.774658H6.1895C3.19828 0.774658 0.773438 3.20254 0.773438 6.1975V71.2716C0.773438 74.2665 3.19828 76.6944 6.1895 76.6944H71.1822C74.1734 76.6944 76.5983 74.2665 76.5983 71.2716V6.1975C76.5983 3.20254 74.1734 0.774658 71.1822 0.774658Z" stroke="#FF4D00" stroke-opacity="0.2"/>
<path d="M157.839 0.774658H92.8467C89.8555 0.774658 87.4307 3.20254 87.4307 6.1975V71.2716C87.4307 74.2665 89.8555 76.6944 92.8467 76.6944H157.839C160.831 76.6944 163.255 74.2665 163.255 71.2716V6.1975C163.255 3.20254 160.831 0.774658 157.839 0.774658Z" stroke="#FF4D00" stroke-opacity="0.2"/>
<path d="M121.634 49.1929H117.173V47.7131H115.695V44.7354H117.173V43.2466H121.634V28.3762H126.086V26.8872H130.547V25.3984H134.999V44.7354H133.521V46.2243H129.06V44.7354H127.573V41.7578H129.06V40.2688H133.521V32.8336H130.547V34.3224H126.086V35.8114H123.121V47.7131H121.634V49.1929ZM123.121 32.8336H126.086V31.3448H130.547V29.865H133.521V28.3762H130.547V29.865H126.086V31.3448H123.121V32.8336Z" fill="#FF4D00"/>
<path d="M331.153 0.774658H266.16C263.169 0.774658 260.744 3.20254 260.744 6.1975V71.2716C260.744 74.2665 263.169 76.6944 266.16 76.6944H331.153C334.144 76.6944 336.569 74.2665 336.569 71.2716V6.1975C336.569 3.20254 334.144 0.774658 331.153 0.774658Z" stroke="#FF4D00" stroke-opacity="0.2"/>
<path d="M296.427 26.8872H290.488V25.3984H296.427V26.8872ZM306.826 26.8872H300.887V25.3984H306.826V26.8872ZM290.488 28.3762H289.001V26.8872H290.488V28.3762ZM297.914 28.3762H296.427V26.8872H297.914V28.3762ZM300.887 28.3762H299.4V26.8872H300.887V28.3762ZM308.313 28.3762H306.826V26.8872H308.313V28.3762ZM289.001 31.3448H287.514V28.3762H289.001V31.3448ZM299.4 31.3448H297.914V28.3762H299.4V31.3448ZM309.8 31.3448H308.313V28.3762H309.8V31.3448ZM287.514 37.3002H286.036V31.3448H287.514V37.3002ZM311.287 37.3002H309.8V31.3448H311.287V37.3002ZM289.001 40.2688H287.514V37.3002H289.001V40.2688ZM309.8 40.2688H308.313V37.3002H309.8V40.2688ZM290.488 41.7578H289.001V40.2688H290.488V41.7578ZM308.313 41.7578H306.826V40.2688H308.313V41.7578ZM291.975 43.2466H290.488V41.7578H291.975V43.2466ZM306.826 43.2466H305.339V41.7578H306.826V43.2466ZM293.462 44.7354H291.975V43.2466H293.462V44.7354ZM305.339 44.7354H303.861V43.2466H305.339V44.7354ZM294.949 46.2243H293.462V44.7354H294.949V46.2243ZM303.861 46.2243H302.374V44.7354H303.861V46.2243ZM296.427 47.7131H294.949V46.2243H296.427V47.7131ZM302.374 47.7131H300.887V46.2243H302.374V47.7131ZM297.914 49.1929H296.427V47.7131H297.914V49.1929ZM300.887 49.1929H299.4V47.7131H300.887V49.1929ZM299.4 50.6727H297.914V49.1929H299.4V50.6727Z" fill="#FF4D00"/>
<path d="M244.497 174.306H179.504C176.513 174.306 174.088 176.734 174.088 179.729V244.803C174.088 247.798 176.513 250.225 179.504 250.225H244.497C247.488 250.225 249.913 247.798 249.913 244.803V179.729C249.913 176.734 247.488 174.306 244.497 174.306Z" stroke="#FF4D00" stroke-opacity="0.2"/>
<path d="M218.672 219.755H205.299V218.266H206.786V216.777H208.273V212.32H209.76V207.853H206.786V206.364H208.273V204.875H209.76V203.395H208.273V200.419H209.76V198.93H214.212V200.419H215.699V203.395H214.212V204.875H215.699V206.364H217.187V207.853H214.212V212.32H215.699V216.777H217.187V218.266H218.672V219.755ZM220.159 222.724H203.821V219.755H205.299V221.244H218.672V219.755H220.159V222.724Z" fill="#FF4D00"/>
<path d="M244.496 0H179.503C176.085 0 173.313 2.77473 173.313 6.19753V71.2716C173.313 74.6944 176.085 77.4691 179.503 77.4691H244.496C247.914 77.4691 250.686 74.6944 250.686 71.2716V6.19753C250.686 2.77473 247.914 0 244.496 0Z" fill="#FF4D00" fill-opacity="0.1"/>
<path d="M244.497 0.774658H179.504C176.513 0.774658 174.088 3.20254 174.088 6.1975V71.2716C174.088 74.2665 176.513 76.6944 179.504 76.6944H244.497C247.488 76.6944 249.913 74.2665 249.913 71.2716V6.1975C249.913 3.20254 247.488 0.774658 244.497 0.774658Z" stroke="#FF4D00" stroke-opacity="0.2"/>
<path d="M331.153 173.531H266.16C262.742 173.531 259.971 176.306 259.971 179.728V244.802C259.971 248.225 262.742 251 266.16 251H331.153C334.571 251 337.343 248.225 337.343 244.802V179.728C337.343 176.306 334.571 173.531 331.153 173.531Z" fill="#FF4D00" fill-opacity="0.1"/>
<path d="M331.153 174.306H266.16C263.169 174.306 260.744 176.734 260.744 179.729V244.803C260.744 247.798 263.169 250.225 266.16 250.225H331.153C334.144 250.225 336.569 247.798 336.569 244.803V179.729C336.569 176.734 334.144 174.306 331.153 174.306Z" stroke="#FF4D00" stroke-opacity="0.2"/>
<path d="M417.81 0H352.818C349.399 0 346.628 2.77473 346.628 6.19753V71.2716C346.628 74.6944 349.399 77.4691 352.818 77.4691H417.81C421.229 77.4691 424 74.6944 424 71.2716V6.19753C424 2.77473 421.229 0 417.81 0Z" fill="#FF4D00" fill-opacity="0.1"/>
<path d="M417.81 0.774658H352.817C349.826 0.774658 347.401 3.20254 347.401 6.1975V71.2716C347.401 74.2665 349.826 76.6944 352.817 76.6944H417.81C420.801 76.6944 423.226 74.2665 423.226 71.2716V6.1975C423.226 3.20254 420.801 0.774658 417.81 0.774658Z" stroke="#FF4D00" stroke-opacity="0.2"/>
<path d="M71.1825 86.7654H6.18978C2.77126 86.7654 0 89.5402 0 92.9629V244.802C0 248.225 2.77126 251 6.18978 251H71.1825C74.6009 251 77.3723 248.225 77.3723 244.802V92.9629C77.3723 89.5402 74.6009 86.7654 71.1825 86.7654Z" fill="#FF4D00" fill-opacity="0.1"/>
<path d="M71.1822 87.54H6.1895C3.19828 87.54 0.773438 89.9679 0.773438 92.9629V244.802C0.773438 247.797 3.19828 250.225 6.1895 250.225H71.1822C74.1734 250.225 76.5983 247.797 76.5983 244.802V92.9629C76.5983 89.9679 74.1734 87.54 71.1822 87.54Z" stroke="#FF4D00" stroke-opacity="0.2"/>
<path d="M157.839 87.54H92.8467C89.8555 87.54 87.4307 89.9679 87.4307 92.9629V158.037C87.4307 161.032 89.8555 163.46 92.8467 163.46H157.839C160.831 163.46 163.255 161.032 163.255 158.037V92.9629C163.255 89.9679 160.831 87.54 157.839 87.54Z" fill="#FF4D00" fill-opacity="0.1"/>
<path d="M157.839 87.54H92.8467C89.8555 87.54 87.4307 89.9679 87.4307 92.9629V158.037C87.4307 161.032 89.8555 163.46 92.8467 163.46H157.839C160.831 163.46 163.255 161.032 163.255 158.037V92.9629C163.255 89.9679 160.831 87.54 157.839 87.54Z" stroke="#FF4D00"/>
<path d="M390.518 222.724H374.171V221.244H372.693V198.93H391.996V203.395H396.457V204.875H397.945V216.777H396.457V218.266H391.996V221.244H390.518V222.724ZM378.632 209.342H380.12V203.395H378.632V209.342ZM384.572 209.342H386.057V203.395H384.572V209.342ZM391.996 215.288H394.97V206.364H391.996V215.288ZM378.632 218.266H386.057V216.777H387.544V215.288H389.031V212.32H387.544V215.288H386.057V216.777H378.632V215.288H377.145V212.32H375.658V215.288H377.145V216.777H378.632V218.266Z" fill="#FF4D00"/>
<path d="M130.789 136.899H114.442V135.419H112.964V113.105H132.267V117.57H136.728V119.05H138.215V130.952H136.728V132.441H132.267V135.419H130.789V136.899ZM118.903 123.517H120.39V117.57H118.903V123.517ZM124.842 123.517H126.328V117.57H124.842V123.517ZM132.267 129.463H135.241V120.539H132.267V129.463ZM118.903 132.441H126.328V130.952H127.815V129.463H129.302V126.495H127.815V129.463H126.328V130.952H118.903V129.463H117.416V126.495H115.929V129.463H117.416V130.952H118.903V132.441Z" fill="#FF4D00"/>
<path d="M157.84 173.531H92.847C89.4285 173.531 86.6572 176.306 86.6572 179.728V244.802C86.6572 248.225 89.4285 251 92.847 251H157.84C161.258 251 164.029 248.225 164.029 244.802V179.728C164.029 176.306 161.258 173.531 157.84 173.531Z" fill="#FF4D00" fill-opacity="0.1"/>
<path d="M157.839 174.306H92.8467C89.8555 174.306 87.4307 176.734 87.4307 179.729V244.803C87.4307 247.798 89.8555 250.225 92.8467 250.225H157.839C160.831 250.225 163.255 247.798 163.255 244.803V179.729C163.255 176.734 160.831 174.306 157.839 174.306Z" stroke="#FF4D00" stroke-opacity="0.2"/>
<path d="M331.153 86.7654H179.503C176.085 86.7654 173.313 89.5402 173.313 92.9629V158.037C173.313 161.46 176.085 164.235 179.503 164.235H331.153C334.571 164.235 337.343 161.46 337.343 158.037V92.9629C337.343 89.5402 334.571 86.7654 331.153 86.7654Z" fill="#FF4D00" fill-opacity="0.1"/>
<path d="M331.154 87.54H179.504C176.513 87.54 174.088 89.9679 174.088 92.9629V158.037C174.088 161.032 176.513 163.46 179.504 163.46H331.154C334.145 163.46 336.57 161.032 336.57 158.037V92.9629C336.57 89.9679 334.145 87.54 331.154 87.54Z" stroke="#FF4D00" stroke-opacity="0.2"/>
<path d="M417.81 86.7654H352.818C349.399 86.7654 346.628 89.5402 346.628 92.9629V158.037C346.628 161.46 349.399 164.235 352.818 164.235H417.81C421.229 164.235 424 161.46 424 158.037V92.9629C424 89.5402 421.229 86.7654 417.81 86.7654Z" fill="#FF4D00" fill-opacity="0.1"/>
<path d="M417.81 87.54H352.817C349.826 87.54 347.401 89.9679 347.401 92.9629V158.037C347.401 161.032 349.826 163.46 352.817 163.46H417.81C420.801 163.46 423.226 161.032 423.226 158.037V92.9629C423.226 89.9679 420.801 87.54 417.81 87.54Z" stroke="#FF4D00" stroke-opacity="0.2"/>
<path d="M417.81 174.306H352.817C349.826 174.306 347.401 176.734 347.401 179.729V244.803C347.401 247.798 349.826 250.225 352.817 250.225H417.81C420.801 250.225 423.226 247.798 423.226 244.803V179.729C423.226 176.734 420.801 174.306 417.81 174.306Z" stroke="#FF4D00" stroke-opacity="0.2"/>
</g>
</g>
<defs>
<clipPath id="clip0_240_356">
<rect width="424" height="251" fill="white"/>
</clipPath>
</defs>
</svg>
