<svg width="424" height="178" viewBox="0 0 424 178" fill="none" xmlns="http://www.w3.org/2000/svg">
<g clip-path="url(#clip0_244_66)">
<path d="M5.18359 165.582H418.817V167.651C418.817 169.937 416.96 171.791 414.67 171.791H9.3303C7.04014 171.791 5.18359 169.937 5.18359 167.651V165.582Z" fill="#FF4D00" fill-opacity="0.2"/>
<path d="M11.4033 171.791H412.596V173.86C412.596 176.146 410.74 178 408.45 178H15.55C13.2599 178 11.4033 176.146 11.4033 173.86V171.791Z" fill="#FF4D00" fill-opacity="0.1"/>
<path d="M417.78 0.517578H6.22027C3.0713 0.517578 0.518555 3.06591 0.518555 6.20944V159.368C0.518555 162.512 3.0713 165.06 6.22027 165.06H417.78C420.929 165.06 423.482 162.512 423.482 159.368V6.20944C423.482 3.06591 420.929 0.517578 417.78 0.517578Z" stroke="#FF4D00"/>
<path d="M17.6215 20.5239H16.5869V19.6606H17.6215V20.5239ZM18.6592 21.3872H17.6215V20.5239H18.6592V21.3872ZM19.6969 22.2505H18.6592V21.3872H19.6969V22.2505ZM20.7315 23.1138H19.6969V22.2505H20.7315V23.1138ZM21.7693 23.9771H20.7315V23.1138H21.7693V23.9771ZM22.807 25.6984H21.7693V23.9771H22.807V25.6984ZM21.7693 26.5617H20.7315V25.6984H21.7693V26.5617ZM20.7315 27.425H19.6969V26.5617H20.7315V27.425ZM19.6969 28.2883H18.6592V27.425H19.6969V28.2883ZM18.6592 29.1516H17.6215V28.2883H18.6592V29.1516ZM17.6215 30.0095H16.5869V29.1516H17.6215V30.0095Z" fill="#FF4D00"/>
<path d="M34.398 29.8394H24.8799V28.9746H34.398V29.8394Z" fill="#FF4D00"/>
<path d="M197.064 26.4906H196.399V23.8427H197.064V23.1797H197.727V22.5167H198.392V21.8538H199.056V21.1908H199.715V19.8689H199.056V19.2059H197.064V19.8689H196.399V20.5318H195.075V19.2059H195.736V18.543H199.715V19.2059H200.38V19.8689H201.044V21.8538H200.38V22.5167H199.715V23.1797H199.056V23.8427H198.392V24.5057H197.727V25.1646H197.064V26.4906ZM197.395 29.1383H196.067V27.8165H197.395V29.1383Z" fill="#FF4D00"/>
<path d="M193.074 29.1386H189.758V28.4796H189.093V27.8167H188.43V26.4908H187.77V24.5059H188.43V23.1799H189.093V23.8429H193.074V23.1799H192.411V22.5169H189.758V21.854H193.074V22.5169H193.739V23.1799H194.402V24.5059H189.093V26.4908H189.758V27.8167H190.422V28.4796H193.074V29.1386ZM189.758 23.1799H189.093V22.5169H189.758V23.1799ZM194.402 27.8167H193.739V27.1537H194.402V27.8167ZM193.739 28.4796H193.074V27.8167H193.739V28.4796Z" fill="#FF4D00"/>
<path d="M184.786 29.1384H182.133V28.4795H182.793V23.1798H182.133V22.5168H182.793V21.8539H183.458V21.1909H184.121V22.5168H184.786V23.1798H184.121V28.4795H184.786V29.1384ZM187.439 23.1798H186.114V22.5168H184.786V21.8539H187.439V23.1798Z" fill="#FF4D00"/>
<path d="M177.815 29.1386H175.495V28.4796H174.831V27.8167H174.167V22.5169H173.507V21.854H175.495V27.8167H176.16V28.4796H177.815V29.1386ZM181.137 29.1386H179.144V27.8167H178.48V27.1537H179.144V22.5169H178.48V21.854H180.472V28.4796H181.137V29.1386ZM178.48 28.4796H177.815V27.8167H178.48V28.4796Z" fill="#FF4D00"/>
<path d="M172.511 23.8429H171.848V23.1799H171.187V22.5169H168.863V21.854H171.848V22.5169H172.511V23.8429ZM171.519 29.1386H168.198V28.4796H167.538V26.8223H168.198V27.8167H168.863V28.4796H170.855V27.8167H171.519V26.4908H170.855V25.8278H169.526V25.1648H168.198V24.5059H167.538V23.1799H168.198V22.5169H168.863V23.8429H169.526V24.5059H170.855V25.1648H172.179V25.8278H172.844V27.8167H172.179V28.4796H171.519V29.1386Z" fill="#FF4D00"/>
<path d="M160.241 30.4605H159.577V27.4852H158.913V25.8278H158.248V24.1744H157.589V22.5169H156.597V21.854H159.909V22.5169H158.913V24.1744H159.577V25.8278H160.241V27.4852H160.905V29.1386H160.241V30.4605ZM162.893 24.1744H162.229V22.5169H161.237V21.854H163.89V22.5169H162.893V24.1744ZM162.229 25.8278H161.57V24.1744H162.229V25.8278ZM161.57 27.4852H160.905V25.8278H161.57V27.4852ZM159.577 31.7864H158.913V30.4605H159.577V31.7864ZM158.248 33.1124H156.928V31.7864H158.913V32.4495H158.248V33.1124Z" fill="#FF4D00"/>
<path d="M156.277 29.1384H153.624V28.4794H154.284V18.543H153.624V17.88H154.284V17.217H154.949V16.5581H155.612V28.4794H156.277V29.1384Z" fill="#FF4D00"/>
<path d="M151.3 29.1386H147.983V28.4796H147.319V27.8167H146.655V26.4908H145.995V24.5059H146.655V23.1799H147.319V23.8429H151.3V23.1799H150.636V22.5169H147.983V21.854H151.3V22.5169H151.964V23.1799H152.629V24.5059H147.319V26.4908H147.983V27.8167H148.648V28.4796H151.3V29.1386ZM147.983 23.1799H147.319V22.5169H147.983V23.1799ZM152.629 27.8167H151.964V27.1537H152.629V27.8167ZM151.964 28.4796H151.3V27.8167H151.964V28.4796Z" fill="#FF4D00"/>
<path d="M144.663 29.1382H142.671V28.4793H142.006V22.5166H141.347V21.8537H142.006V21.1908H142.671V20.5317H143.335V21.8537H145.328V22.5166H143.335V28.4793H144.663V29.1382ZM145.328 28.4793H144.663V27.8164H145.328V28.4793Z" fill="#FF4D00"/>
<path d="M137.37 29.1386H135.049V28.4796H134.385V27.8167H133.721V22.5169H133.062V21.854H135.049V27.8167H135.713V28.4796H137.37V29.1386ZM140.69 29.1386H138.698V27.8167H138.033V27.1537H138.698V22.5169H138.033V21.854H140.026V28.4796H140.69V29.1386ZM138.033 28.4796H137.37V27.8167H138.033V28.4796Z" fill="#FF4D00"/>
<path d="M132.401 29.1384H129.748V28.4794H130.408V18.543H129.748V17.88H130.408V17.217H131.073V16.5581H131.736V28.4794H132.401V29.1384Z" fill="#FF4D00"/>
<path d="M126.76 29.1386H123.443V28.4796H122.78V27.8167H122.115V26.4908H121.455V24.5059H122.115V23.1799H122.78V22.5169H123.443V21.854H126.76V22.5169H127.424V23.1799H128.089V24.5059H128.752V26.4908H128.089V27.8167H127.424V28.4796H126.76V29.1386ZM124.108 28.4796H126.096V27.8167H126.76V26.4908H127.424V24.5059H126.76V23.1799H126.096V22.5169H124.108V23.1799H123.443V24.5059H122.78V26.4908H123.443V27.8167H124.108V28.4796Z" fill="#FF4D00"/>
<path d="M120.127 23.8429H119.463V23.1799H118.803V22.5169H116.478V21.854H119.463V22.5169H120.127V23.8429ZM119.135 29.1386H115.815V28.4796H115.154V26.8223H115.815V27.8167H116.478V28.4796H118.471V27.8167H119.135V26.4908H118.471V25.8278H117.143V25.1648H115.815V24.5059H115.154V23.1799H115.815V22.5169H116.478V23.8429H117.143V24.5059H118.471V25.1648H119.795V25.8278H120.459V27.8167H119.795V28.4796H119.135V29.1386Z" fill="#FF4D00"/>
<path d="M108.193 29.1384H107.53V18.543H106.869V17.88H107.53V17.217H108.193V16.5581H108.857V22.5168H109.521V23.1797H108.857V27.8165H109.521V28.4794H111.509V27.8165H112.174V26.4906H112.838V24.5057H112.174V23.1797H111.509V22.5168H109.521V21.8538H112.174V22.5168H112.838V23.1797H113.502V24.5057H114.166V26.4906H113.502V27.8165H112.838V28.4794H112.174V29.1384H108.857V28.4794H108.193V29.1384Z" fill="#FF4D00"/>
<path d="M106.204 29.1386H104.876V28.4796H103.552V27.8167H104.212V25.1648H103.552V24.5059H104.212V23.1799H103.552V22.5169H101.56V23.1799H100.896V23.8429H99.5713V23.1799H100.231V22.5169H100.896V21.854H104.212V22.5169H104.876V23.1799H105.541V28.4796H106.204V29.1386ZM103.552 25.8278H101.56V25.1648H103.552V25.8278ZM103.552 29.1386H100.896V28.4796H100.231V27.8167H99.5713V26.4908H100.231V25.8278H101.56V26.4908H100.896V27.8167H101.56V28.4796H103.552V29.1386Z" fill="#FF4D00"/>
<path d="M92.5978 29.1386H90.2774V28.4796H89.6133V27.8167H88.9491V22.5169H88.2891V21.854H90.2774V27.8167H90.9415V28.4796H92.5978V29.1386ZM95.9184 29.1386H93.926V27.8167H93.2619V27.1537H93.926V22.5169H93.2619V21.854H95.2543V28.4796H95.9184V29.1386ZM93.2619 28.4796H92.5978V27.8167H93.2619V28.4796Z" fill="#FF4D00"/>
<path d="M85.633 29.1386H82.3165V28.4796H81.6524V27.8167H80.9882V26.4908H80.3281V24.5059H80.9882V23.1799H81.6524V22.5169H82.3165V21.854H85.633V22.5169H86.2971V23.1799H86.9613V24.5059H87.6254V26.4908H86.9613V27.8167H86.2971V28.4796H85.633V29.1386ZM82.9806 28.4796H84.9689V27.8167H85.633V26.4908H86.2971V24.5059H85.633V23.1799H84.9689V22.5169H82.9806V23.1799H82.3165V24.5059H81.6524V26.4908H82.3165V27.8167H82.9806V28.4796Z" fill="#FF4D00"/>
<path d="M76.6914 30.4605H76.0273V27.4852H75.3632V25.8278H74.699V24.1744H74.039V22.5169H73.0469V21.854H76.3594V22.5169H75.3632V24.1744H76.0273V25.8278H76.6914V27.4852H77.3555V29.1386H76.6914V30.4605ZM79.3438 24.1744H78.6798V22.5169H77.6877V21.854H80.34V22.5169H79.3438V24.1744ZM78.6798 25.8278H78.0197V24.1744H78.6798V25.8278ZM78.0197 27.4852H77.3555V25.8278H78.0197V27.4852ZM76.0273 31.7864H75.3632V30.4605H76.0273V31.7864ZM74.699 33.1124H73.3789V31.7864H75.3632V32.4495H74.699V33.1124Z" fill="#FF4D00"/>
<path d="M68.0578 29.1386H64.7413V28.4796H64.0771V27.8167H63.413V26.4908H62.7529V24.5059H63.413V23.1799H64.0771V23.8429H68.0578V23.1799H67.3937V22.5169H64.7413V21.854H68.0578V22.5169H68.7219V23.1799H69.386V24.5059H64.0771V26.4908H64.7413V27.8167H65.4054V28.4796H68.0578V29.1386ZM64.7413 23.1799H64.0771V22.5169H64.7413V23.1799ZM69.386 27.8167H68.7219V27.1537H69.386V27.8167ZM68.7219 28.4796H68.0578V27.8167H68.7219V28.4796Z" fill="#FF4D00"/>
<path d="M59.7686 29.1384H57.1162V28.4795H57.7763V23.1798H57.1162V22.5168H57.7763V21.8539H58.4404V21.1909H59.1046V22.5168H59.7686V23.1798H59.1046V28.4795H59.7686V29.1384ZM62.4211 23.1798H61.0968V22.5168H59.7686V21.8539H62.4211V23.1798Z" fill="#FF4D00"/>
<path d="M56.1204 29.1383H52.1397V28.4794H53.468V26.4905H52.8038V25.8275H49.4873V26.4905H48.8232V24.5056H49.4873V25.1645H52.8038V24.5056H52.1397V22.5167H51.4796V20.5318H50.8156V18.5429H51.4796V17.8799H52.1397V20.5318H52.8038V22.5167H53.468V24.5056H54.1321V26.4905H54.7962V28.4794H56.1204V29.1383ZM50.8156 22.5167H50.1515V20.5318H50.8156V22.5167ZM50.1515 24.5056H49.4873V22.5167H50.1515V24.5056ZM50.1515 29.1383H46.8389V28.4794H48.1591V26.4905H48.8232V28.4794H50.1515V29.1383Z" fill="#FF4D00"/>
<path d="M46.2646 51.286V50.2349H53.6157V51.286H50.5336V60.0193H49.3468V51.286H46.2646ZM56.4238 55.6049V60.0193H55.2943V50.2349H56.4238V53.8276H56.5194C56.6917 53.4486 56.9502 53.1477 57.2948 52.9247C57.6425 52.6985 58.1051 52.5855 58.6826 52.5855C59.1835 52.5855 59.6222 52.6858 59.9987 52.8865C60.3751 53.0839 60.6671 53.3881 60.8745 53.7989C61.0851 54.2067 61.1904 54.7258 61.1904 55.3564V60.0193H60.0609V55.4329C60.0609 54.8501 59.9094 54.3994 59.6062 54.0808C59.3063 53.7592 58.89 53.5983 58.3571 53.5983C57.9871 53.5983 57.6552 53.6764 57.3617 53.8325C57.0714 53.9885 56.8416 54.2162 56.6726 54.5156C56.5067 54.815 56.4238 55.1781 56.4238 55.6049ZM63.2566 60.0193V52.6811H64.386V60.0193H63.2566ZM63.8309 51.458C63.6108 51.458 63.4209 51.3831 63.2614 51.2335C63.1051 51.0837 63.027 50.9039 63.027 50.6936C63.027 50.4834 63.1051 50.3034 63.2614 50.1538C63.4209 50.004 63.6108 49.9292 63.8309 49.9292C64.0511 49.9292 64.2393 50.004 64.3957 50.1538C64.5551 50.3034 64.6349 50.4834 64.6349 50.6936C64.6349 50.9039 64.5551 51.0837 64.3957 51.2335C64.2393 51.3831 64.0511 51.458 63.8309 51.458ZM71.6616 54.3246L70.647 54.6111C70.5833 54.4423 70.4891 54.2783 70.3647 54.119C70.2435 53.9567 70.0776 53.8228 69.867 53.7178C69.6564 53.6127 69.3868 53.5601 69.0582 53.5601C68.6083 53.5601 68.2334 53.6636 67.9335 53.8707C67.6368 54.0745 67.4885 54.3341 67.4885 54.6494C67.4885 54.9297 67.5905 55.151 67.7947 55.3135C67.999 55.4759 68.318 55.6112 68.7519 55.7196L69.8431 55.9871C70.5003 56.1464 70.9901 56.39 71.3123 56.718C71.6346 57.0429 71.7957 57.4617 71.7957 57.9745C71.7957 58.395 71.6744 58.7708 71.4319 59.102C71.1926 59.4333 70.8577 59.6945 70.4269 59.8855C69.9962 60.0766 69.4953 60.1722 68.9242 60.1722C68.1745 60.1722 67.5539 60.0098 67.0625 59.6848C66.5711 59.36 66.2601 58.8854 66.1293 58.2611L67.2013 57.9936C67.3034 58.3885 67.4965 58.6848 67.7804 58.8823C68.0676 59.0797 68.4424 59.1785 68.905 59.1785C69.4315 59.1785 69.8494 59.067 70.159 58.844C70.4716 58.6179 70.628 58.3471 70.628 58.0318C70.628 57.777 70.5386 57.5636 70.3599 57.3916C70.1813 57.2165 69.9068 57.0859 69.5368 56.9999L68.3116 56.7133C67.6384 56.554 67.1439 56.3072 66.828 55.9727C66.5154 55.6351 66.359 55.2131 66.359 54.7067C66.359 54.2927 66.4754 53.9263 66.7084 53.6079C66.9444 53.2894 67.2651 53.0393 67.6703 52.8578C68.0787 52.6763 68.5413 52.5855 69.0582 52.5855C69.7857 52.5855 70.3568 52.7447 70.7715 53.0632C71.1894 53.3818 71.4862 53.8021 71.6616 54.3246ZM79.4493 60.1913C78.9836 60.1913 78.5608 60.1038 78.1811 59.9286C77.8014 59.7501 77.4999 59.4938 77.2766 59.1593C77.0533 58.8217 76.9416 58.4141 76.9416 57.9363C76.9416 57.5159 77.0246 57.1751 77.1904 56.9139C77.3564 56.6495 77.5781 56.4425 77.8556 56.2928C78.1333 56.1432 78.4395 56.0317 78.7746 55.9584C79.1127 55.882 79.4525 55.8214 79.7939 55.7769C80.2406 55.7196 80.6027 55.6765 80.8803 55.6479C81.1611 55.616 81.3652 55.5635 81.4928 55.4903C81.6237 55.417 81.6891 55.2896 81.6891 55.1081V55.0698C81.6891 54.5984 81.5599 54.2321 81.3015 53.9709C81.0462 53.7098 80.6585 53.5792 80.1385 53.5792C79.5992 53.5792 79.1766 53.6971 78.8702 53.9327C78.5639 54.1684 78.3486 54.4201 78.2242 54.6876L77.1522 54.3054C77.3435 53.8595 77.5989 53.5124 77.9179 53.2639C78.2402 53.0123 78.5911 52.8371 78.9707 52.7384C79.3537 52.6365 79.7301 52.5855 80.1002 52.5855C80.3363 52.5855 80.6075 52.6142 80.9137 52.6715C81.2233 52.7257 81.5215 52.8387 81.8087 53.0107C82.0991 53.1827 82.3399 53.4422 82.5314 53.7894C82.7228 54.1366 82.8185 54.6016 82.8185 55.1844V60.0193H81.6891V59.0256H81.6316C81.555 59.1848 81.4274 59.3552 81.2488 59.5367C81.0701 59.7184 80.8325 59.8728 80.5357 60.0002C80.239 60.1276 79.8769 60.1913 79.4493 60.1913ZM79.6216 59.1785C80.0683 59.1785 80.4448 59.0909 80.7511 58.9157C81.0605 58.7405 81.2935 58.5144 81.4498 58.2372C81.6093 57.9602 81.6891 57.6688 81.6891 57.363V56.3311C81.6412 56.3884 81.536 56.441 81.3732 56.4887C81.2137 56.5333 81.0286 56.5732 80.8181 56.6081C80.6107 56.64 80.408 56.6687 80.2102 56.6941C80.0157 56.7165 79.8577 56.7355 79.7365 56.7515C79.4429 56.7898 79.1686 56.8518 78.9133 56.9378C78.6613 57.0206 78.457 57.1465 78.3007 57.3153C78.1476 57.4808 78.071 57.707 78.071 57.9936C78.071 58.3854 78.2162 58.6816 78.5065 58.8823C78.8001 59.0797 79.1717 59.1785 79.6216 59.1785ZM87.8663 60.1722C87.1772 60.1722 86.5837 60.0098 86.086 59.6848C85.5883 59.36 85.2055 58.9125 84.9374 58.3424C84.6694 57.7723 84.5355 57.1209 84.5355 56.3884C84.5355 55.6431 84.6726 54.9854 84.947 54.4153C85.2245 53.842 85.6106 53.3945 86.1052 53.0728C86.6029 52.7479 87.1836 52.5855 87.8472 52.5855C88.364 52.5855 88.8299 52.6811 89.2447 52.8721C89.6594 53.0632 89.9992 53.3308 90.264 53.6748C90.5288 54.0187 90.6931 54.4201 90.757 54.8787H89.6275C89.5414 54.5443 89.3499 54.2481 89.0532 53.9901C88.7597 53.7289 88.364 53.5983 87.8663 53.5983C87.426 53.5983 87.04 53.7129 86.7081 53.9423C86.3795 54.1684 86.1227 54.4886 85.9377 54.9025C85.7558 55.3135 85.6648 55.796 85.6648 56.3501C85.6648 56.9171 85.7542 57.4108 85.9329 57.8312C86.1147 58.2516 86.37 58.5781 86.6986 58.8106C87.0304 59.0431 87.4197 59.1593 87.8663 59.1593C88.1599 59.1593 88.4263 59.1084 88.6656 59.0065C88.9048 58.9045 89.1074 58.758 89.2734 58.567C89.4392 58.3758 89.5573 58.1465 89.6275 57.879H90.757C90.6931 58.3122 90.5352 58.7023 90.2831 59.0494C90.0343 59.3934 89.7041 59.6674 89.2925 59.8712C88.8841 60.0719 88.4087 60.1722 87.8663 60.1722ZM95.605 52.6811V53.6366H91.7955V52.6811H95.605ZM92.9058 50.9229H94.0352V57.9172C94.0352 58.2357 94.0815 58.4745 94.174 58.6338C94.2697 58.7899 94.3909 58.895 94.5377 58.9491C94.6876 59.0001 94.8456 59.0256 95.0115 59.0256C95.136 59.0256 95.238 59.0192 95.3178 59.0065C95.3975 58.9905 95.4614 58.9778 95.5092 58.9683L95.7389 59.9811C95.6624 60.0098 95.5555 60.0385 95.4183 60.0671C95.2811 60.0989 95.1073 60.1148 94.8966 60.1148C94.5776 60.1148 94.265 60.0464 93.9586 59.9094C93.6555 59.7725 93.4035 59.5639 93.2025 59.2836C93.0047 59.0033 92.9058 58.6497 92.9058 58.223V50.9229ZM97.3039 60.0193V52.6811H98.4333V60.0193H97.3039ZM97.8782 51.458C97.658 51.458 97.4682 51.3831 97.3086 51.2335C97.1523 51.0837 97.0742 50.9039 97.0742 50.6936C97.0742 50.4834 97.1523 50.3034 97.3086 50.1538C97.4682 50.004 97.658 49.9292 97.8782 49.9292C98.0984 49.9292 98.2865 50.004 98.4429 50.1538C98.6024 50.3034 98.6822 50.4834 98.6822 50.6936C98.6822 50.9039 98.6024 51.0837 98.4429 51.2335C98.2865 51.3831 98.0984 51.458 97.8782 51.458ZM103.488 60.1722C102.825 60.1722 102.242 60.0146 101.741 59.6992C101.244 59.3839 100.855 58.9427 100.574 58.3758C100.296 57.8089 100.157 57.1465 100.157 56.3884C100.157 55.624 100.296 54.9568 100.574 54.3866C100.855 53.8165 101.244 53.3738 101.741 53.0585C102.242 52.7432 102.825 52.5855 103.488 52.5855C104.152 52.5855 104.732 52.7432 105.23 53.0585C105.732 53.3738 106.12 53.8165 106.398 54.3866C106.679 54.9568 106.819 55.624 106.819 56.3884C106.819 57.1465 106.679 57.8089 106.398 58.3758C106.12 58.9427 105.732 59.3839 105.23 59.6992C104.732 60.0146 104.152 60.1722 103.488 60.1722ZM103.488 59.1593C103.992 59.1593 104.407 59.0304 104.732 58.7724C105.058 58.5144 105.299 58.1752 105.455 57.7548C105.611 57.3343 105.69 56.8789 105.69 56.3884C105.69 55.8979 105.611 55.4409 105.455 55.0172C105.299 54.5936 105.058 54.2513 104.732 53.9901C104.407 53.7289 103.992 53.5983 103.488 53.5983C102.984 53.5983 102.569 53.7289 102.244 53.9901C101.919 54.2513 101.678 54.5936 101.521 55.0172C101.365 55.4409 101.287 55.8979 101.287 56.3884C101.287 56.8789 101.365 57.3343 101.521 57.7548C101.678 58.1752 101.919 58.5144 102.244 58.7724C102.569 59.0304 102.984 59.1593 103.488 59.1593ZM109.673 55.6049V60.0193H108.543V52.6811H109.635V53.8276H109.73C109.902 53.455 110.164 53.1557 110.515 52.9294C110.866 52.7002 111.319 52.5855 111.874 52.5855C112.372 52.5855 112.807 52.6874 113.181 52.8912C113.554 53.0919 113.845 53.3977 114.052 53.8086C114.259 54.2162 114.363 54.7322 114.363 55.3564V60.0193H113.233V55.4329C113.233 54.8564 113.084 54.4073 112.783 54.0856C112.483 53.7608 112.072 53.5983 111.548 53.5983C111.189 53.5983 110.866 53.6764 110.582 53.8325C110.301 53.9885 110.079 54.2162 109.917 54.5156C109.754 54.815 109.673 55.1781 109.673 55.6049ZM123.204 60.1722C122.514 60.1722 121.92 60.0098 121.423 59.6848C120.925 59.36 120.543 58.9125 120.274 58.3424C120.007 57.7723 119.873 57.1209 119.873 56.3884C119.873 55.6431 120.01 54.9854 120.284 54.4153C120.561 53.842 120.948 53.3945 121.442 53.0728C121.94 52.7479 122.521 52.5855 123.184 52.5855C123.701 52.5855 124.167 52.6811 124.581 52.8721C124.996 53.0632 125.336 53.3308 125.601 53.6748C125.866 54.0187 126.03 54.4201 126.094 54.8787H124.965C124.878 54.5443 124.687 54.2481 124.391 53.9901C124.096 53.7289 123.701 53.5983 123.204 53.5983C122.763 53.5983 122.378 53.7129 122.045 53.9423C121.716 54.1684 121.46 54.4886 121.274 54.9025C121.093 55.3135 121.002 55.796 121.002 56.3501C121.002 56.9171 121.091 57.4108 121.27 57.8312C121.452 58.2516 121.707 58.5781 122.035 58.8106C122.367 59.0431 122.757 59.1593 123.204 59.1593C123.497 59.1593 123.764 59.1084 124.003 59.0065C124.241 58.9045 124.445 58.758 124.611 58.567C124.776 58.3758 124.895 58.1465 124.965 57.879H126.094C126.03 58.3122 125.872 58.7023 125.62 59.0494C125.371 59.3934 125.041 59.6674 124.629 59.8712C124.221 60.0719 123.746 60.1722 123.204 60.1722ZM129.908 60.1913C129.442 60.1913 129.019 60.1038 128.64 59.9286C128.261 59.7501 127.959 59.4938 127.735 59.1593C127.512 58.8217 127.4 58.4141 127.4 57.9363C127.4 57.5159 127.483 57.1751 127.649 56.9139C127.815 56.6495 128.037 56.4425 128.315 56.2928C128.592 56.1432 128.898 56.0317 129.233 55.9584C129.572 55.882 129.911 55.8214 130.253 55.7769C130.7 55.7196 131.062 55.6765 131.34 55.6479C131.619 55.616 131.824 55.5635 131.952 55.4903C132.083 55.417 132.148 55.2896 132.148 55.1081V55.0698C132.148 54.5984 132.019 54.2321 131.76 53.9709C131.505 53.7098 131.118 53.5792 130.597 53.5792C130.058 53.5792 129.635 53.6971 129.329 53.9327C129.023 54.1684 128.808 54.4201 128.684 54.6876L127.611 54.3054C127.802 53.8595 128.057 53.5124 128.377 53.2639C128.699 53.0123 129.05 52.8371 129.43 52.7384C129.813 52.6365 130.189 52.5855 130.559 52.5855C130.795 52.5855 131.067 52.6142 131.373 52.6715C131.682 52.7257 131.98 52.8387 132.267 53.0107C132.558 53.1827 132.799 53.4422 132.99 53.7894C133.182 54.1366 133.277 54.6016 133.277 55.1844V60.0193H132.148V59.0256H132.09C132.014 59.1848 131.886 59.3552 131.708 59.5367C131.529 59.7184 131.291 59.8728 130.994 60.0002C130.698 60.1276 130.336 60.1913 129.908 60.1913ZM130.081 59.1785C130.527 59.1785 130.904 59.0909 131.21 58.9157C131.52 58.7405 131.752 58.5144 131.909 58.2372C132.068 57.9602 132.148 57.6688 132.148 57.363V56.3311C132.1 56.3884 131.995 56.441 131.832 56.4887C131.672 56.5333 131.488 56.5732 131.277 56.6081C131.07 56.64 130.867 56.6687 130.669 56.6941C130.475 56.7165 130.316 56.7355 130.195 56.7515C129.902 56.7898 129.627 56.8518 129.372 56.9378C129.12 57.0206 128.916 57.1465 128.759 57.3153C128.607 57.4808 128.53 57.707 128.53 57.9936C128.53 58.3854 128.675 58.6816 128.966 58.8823C129.259 59.0797 129.631 59.1785 130.081 59.1785ZM136.468 55.6049V60.0193H135.339V52.6811H136.43V53.8276H136.526C136.698 53.455 136.959 53.1557 137.311 52.9294C137.661 52.7002 138.114 52.5855 138.67 52.5855C139.168 52.5855 139.603 52.6874 139.976 52.8912C140.349 53.0919 140.64 53.3977 140.847 53.8086C141.054 54.2162 141.159 54.7322 141.159 55.3564V60.0193H140.029V55.4329C140.029 54.8564 139.879 54.4073 139.579 54.0856C139.279 53.7608 138.868 53.5983 138.344 53.5983C137.984 53.5983 137.661 53.6764 137.377 53.8325C137.097 53.9885 136.875 54.2162 136.713 54.5156C136.55 54.815 136.468 55.1781 136.468 55.6049ZM144.352 55.6049V60.0193H143.222V52.6811H144.314V53.8276H144.409C144.581 53.455 144.843 53.1557 145.194 52.9294C145.545 52.7002 145.998 52.5855 146.553 52.5855C147.051 52.5855 147.487 52.6874 147.86 52.8912C148.233 53.0919 148.523 53.3977 148.731 53.8086C148.938 54.2162 149.042 54.7322 149.042 55.3564V60.0193H147.913V55.4329C147.913 54.8564 147.763 54.4073 147.463 54.0856C147.162 53.7608 146.751 53.5983 146.228 53.5983C145.868 53.5983 145.545 53.6764 145.261 53.8325C144.98 53.9885 144.758 54.2162 144.596 54.5156C144.433 54.815 144.352 55.1781 144.352 55.6049ZM154.093 60.1722C153.428 60.1722 152.846 60.0146 152.346 59.6992C151.847 59.3839 151.458 58.9427 151.177 58.3758C150.9 57.8089 150.761 57.1465 150.761 56.3884C150.761 55.624 150.9 54.9568 151.177 54.3866C151.458 53.8165 151.847 53.3738 152.346 53.0585C152.846 52.7432 153.428 52.5855 154.093 52.5855C154.756 52.5855 155.337 52.7432 155.834 53.0585C156.335 53.3738 156.725 53.8165 157.001 54.3866C157.282 54.9568 157.423 55.624 157.423 56.3884C157.423 57.1465 157.282 57.8089 157.001 58.3758C156.725 58.9427 156.335 59.3839 155.834 59.6992C155.337 60.0146 154.756 60.1722 154.093 60.1722ZM154.093 59.1593C154.596 59.1593 155.011 59.0304 155.337 58.7724C155.662 58.5144 155.903 58.1752 156.059 57.7548C156.216 57.3343 156.293 56.8789 156.293 56.3884C156.293 55.8979 156.216 55.4409 156.059 55.0172C155.903 54.5936 155.662 54.2513 155.337 53.9901C155.011 53.7289 154.596 53.5983 154.093 53.5983C153.588 53.5983 153.173 53.7289 152.847 53.9901C152.522 54.2513 152.281 54.5936 152.125 55.0172C151.968 55.4409 151.891 55.8979 151.891 56.3884C151.891 56.8789 151.968 57.3343 152.125 57.7548C152.281 58.1752 152.522 58.5144 152.847 58.7724C153.173 59.0304 153.588 59.1593 154.093 59.1593ZM162.343 52.6811V53.6366H158.535V52.6811H162.343ZM159.645 50.9229H160.774V57.9172C160.774 58.2357 160.821 58.4745 160.913 58.6338C161.009 58.7899 161.129 58.895 161.277 58.9491C161.427 59.0001 161.585 59.0256 161.75 59.0256C161.875 59.0256 161.977 59.0192 162.057 59.0065C162.136 58.9905 162.2 58.9778 162.248 58.9683L162.478 59.9811C162.401 60.0098 162.295 60.0385 162.157 60.0671C162.02 60.0989 161.846 60.1148 161.635 60.1148C161.316 60.1148 161.004 60.0464 160.697 59.9094C160.394 59.7725 160.143 59.5639 159.941 59.2836C159.743 59.0033 159.645 58.6497 159.645 58.223V50.9229ZM167.986 60.0193V50.2349H169.116V53.8468H169.211C169.294 53.7194 169.409 53.5569 169.557 53.3594C169.706 53.1588 169.919 52.9805 170.197 52.8244C170.478 52.6651 170.858 52.5855 171.337 52.5855C171.955 52.5855 172.501 52.7399 172.973 53.049C173.445 53.3579 173.814 53.7958 174.079 54.3627C174.344 54.9297 174.476 55.5985 174.476 56.3693C174.476 57.1465 174.344 57.8201 174.079 58.3902C173.814 58.9571 173.447 59.3966 172.978 59.7087C172.509 60.0178 171.968 60.1722 171.355 60.1722C170.884 60.1722 170.505 60.0941 170.221 59.9381C169.937 59.7788 169.718 59.5988 169.566 59.3983C169.412 59.1944 169.294 59.0256 169.211 58.8918H169.078V60.0193H167.986ZM169.096 56.3501C169.096 56.9044 169.178 57.3933 169.341 57.8169C169.504 58.2372 169.741 58.567 170.054 58.8058C170.366 59.0416 170.75 59.1593 171.203 59.1593C171.675 59.1593 172.068 59.0351 172.385 58.7867C172.704 58.5351 172.942 58.1975 173.102 57.7738C173.265 57.347 173.347 56.8725 173.347 56.3501C173.347 55.8342 173.267 55.3692 173.107 54.9551C172.951 54.5379 172.713 54.2082 172.394 53.9662C172.078 53.7209 171.681 53.5983 171.203 53.5983C170.743 53.5983 170.357 53.7146 170.044 53.9471C169.732 54.1764 169.495 54.4981 169.336 54.9122C169.176 55.323 169.096 55.8024 169.096 56.3501ZM179.286 60.1722C178.578 60.1722 177.966 60.0161 177.453 59.704C176.942 59.3887 176.548 58.9491 176.27 58.3854C175.996 57.8184 175.859 57.1592 175.859 56.4075C175.859 55.6558 175.996 54.9934 176.27 54.4201C176.548 53.8435 176.935 53.3945 177.429 53.0728C177.927 52.7479 178.507 52.5855 179.171 52.5855C179.553 52.5855 179.932 52.6492 180.305 52.7766C180.678 52.904 181.018 53.111 181.324 53.3977C181.631 53.6812 181.874 54.0569 182.057 54.5251C182.238 54.9934 182.329 55.5698 182.329 56.2546V56.7324H176.663V55.7578H181.181C181.181 55.3437 181.098 54.9743 180.932 54.6494C180.769 54.3246 180.536 54.0681 180.233 53.8802C179.934 53.6922 179.579 53.5983 179.171 53.5983C178.721 53.5983 178.332 53.7098 178.003 53.9327C177.678 54.1526 177.427 54.4391 177.252 54.7927C177.077 55.1463 176.989 55.5252 176.989 55.9298V56.5795C176.989 57.1336 177.084 57.6035 177.276 57.9889C177.471 58.3711 177.74 58.6625 178.084 58.8631C178.428 59.0606 178.83 59.1593 179.286 59.1593C179.582 59.1593 179.851 59.1179 180.089 59.0351C180.332 58.9491 180.541 58.8217 180.716 58.653C180.892 58.481 181.027 58.2676 181.124 58.0128L182.214 58.3185C182.099 58.6879 181.907 59.0129 181.636 59.2931C181.364 59.5702 181.029 59.7868 180.63 59.9428C180.231 60.0958 179.783 60.1722 179.286 60.1722ZM192.47 57.019V52.6811H193.6V60.0193H192.47V58.7771H192.393C192.221 59.1498 191.954 59.4667 191.59 59.7279C191.226 59.9859 190.767 60.1148 190.211 60.1148C189.752 60.1148 189.344 60.0146 188.986 59.8139C188.629 59.61 188.348 59.3043 188.144 58.8966C187.94 58.4857 187.837 57.9682 187.837 57.3439V52.6811H188.967V57.2675C188.967 57.8025 189.118 58.2294 189.417 58.5478C189.72 58.8663 190.107 59.0256 190.575 59.0256C190.856 59.0256 191.141 58.9539 191.431 58.8106C191.726 58.6672 191.972 58.4475 192.169 58.1514C192.37 57.8551 192.47 57.4776 192.47 57.019ZM196.798 55.6049V60.0193H195.668V52.6811H196.76V53.8276H196.855C197.027 53.455 197.29 53.1557 197.64 52.9294C197.992 52.7002 198.445 52.5855 198.999 52.5855C199.497 52.5855 199.932 52.6874 200.306 52.8912C200.68 53.0919 200.97 53.3977 201.177 53.8086C201.385 54.2162 201.488 54.7322 201.488 55.3564V60.0193H200.358V55.4329C200.358 54.8564 200.209 54.4073 199.908 54.0856C199.609 53.7608 199.197 53.5983 198.674 53.5983C198.314 53.5983 197.992 53.6764 197.707 53.8325C197.427 53.9885 197.205 54.2162 197.042 54.5156C196.879 54.815 196.798 55.1781 196.798 55.6049ZM206.327 60.1722C205.715 60.1722 205.175 60.0178 204.705 59.7087C204.236 59.3966 203.869 58.9571 203.604 58.3902C203.34 57.8201 203.207 57.1465 203.207 56.3693C203.207 55.5985 203.34 54.9297 203.604 54.3627C203.869 53.7958 204.238 53.3579 204.71 53.049C205.182 52.7399 205.728 52.5855 206.347 52.5855C206.825 52.5855 207.203 52.6651 207.481 52.8244C207.762 52.9805 207.976 53.1588 208.122 53.3594C208.272 53.5569 208.388 53.7194 208.471 53.8468H208.568V50.2349H209.697V60.0193H208.606V58.8918H208.471C208.388 59.0256 208.271 59.1944 208.118 59.3983C207.964 59.5988 207.746 59.7788 207.462 59.9381C207.178 60.0941 206.8 60.1722 206.327 60.1722ZM206.481 59.1593C206.934 59.1593 207.316 59.0416 207.629 58.8058C207.943 58.567 208.18 58.2372 208.343 57.8169C208.505 57.3933 208.586 56.9044 208.586 56.3501C208.586 55.8024 208.507 55.323 208.347 54.9122C208.188 54.4981 207.952 54.1764 207.639 53.9471C207.327 53.7146 206.94 53.5983 206.481 53.5983C206.002 53.5983 205.604 53.7209 205.285 53.9662C204.968 54.2082 204.731 54.5379 204.571 54.9551C204.415 55.3692 204.337 55.8342 204.337 56.3501C204.337 56.8725 204.417 57.347 204.577 57.7738C204.739 58.1975 204.978 58.5351 205.294 58.7867C205.613 59.0351 206.008 59.1593 206.481 59.1593ZM214.909 60.1722C214.245 60.1722 213.663 60.0146 213.162 59.6992C212.664 59.3839 212.275 58.9427 211.994 58.3758C211.716 57.8089 211.578 57.1465 211.578 56.3884C211.578 55.624 211.716 54.9568 211.994 54.3866C212.275 53.8165 212.664 53.3738 213.162 53.0585C213.663 52.7432 214.245 52.5855 214.909 52.5855C215.572 52.5855 216.153 52.7432 216.651 53.0585C217.151 53.3738 217.541 53.8165 217.818 54.3866C218.099 54.9568 218.24 55.624 218.24 56.3884C218.24 57.1465 218.099 57.8089 217.818 58.3758C217.541 58.9427 217.151 59.3839 216.651 59.6992C216.153 60.0146 215.572 60.1722 214.909 60.1722ZM214.909 59.1593C215.413 59.1593 215.828 59.0304 216.153 58.7724C216.479 58.5144 216.719 58.1752 216.876 57.7548C217.032 57.3343 217.11 56.8789 217.11 56.3884C217.11 55.8979 217.032 55.4409 216.876 55.0172C216.719 54.5936 216.479 54.2513 216.153 53.9901C215.828 53.7289 215.413 53.5983 214.909 53.5983C214.404 53.5983 213.99 53.7289 213.664 53.9901C213.338 54.2513 213.098 54.5936 212.941 55.0172C212.785 55.4409 212.707 55.8979 212.707 56.3884C212.707 56.8789 212.785 57.3343 212.941 57.7548C213.098 58.1752 213.338 58.5144 213.664 58.7724C213.99 59.0304 214.404 59.1593 214.909 59.1593ZM221.093 55.6049V60.0193H219.964V52.6811H221.054V53.8276H221.151C221.323 53.455 221.584 53.1557 221.936 52.9294C222.286 52.7002 222.739 52.5855 223.295 52.5855C223.792 52.5855 224.228 52.6874 224.601 52.8912C224.974 53.0919 225.264 53.3977 225.472 53.8086C225.679 54.2162 225.783 54.7322 225.783 55.3564V60.0193H224.654V55.4329C224.654 54.8564 224.503 54.4073 224.204 54.0856C223.904 53.7608 223.493 53.5983 222.969 53.5983C222.608 53.5983 222.286 53.6764 222.002 53.8325C221.722 53.9885 221.5 54.2162 221.337 54.5156C221.175 54.815 221.093 55.1781 221.093 55.6049ZM230.929 60.1722C230.221 60.1722 229.61 60.0161 229.096 59.704C228.586 59.3887 228.192 58.9491 227.914 58.3854C227.639 57.8184 227.503 57.1592 227.503 56.4075C227.503 55.6558 227.639 54.9934 227.914 54.4201C228.192 53.8435 228.578 53.3945 229.072 53.0728C229.57 52.7479 230.15 52.5855 230.814 52.5855C231.197 52.5855 231.575 52.6492 231.949 52.7766C232.322 52.904 232.661 53.111 232.968 53.3977C233.274 53.6812 233.518 54.0569 233.7 54.5251C233.882 54.9934 233.972 55.5698 233.972 56.2546V56.7324H228.306V55.7578H232.824C232.824 55.3437 232.741 54.9743 232.575 54.6494C232.412 54.3246 232.18 54.0681 231.876 53.8802C231.577 53.6922 231.222 53.5983 230.814 53.5983C230.364 53.5983 229.975 53.7098 229.646 53.9327C229.321 54.1526 229.071 54.4391 228.895 54.7927C228.72 55.1463 228.631 55.5252 228.631 55.9298V56.5795C228.631 57.1336 228.728 57.6035 228.919 57.9889C229.114 58.3711 229.383 58.6625 229.727 58.8631C230.072 59.0606 230.473 59.1593 230.929 59.1593C231.225 59.1593 231.494 59.1179 231.733 59.0351C231.976 58.9491 232.184 58.8217 232.36 58.653C232.536 58.481 232.671 58.2676 232.767 58.0128L233.858 58.3185C233.743 58.6879 233.551 59.0129 233.279 59.2931C233.007 59.5702 232.672 59.7868 232.273 59.9428C231.875 60.0958 231.426 60.1722 230.929 60.1722ZM236.514 60.0958C236.278 60.0958 236.075 60.0113 235.906 59.8426C235.737 59.6738 235.653 59.4714 235.653 59.2358C235.653 59.0001 235.737 58.7978 235.906 58.629C236.075 58.4603 236.278 58.3758 236.514 58.3758C236.75 58.3758 236.953 58.4603 237.122 58.629C237.291 58.7978 237.376 59.0001 237.376 59.2358C237.376 59.3919 237.335 59.5352 237.256 59.6658C237.179 59.7964 237.075 59.9014 236.945 59.9811C236.817 60.0575 236.674 60.0958 236.514 60.0958ZM242.81 51.286V50.2349H250.161V51.286H247.079V60.0193H245.892V51.286H242.81ZM252.968 55.6049V60.0193H251.84V50.2349H252.968V53.8276H253.065C253.237 53.4486 253.495 53.1477 253.839 52.9247C254.188 52.6985 254.65 52.5855 255.227 52.5855C255.728 52.5855 256.168 52.6858 256.544 52.8865C256.92 53.0839 257.213 53.3881 257.42 53.7989C257.63 54.2067 257.735 54.7258 257.735 55.3564V60.0193H256.606V55.4329C256.606 54.8501 256.455 54.3994 256.151 54.0808C255.851 53.7592 255.435 53.5983 254.902 53.5983C254.532 53.5983 254.2 53.6764 253.907 53.8325C253.616 53.9885 253.386 54.2162 253.217 54.5156C253.051 54.815 252.968 55.1781 252.968 55.6049ZM259.801 60.0193V52.6811H260.931V60.0193H259.801ZM260.376 51.458C260.156 51.458 259.966 51.3831 259.806 51.2335C259.65 51.0837 259.572 50.9039 259.572 50.6936C259.572 50.4834 259.65 50.3034 259.806 50.1538C259.966 50.004 260.156 49.9292 260.376 49.9292C260.596 49.9292 260.784 50.004 260.941 50.1538C261.1 50.3034 261.18 50.4834 261.18 50.6936C261.18 50.9039 261.1 51.0837 260.941 51.2335C260.784 51.3831 260.596 51.458 260.376 51.458ZM268.207 54.3246L267.192 54.6111C267.128 54.4423 267.034 54.2783 266.91 54.119C266.788 53.9567 266.623 53.8228 266.412 53.7178C266.202 53.6127 265.932 53.5601 265.603 53.5601C265.154 53.5601 264.778 53.6636 264.479 53.8707C264.182 54.0745 264.034 54.3341 264.034 54.6494C264.034 54.9297 264.136 55.151 264.34 55.3135C264.544 55.4759 264.863 55.6112 265.297 55.7196L266.388 55.9871C267.045 56.1464 267.535 56.39 267.857 56.718C268.18 57.0429 268.34 57.4617 268.34 57.9745C268.34 58.395 268.219 58.7708 267.977 59.102C267.738 59.4333 267.403 59.6945 266.972 59.8855C266.542 60.0766 266.04 60.1722 265.47 60.1722C264.719 60.1722 264.099 60.0098 263.608 59.6848C263.116 59.36 262.805 58.8854 262.674 58.2611L263.747 57.9936C263.848 58.3885 264.041 58.6848 264.325 58.8823C264.612 59.0797 264.988 59.1785 265.45 59.1785C265.977 59.1785 266.394 59.067 266.704 58.844C267.016 58.6179 267.173 58.3471 267.173 58.0318C267.173 57.777 267.084 57.5636 266.904 57.3916C266.726 57.2165 266.451 57.0859 266.081 56.9999L264.857 56.7133C264.183 56.554 263.689 56.3072 263.373 55.9727C263.06 55.6351 262.904 55.2131 262.904 54.7067C262.904 54.2927 263.02 53.9263 263.253 53.6079C263.49 53.2894 263.81 53.0393 264.215 52.8578C264.624 52.6763 265.086 52.5855 265.603 52.5855C266.33 52.5855 266.901 52.7447 267.316 53.0632C267.735 53.3818 268.031 53.8021 268.207 54.3246ZM275.496 60.0193L273.257 52.6811H274.444L276.032 58.2994H276.109L277.679 52.6811H278.885L280.435 58.2803H280.512L282.101 52.6811H283.288L281.048 60.0193H279.938L278.33 54.3819H278.215L276.607 60.0193H275.496ZM284.781 60.0193V52.6811H285.911V60.0193H284.781ZM285.355 51.458C285.135 51.458 284.946 51.3831 284.786 51.2335C284.63 51.0837 284.552 50.9039 284.552 50.6936C284.552 50.4834 284.63 50.3034 284.786 50.1538C284.946 50.004 285.135 49.9292 285.355 49.9292C285.575 49.9292 285.764 50.004 285.92 50.1538C286.08 50.3034 286.16 50.4834 286.16 50.6936C286.16 50.9039 286.08 51.0837 285.92 51.2335C285.764 51.3831 285.575 51.458 285.355 51.458ZM289.109 50.2349V60.0193H287.979V50.2349H289.109ZM292.307 50.2349V60.0193H291.177V50.2349H292.307ZM298.165 62.7712V52.6811H299.257V53.8468H299.391C299.474 53.7194 299.589 53.5569 299.735 53.3594C299.885 53.1588 300.099 52.9805 300.377 52.8244C300.658 52.6651 301.037 52.5855 301.516 52.5855C302.135 52.5855 302.68 52.7399 303.153 53.049C303.625 53.3579 303.994 53.7958 304.258 54.3627C304.522 54.9297 304.655 55.5985 304.655 56.3693C304.655 57.1465 304.522 57.8201 304.258 58.3902C303.994 58.9571 303.627 59.3966 303.157 59.7087C302.688 60.0178 302.147 60.1722 301.535 60.1722C301.063 60.1722 300.685 60.0941 300.4 59.9381C300.116 59.7788 299.898 59.5988 299.745 59.3983C299.592 59.1944 299.474 59.0256 299.391 58.8918H299.295V62.7712H298.165ZM299.276 56.3501C299.276 56.9044 299.358 57.3933 299.52 57.8169C299.683 58.2372 299.92 58.567 300.234 58.8058C300.546 59.0416 300.929 59.1593 301.382 59.1593C301.854 59.1593 302.248 59.0351 302.564 58.7867C302.883 58.5351 303.122 58.1975 303.281 57.7738C303.444 57.347 303.526 56.8725 303.526 56.3501C303.526 55.8342 303.446 55.3692 303.287 54.9551C303.13 54.5379 302.893 54.2082 302.573 53.9662C302.257 53.7209 301.86 53.5983 301.382 53.5983C300.922 53.5983 300.536 53.7146 300.223 53.9471C299.911 54.1764 299.675 54.4981 299.515 54.9122C299.356 55.323 299.276 55.8024 299.276 56.3501ZM309.46 60.1722C308.752 60.1722 308.141 60.0161 307.627 59.704C307.117 59.3887 306.723 58.9491 306.445 58.3854C306.171 57.8184 306.034 57.1592 306.034 56.4075C306.034 55.6558 306.171 54.9934 306.445 54.4201C306.723 53.8435 307.109 53.3945 307.603 53.0728C308.101 52.7479 308.681 52.5855 309.345 52.5855C309.728 52.5855 310.106 52.6492 310.479 52.7766C310.853 52.904 311.192 53.111 311.499 53.3977C311.805 53.6812 312.05 54.0569 312.231 54.5251C312.413 54.9934 312.504 55.5698 312.504 56.2546V56.7324H306.837V55.7578H311.355C311.355 55.3437 311.272 54.9743 311.106 54.6494C310.943 54.3246 310.711 54.0681 310.407 53.8802C310.108 53.6922 309.753 53.5983 309.345 53.5983C308.895 53.5983 308.506 53.7098 308.178 53.9327C307.852 54.1526 307.601 54.4391 307.426 54.7927C307.251 55.1463 307.163 55.5252 307.163 55.9298V56.5795C307.163 57.1336 307.259 57.6035 307.45 57.9889C307.645 58.3711 307.914 58.6625 308.258 58.8631C308.604 59.0606 309.004 59.1593 309.46 59.1593C309.756 59.1593 310.025 59.1179 310.264 59.0351C310.507 58.9491 310.715 58.8217 310.891 58.653C311.067 58.481 311.203 58.2676 311.298 58.0128L312.389 58.3185C312.275 58.6879 312.081 59.0129 311.81 59.2931C311.539 59.5702 311.204 59.7868 310.805 59.9428C310.406 60.0958 309.958 60.1722 309.46 60.1722ZM314.222 60.0193V52.6811H315.313V53.7894H315.39C315.523 53.4264 315.766 53.1317 316.117 52.9056C316.468 52.6794 316.864 52.5664 317.305 52.5664C317.387 52.5664 317.491 52.5679 317.615 52.5712C317.74 52.5744 317.833 52.5791 317.897 52.5855V53.7321C317.859 53.7226 317.771 53.7082 317.634 53.6891C317.5 53.6668 317.358 53.6556 317.208 53.6556C316.851 53.6556 316.532 53.7305 316.251 53.8802C315.973 54.0267 315.754 54.2306 315.591 54.4917C315.431 54.7497 315.351 55.0443 315.351 55.3756V60.0193H314.222ZM319.236 60.0193V52.6811H320.327V53.8276H320.423C320.576 53.4359 320.824 53.1318 321.165 52.9151C321.506 52.6953 321.917 52.5855 322.395 52.5855C322.88 52.5855 323.283 52.6953 323.605 52.9151C323.931 53.1318 324.185 53.4359 324.366 53.8276H324.443C324.632 53.4486 324.914 53.1477 325.29 52.9247C325.666 52.6985 326.118 52.5855 326.645 52.5855C327.302 52.5855 327.839 52.791 328.258 53.2018C328.676 53.6095 328.884 54.2449 328.884 55.1081V60.0193H327.755V55.1081C327.755 54.5666 327.607 54.1796 327.309 53.9471C327.013 53.7146 326.664 53.5983 326.261 53.5983C325.745 53.5983 325.345 53.7544 325.061 54.0666C324.777 54.3755 324.635 54.7672 324.635 55.2418V60.0193H323.486V54.9934C323.486 54.5761 323.35 54.2401 323.08 53.9853C322.808 53.7273 322.459 53.5983 322.031 53.5983C321.737 53.5983 321.464 53.6764 321.208 53.8325C320.956 53.9885 320.751 54.205 320.596 54.4822C320.443 54.7561 320.366 55.073 320.366 55.4329V60.0193H319.236ZM333.113 60.1913C332.647 60.1913 332.224 60.1038 331.845 59.9286C331.464 59.7501 331.164 59.4938 330.94 59.1593C330.717 58.8217 330.605 58.4141 330.605 57.9363C330.605 57.5159 330.688 57.1751 330.854 56.9139C331.02 56.6495 331.242 56.4425 331.519 56.2928C331.796 56.1432 332.103 56.0317 332.438 55.9584C332.776 55.882 333.116 55.8214 333.457 55.7769C333.904 55.7196 334.267 55.6765 334.543 55.6479C334.824 55.616 335.029 55.5635 335.156 55.4903C335.287 55.417 335.352 55.2896 335.352 55.1081V55.0698C335.352 54.5984 335.223 54.2321 334.965 53.9709C334.709 53.7098 334.322 53.5792 333.802 53.5792C333.263 53.5792 332.84 53.6971 332.533 53.9327C332.227 54.1684 332.012 54.4201 331.887 54.6876L330.815 54.3054C331.007 53.8595 331.262 53.5124 331.582 53.2639C331.904 53.0123 332.254 52.8371 332.634 52.7384C333.017 52.6365 333.394 52.5855 333.764 52.5855C334 52.5855 334.271 52.6142 334.578 52.6715C334.886 52.7257 335.185 52.8387 335.472 53.0107C335.762 53.1827 336.003 53.4422 336.195 53.7894C336.387 54.1366 336.482 54.6016 336.482 55.1844V60.0193H335.352V59.0256H335.295C335.218 59.1848 335.091 59.3552 334.912 59.5367C334.733 59.7184 334.496 59.8728 334.199 60.0002C333.903 60.1276 333.54 60.1913 333.113 60.1913ZM333.285 59.1785C333.732 59.1785 334.108 59.0909 334.415 58.9157C334.724 58.7405 334.957 58.5144 335.114 58.2372C335.273 57.9602 335.352 57.6688 335.352 57.363V56.3311C335.304 56.3884 335.2 56.441 335.037 56.4887C334.877 56.5333 334.692 56.5732 334.481 56.6081C334.274 56.64 334.072 56.6687 333.874 56.6941C333.679 56.7165 333.521 56.7355 333.4 56.7515C333.107 56.7898 332.832 56.8518 332.577 56.9378C332.325 57.0206 332.121 57.1465 331.964 57.3153C331.811 57.4808 331.734 57.707 331.734 57.9936C331.734 58.3854 331.879 58.6816 332.17 58.8823C332.464 59.0797 332.835 59.1785 333.285 59.1785ZM339.673 55.6049V60.0193H338.543V52.6811H339.634V53.8276H339.73C339.903 53.455 340.164 53.1557 340.515 52.9294C340.866 52.7002 341.319 52.5855 341.875 52.5855C342.372 52.5855 342.808 52.6874 343.181 52.8912C343.554 53.0919 343.844 53.3977 344.052 53.8086C344.259 54.2162 344.363 54.7322 344.363 55.3564V60.0193H343.234V55.4329C343.234 54.8564 343.083 54.4073 342.784 54.0856C342.483 53.7608 342.072 53.5983 341.549 53.5983C341.188 53.5983 340.866 53.6764 340.582 53.8325C340.301 53.9885 340.079 54.2162 339.916 54.5156C339.754 54.815 339.673 55.1781 339.673 55.6049ZM349.509 60.1722C348.801 60.1722 348.189 60.0161 347.676 59.704C347.165 59.3887 346.771 58.9491 346.494 58.3854C346.219 57.8184 346.083 57.1592 346.083 56.4075C346.083 55.6558 346.219 54.9934 346.494 54.4201C346.771 53.8435 347.158 53.3945 347.652 53.0728C348.15 52.7479 348.73 52.5855 349.394 52.5855C349.777 52.5855 350.155 52.6492 350.528 52.7766C350.901 52.904 351.241 53.111 351.548 53.3977C351.854 53.6812 352.098 54.0569 352.28 54.5251C352.461 54.9934 352.552 55.5698 352.552 56.2546V56.7324H346.886V55.7578H351.404C351.404 55.3437 351.321 54.9743 351.155 54.6494C350.992 54.3246 350.759 54.0681 350.456 53.8802C350.157 53.6922 349.802 53.5983 349.394 53.5983C348.944 53.5983 348.555 53.7098 348.226 53.9327C347.901 54.1526 347.65 54.4391 347.475 54.7927C347.3 55.1463 347.212 55.5252 347.212 55.9298V56.5795C347.212 57.1336 347.307 57.6035 347.499 57.9889C347.694 58.3711 347.963 58.6625 348.307 58.8631C348.652 59.0606 349.053 59.1593 349.509 59.1593C349.805 59.1593 350.074 59.1179 350.313 59.0351C350.555 58.9491 350.764 58.8217 350.939 58.653C351.116 58.481 351.25 58.2676 351.347 58.0128L352.437 58.3185C352.322 58.6879 352.13 59.0129 351.859 59.2931C351.587 59.5702 351.252 59.7868 350.853 59.9428C350.455 60.0958 350.006 60.1722 349.509 60.1722ZM355.4 55.6049V60.0193H354.27V52.6811H355.362V53.8276H355.457C355.629 53.455 355.892 53.1557 356.242 52.9294C356.593 52.7002 357.046 52.5855 357.601 52.5855C358.1 52.5855 358.535 52.6874 358.908 52.8912C359.282 53.0919 359.572 53.3977 359.779 53.8086C359.986 54.2162 360.09 54.7322 360.09 55.3564V60.0193H358.961V55.4329C358.961 54.8564 358.811 54.4073 358.511 54.0856C358.211 53.7608 357.799 53.5983 357.277 53.5983C356.916 53.5983 356.593 53.6764 356.309 53.8325C356.028 53.9885 355.807 54.2162 355.644 54.5156C355.481 54.815 355.4 55.1781 355.4 55.6049ZM365.351 52.6811V53.6366H361.541V52.6811H365.351ZM362.652 50.9229H363.781V57.9172C363.781 58.2357 363.827 58.4745 363.92 58.6338C364.016 58.7899 364.137 58.895 364.283 58.9491C364.434 59.0001 364.591 59.0256 364.757 59.0256C364.882 59.0256 364.984 59.0192 365.064 59.0065C365.144 58.9905 365.207 58.9778 365.255 58.9683L365.485 59.9811C365.408 60.0098 365.302 60.0385 365.165 60.0671C365.027 60.0989 364.854 60.1148 364.642 60.1148C364.324 60.1148 364.011 60.0464 363.705 59.9094C363.401 59.7725 363.149 59.5639 362.948 59.2836C362.75 59.0033 362.652 58.6497 362.652 58.223V50.9229ZM368.337 50.2349V60.0193H367.208V50.2349H368.337ZM371.134 62.7712C370.942 62.7712 370.771 62.7552 370.622 62.7234C370.471 62.6947 370.368 62.666 370.311 62.6374L370.598 61.6437C370.872 61.7137 371.114 61.7392 371.325 61.7201C371.535 61.701 371.722 61.607 371.884 61.4382C372.05 61.2726 372.203 61.0035 372.339 60.6308L372.55 60.0575L369.832 52.6811H371.057L373.086 58.5288H373.163L375.191 52.6811H376.417L373.296 61.0895C373.156 61.4685 372.982 61.7822 372.775 62.0306C372.568 62.2823 372.327 62.4686 372.052 62.5897C371.781 62.7106 371.475 62.7712 371.134 62.7712ZM49.4233 78.8001C48.8107 78.8001 48.2699 78.6457 47.8009 78.3367C47.3319 78.0245 46.965 77.585 46.7002 77.0181C46.4354 76.448 46.303 75.7744 46.303 74.9972C46.303 74.2264 46.4354 73.5576 46.7002 72.9906C46.965 72.4237 47.3336 71.9858 47.8057 71.6769C48.2779 71.3678 48.8235 71.2134 49.4425 71.2134C49.921 71.2134 50.2991 71.293 50.5767 71.4523C50.8574 71.6084 51.0712 71.7867 51.218 71.9873C51.3679 72.1848 51.4844 72.3473 51.5673 72.4747H51.663V68.8628H52.7925V78.6472H51.7014V77.5197H51.5673C51.4844 77.6535 51.3663 77.8223 51.2132 78.0262C51.0601 78.2268 50.8415 78.4067 50.5575 78.566C50.2736 78.722 49.8955 78.8001 49.4233 78.8001ZM49.5764 77.7872C50.0295 77.7872 50.4124 77.6695 50.725 77.4337C51.0377 77.1949 51.2754 76.8651 51.4382 76.4448C51.6008 76.0212 51.6822 75.5323 51.6822 74.978C51.6822 74.4303 51.6025 73.9509 51.4429 73.5401C51.2834 73.126 51.0472 72.8043 50.7346 72.575C50.4219 72.3425 50.0359 72.2262 49.5764 72.2262C49.0979 72.2262 48.6991 72.3488 48.38 72.5941C48.0641 72.8361 47.8265 73.1659 47.667 73.583C47.5106 73.9971 47.4325 74.4622 47.4325 74.978C47.4325 75.5005 47.5122 75.9749 47.6717 76.4017C47.8344 76.8254 48.0738 77.163 48.3896 77.4146C48.7086 77.663 49.1043 77.7872 49.5764 77.7872ZM58.0999 78.8001C57.3917 78.8001 56.7807 78.644 56.267 78.3319C55.7565 78.0166 55.3625 77.577 55.0849 77.0133C54.8105 76.4463 54.6733 75.7871 54.6733 75.0354C54.6733 74.2837 54.8105 73.6213 55.0849 73.048C55.3625 72.4715 55.7486 72.0224 56.2431 71.7007C56.7408 71.3758 57.3214 71.2134 57.9851 71.2134C58.3679 71.2134 58.746 71.2771 59.1193 71.4045C59.4926 71.5319 59.8324 71.739 60.1387 72.0256C60.445 72.3091 60.689 72.6848 60.8709 73.153C61.0528 73.6213 61.1437 74.1977 61.1437 74.8825V75.3603H55.4774V74.3857H59.9951C59.9951 73.9716 59.9122 73.6022 59.7463 73.2773C59.5835 72.9525 59.3506 72.696 59.0476 72.5081C58.7477 72.3202 58.3934 72.2262 57.9851 72.2262C57.5352 72.2262 57.146 72.3377 56.8174 72.5607C56.492 72.7805 56.2415 73.067 56.066 73.4206C55.8905 73.7742 55.8028 74.1531 55.8028 74.5577V75.2074C55.8028 75.7616 55.8985 76.2314 56.0899 76.6168C56.2845 76.999 56.5542 77.2904 56.8988 77.491C57.2432 77.6885 57.6437 77.7872 58.0999 77.7872C58.3966 77.7872 58.6646 77.7458 58.904 77.663C59.1465 77.577 59.3554 77.4497 59.5309 77.2809C59.7064 77.1089 59.842 76.8955 59.9377 76.6407L61.0289 76.9464C60.914 77.3158 60.721 77.6408 60.4498 77.921C60.1786 78.1981 59.8435 78.4147 59.4447 78.5707C59.0459 78.7237 58.5977 78.8001 58.0999 78.8001ZM63.9913 68.8628V78.6472H62.8618V68.8628H63.9913ZM69.142 78.8001C68.4336 78.8001 67.8226 78.644 67.3089 78.3319C66.7985 78.0166 66.4044 77.577 66.1269 77.0133C65.8525 76.4463 65.7154 75.7871 65.7154 75.0354C65.7154 74.2837 65.8525 73.6213 66.1269 73.048C66.4044 72.4715 66.7905 72.0224 67.2851 71.7007C67.7828 71.3758 68.3634 71.2134 69.0271 71.2134C69.41 71.2134 69.788 71.2771 70.1613 71.4045C70.5347 71.5319 70.8744 71.739 71.1807 72.0256C71.4869 72.3091 71.7311 72.6848 71.9129 73.153C72.0947 73.6213 72.1857 74.1977 72.1857 74.8825V75.3603H66.5193V74.3857H71.0371C71.0371 73.9716 70.9542 73.6022 70.7882 73.2773C70.6256 72.9525 70.3926 72.696 70.0895 72.5081C69.7896 72.3202 69.4355 72.2262 69.0271 72.2262C68.5772 72.2262 68.1879 72.3377 67.8593 72.5607C67.5339 72.7805 67.2834 73.067 67.108 73.4206C66.9325 73.7742 66.8447 74.1531 66.8447 74.5577V75.2074C66.8447 75.7616 66.9405 76.2314 67.1319 76.6168C67.3266 76.999 67.5961 77.2904 67.9407 77.491C68.2853 77.6885 68.6857 77.7872 69.142 77.7872C69.4387 77.7872 69.7067 77.7458 69.9459 77.663C70.1884 77.577 70.3974 77.4497 70.5729 77.2809C70.7484 77.1089 70.884 76.8955 70.9797 76.6407L72.0708 76.9464C71.9559 77.3158 71.7629 77.6408 71.4917 77.921C71.2205 78.1981 70.8856 78.4147 70.4868 78.5707C70.0879 78.7237 69.6397 78.8001 69.142 78.8001ZM77.1007 71.309V72.2645H73.2912V71.309H77.1007ZM74.4016 69.5508H75.531V76.5451C75.531 76.8636 75.5772 77.1025 75.6697 77.2617C75.7655 77.4178 75.8867 77.5229 76.0335 77.577C76.1834 77.628 76.3414 77.6535 76.5072 77.6535C76.6316 77.6535 76.7338 77.6471 76.8136 77.6344C76.8933 77.6184 76.9572 77.6057 77.005 77.5962L77.2347 78.609C77.1582 78.6377 77.0513 78.6664 76.914 78.695C76.7769 78.7268 76.6029 78.7427 76.3924 78.7427C76.0734 78.7427 75.7606 78.6743 75.4544 78.5373C75.1513 78.4004 74.8993 78.1918 74.6982 77.9115C74.5005 77.6312 74.4016 77.2777 74.4016 76.8509V69.5508ZM81.8027 78.8001C81.0944 78.8001 80.4834 78.644 79.9697 78.3319C79.4593 78.0166 79.0652 77.577 78.7877 77.0133C78.5133 76.4463 78.3761 75.7871 78.3761 75.0354C78.3761 74.2837 78.5133 73.6213 78.7877 73.048C79.0652 72.4715 79.4513 72.0224 79.9459 71.7007C80.4436 71.3758 81.0242 71.2134 81.6879 71.2134C82.0708 71.2134 82.4488 71.2771 82.8222 71.4045C83.1954 71.5319 83.5352 71.739 83.8415 72.0256C84.1477 72.3091 84.3919 72.6848 84.5737 73.153C84.7555 73.6213 84.8465 74.1977 84.8465 74.8825V75.3603H79.1801V74.3857H83.6979C83.6979 73.9716 83.615 73.6022 83.449 73.2773C83.2864 72.9525 83.0534 72.696 82.7503 72.5081C82.4504 72.3202 82.0963 72.2262 81.6879 72.2262C81.238 72.2262 80.8487 72.3377 80.5201 72.5607C80.1947 72.7805 79.9442 73.067 79.7687 73.4206C79.5933 73.7742 79.5055 74.1531 79.5055 74.5577V75.2074C79.5055 75.7616 79.6013 76.2314 79.7927 76.6168C79.9874 76.999 80.2569 77.2904 80.6015 77.491C80.9461 77.6885 81.3464 77.7872 81.8027 77.7872C82.0995 77.7872 82.3675 77.7458 82.6067 77.663C82.8492 77.577 83.0582 77.4497 83.2337 77.2809C83.4091 77.1089 83.5447 76.8955 83.6405 76.6407L84.7316 76.9464C84.6167 77.3158 84.4237 77.6408 84.1525 77.921C83.8813 78.1981 83.5464 78.4147 83.1476 78.5707C82.7488 78.7237 82.3005 78.8001 81.8027 78.8001ZM91.0824 81.3991C90.8909 81.3991 90.7203 81.3831 90.5703 81.3513C90.4204 81.3226 90.3167 81.2939 90.2593 81.2653L90.5464 80.2716C90.8207 80.3416 91.0632 80.3671 91.2739 80.3481C91.4844 80.3289 91.671 80.2349 91.8338 80.0662C91.9996 79.9005 92.1512 79.6314 92.2883 79.2587L92.499 78.6854L89.7806 71.309H91.0058L93.035 77.1567H93.1116L95.1408 71.309H96.3659L93.2455 79.7174C93.1051 80.0964 92.9313 80.4101 92.7238 80.6585C92.5165 80.9102 92.2756 81.0965 92.0013 81.2176C91.7301 81.3385 91.4238 81.3991 91.0824 81.3991ZM100.58 78.8001C99.9161 78.8001 99.3339 78.6425 98.833 78.3271C98.3353 78.0118 97.946 77.5706 97.6653 77.0037C97.3876 76.4368 97.2488 75.7744 97.2488 75.0163C97.2488 74.2519 97.3876 73.5847 97.6653 73.0146C97.946 72.4444 98.3353 72.0017 98.833 71.6864C99.3339 71.3711 99.9161 71.2134 100.58 71.2134C101.243 71.2134 101.824 71.3711 102.322 71.6864C102.823 72.0017 103.212 72.4444 103.49 73.0146C103.77 73.5847 103.91 74.2519 103.91 75.0163C103.91 75.7744 103.77 76.4368 103.49 77.0037C103.212 77.5706 102.823 78.0118 102.322 78.3271C101.824 78.6425 101.243 78.8001 100.58 78.8001ZM100.58 77.7872C101.084 77.7872 101.499 77.6583 101.824 77.4003C102.15 77.1423 102.39 76.8031 102.547 76.3827C102.703 75.9622 102.781 75.5068 102.781 75.0163C102.781 74.5258 102.703 74.0688 102.547 73.6451C102.39 73.2215 102.15 72.8792 101.824 72.618C101.499 72.3568 101.084 72.2262 100.58 72.2262C100.076 72.2262 99.6609 72.3568 99.3354 72.618C99.01 72.8792 98.7691 73.2215 98.6128 73.6451C98.4565 74.0688 98.3783 74.5258 98.3783 75.0163C98.3783 75.5068 98.4565 75.9622 98.6128 76.3827C98.7691 76.8031 99.01 77.1423 99.3354 77.4003C99.6609 77.6583 100.076 77.7872 100.58 77.7872ZM110.267 75.6469V71.309H111.397V78.6472H110.267V77.405H110.19C110.018 77.7777 109.751 78.0946 109.387 78.3558C109.023 78.6138 108.564 78.7427 108.008 78.7427C107.549 78.7427 107.14 78.6425 106.784 78.4418C106.426 78.2379 106.145 77.9322 105.941 77.5245C105.737 77.1136 105.635 76.5961 105.635 75.9718V71.309H106.764V75.8954C106.764 76.4304 106.914 76.8573 107.214 77.1757C107.517 77.4943 107.903 77.6535 108.372 77.6535C108.653 77.6535 108.938 77.5818 109.229 77.4385C109.523 77.2951 109.768 77.0754 109.965 76.7793C110.167 76.483 110.267 76.1055 110.267 75.6469ZM113.465 78.6472V71.309H114.557V72.4173H114.634C114.767 72.0543 115.01 71.7597 115.36 71.5335C115.712 71.3073 116.108 71.1943 116.547 71.1943C116.63 71.1943 116.734 71.1959 116.858 71.1991C116.983 71.2023 117.077 71.207 117.141 71.2134V72.36C117.103 72.3505 117.015 72.3361 116.878 72.317C116.744 72.2947 116.602 72.2835 116.452 72.2835C116.094 72.2835 115.775 72.3584 115.495 72.5081C115.217 72.6546 114.997 72.8585 114.835 73.1196C114.675 73.3776 114.595 73.6722 114.595 74.0035V78.6472H113.465ZM124.433 78.8192C123.968 78.8192 123.545 78.7317 123.165 78.5565C122.785 78.378 122.484 78.1217 122.26 77.7872C122.037 77.4497 121.926 77.042 121.926 76.5642C121.926 76.1438 122.008 75.8031 122.174 75.5418C122.34 75.2774 122.562 75.0705 122.84 74.9207C123.118 74.7711 123.424 74.6596 123.758 74.5863C124.096 74.5099 124.436 74.4493 124.777 74.4048C125.224 74.3475 125.587 74.3044 125.864 74.2758C126.145 74.2439 126.349 74.1914 126.477 74.1182C126.607 74.0449 126.673 73.9175 126.673 73.736V73.6977C126.673 73.2263 126.544 72.8601 126.286 72.5988C126.03 72.3377 125.643 72.2071 125.123 72.2071C124.584 72.2071 124.161 72.325 123.854 72.5607C123.548 72.7963 123.332 73.048 123.208 73.3155L122.136 72.9333C122.328 72.4874 122.583 72.1403 122.902 71.8918C123.224 71.6402 123.575 71.465 123.954 71.3663C124.338 71.2644 124.714 71.2134 125.084 71.2134C125.321 71.2134 125.591 71.2421 125.898 71.2994C126.207 71.3536 126.506 71.4666 126.793 71.6386C127.083 71.8106 127.323 72.0701 127.515 72.4173C127.707 72.7645 127.802 73.2295 127.802 73.8124V78.6472H126.673V77.6535H126.615C126.539 77.8127 126.411 77.9831 126.233 78.1647C126.055 78.3463 125.816 78.5007 125.52 78.6281C125.223 78.7555 124.86 78.8192 124.433 78.8192ZM124.605 77.8064C125.052 77.8064 125.428 77.7188 125.735 77.5436C126.044 77.3684 126.277 77.1423 126.434 76.8652C126.594 76.5881 126.673 76.2967 126.673 75.9909V74.959C126.625 75.0163 126.52 75.0689 126.357 75.1166C126.198 75.1612 126.013 75.2011 125.802 75.236C125.594 75.2679 125.392 75.2966 125.194 75.322C124.999 75.3444 124.842 75.3634 124.72 75.3794C124.427 75.4177 124.152 75.4798 123.897 75.5658C123.645 75.6485 123.441 75.7744 123.285 75.9432C123.131 76.1088 123.056 76.3349 123.056 76.6215C123.056 77.0133 123.201 77.3095 123.491 77.5102C123.784 77.7077 124.155 77.8064 124.605 77.8064ZM132.85 78.8001C132.162 78.8001 131.568 78.6377 131.07 78.3127C130.572 77.9879 130.19 77.5404 129.921 76.9703C129.653 76.4002 129.519 75.7488 129.519 75.0163C129.519 74.271 129.657 73.6133 129.931 73.0432C130.209 72.4699 130.594 72.0224 131.089 71.7007C131.587 71.3758 132.168 71.2134 132.831 71.2134C133.348 71.2134 133.814 71.309 134.229 71.5C134.643 71.6911 134.983 71.9587 135.248 72.3027C135.513 72.6467 135.677 73.048 135.741 73.5066H134.611C134.525 73.1722 134.333 72.876 134.037 72.618C133.744 72.3568 133.348 72.2262 132.85 72.2262C132.41 72.2262 132.024 72.3408 131.692 72.5702C131.363 72.7963 131.106 73.1165 130.922 73.5304C130.739 73.9414 130.649 74.4239 130.649 74.978C130.649 75.5451 130.738 76.0387 130.917 76.4591C131.099 76.8795 131.354 77.206 131.683 77.4385C132.014 77.671 132.403 77.7872 132.85 77.7872C133.143 77.7872 133.41 77.7363 133.649 77.6344C133.889 77.5324 134.092 77.3859 134.258 77.1949C134.424 77.0037 134.541 76.7744 134.611 76.5069H135.741C135.677 76.9401 135.519 77.3302 135.268 77.6773C135.019 78.0213 134.688 78.2953 134.276 78.4991C133.868 78.6998 133.393 78.8001 132.85 78.8001ZM140.378 78.8001C139.689 78.8001 139.096 78.6377 138.598 78.3127C138.101 77.9879 137.717 77.5404 137.45 76.9703C137.181 76.4002 137.048 75.7488 137.048 75.0163C137.048 74.271 137.184 73.6133 137.459 73.0432C137.737 72.4699 138.123 72.0224 138.617 71.7007C139.115 71.3758 139.695 71.2134 140.36 71.2134C140.876 71.2134 141.341 71.309 141.757 71.5C142.172 71.6911 142.511 71.9587 142.776 72.3027C143.041 72.6467 143.205 73.048 143.269 73.5066H142.14C142.054 73.1722 141.862 72.876 141.565 72.618C141.272 72.3568 140.876 72.2262 140.378 72.2262C139.938 72.2262 139.552 72.3408 139.22 72.5702C138.892 72.7963 138.635 73.1165 138.45 73.5304C138.268 73.9414 138.176 74.4239 138.176 74.978C138.176 75.5451 138.267 76.0387 138.445 76.4591C138.626 76.8795 138.882 77.206 139.211 77.4385C139.543 77.671 139.932 77.7872 140.378 77.7872C140.672 77.7872 140.938 77.7363 141.178 77.6344C141.417 77.5324 141.619 77.3859 141.785 77.1949C141.951 77.0037 142.069 76.7744 142.14 76.5069H143.269C143.205 76.9401 143.047 77.3302 142.795 77.6773C142.546 78.0213 142.216 78.2953 141.805 78.4991C141.396 78.6998 140.921 78.8001 140.378 78.8001ZM147.907 78.8001C147.243 78.8001 146.661 78.6425 146.16 78.3271C145.662 78.0118 145.272 77.5706 144.992 77.0037C144.715 76.4368 144.576 75.7744 144.576 75.0163C144.576 74.2519 144.715 73.5847 144.992 73.0146C145.272 72.4444 145.662 72.0017 146.16 71.6864C146.661 71.3711 147.243 71.2134 147.907 71.2134C148.57 71.2134 149.151 71.3711 149.648 71.6864C150.149 72.0017 150.539 72.4444 150.817 73.0146C151.097 73.5847 151.237 74.2519 151.237 75.0163C151.237 75.7744 151.097 76.4368 150.817 77.0037C150.539 77.5706 150.149 78.0118 149.648 78.3271C149.151 78.6425 148.57 78.8001 147.907 78.8001ZM147.907 77.7872C148.41 77.7872 148.825 77.6583 149.151 77.4003C149.476 77.1423 149.717 76.8031 149.873 76.3827C150.03 75.9622 150.108 75.5068 150.108 75.0163C150.108 74.5258 150.03 74.0688 149.873 73.6451C149.717 73.2215 149.476 72.8792 149.151 72.618C148.825 72.3568 148.41 72.2262 147.907 72.2262C147.402 72.2262 146.987 72.3568 146.662 72.618C146.337 72.8792 146.096 73.2215 145.939 73.6451C145.784 74.0688 145.705 74.5258 145.705 75.0163C145.705 75.5068 145.784 75.9622 145.939 76.3827C146.096 76.8031 146.337 77.1423 146.662 77.4003C146.987 77.6583 147.402 77.7872 147.907 77.7872ZM157.594 75.6469V71.309H158.723V78.6472H157.594V77.405H157.518C157.346 77.7777 157.077 78.0946 156.713 78.3558C156.349 78.6138 155.89 78.7427 155.335 78.7427C154.875 78.7427 154.468 78.6425 154.11 78.4418C153.752 78.2379 153.472 77.9322 153.267 77.5245C153.063 77.1136 152.961 76.5961 152.961 75.9718V71.309H154.09V75.8954C154.09 76.4304 154.241 76.8573 154.54 77.1757C154.844 77.4943 155.23 77.6535 155.699 77.6535C155.979 77.6535 156.265 77.5818 156.556 77.4385C156.849 77.2951 157.095 77.0754 157.293 76.7793C157.494 76.483 157.594 76.1055 157.594 75.6469ZM161.921 74.2328V78.6472H160.793V71.309H161.883V72.4555H161.978C162.152 72.083 162.413 71.7836 162.764 71.5573C163.115 71.3281 163.568 71.2134 164.123 71.2134C164.621 71.2134 165.056 71.3153 165.43 71.5191C165.803 71.7198 166.093 72.0256 166.3 72.4365C166.508 72.8441 166.611 73.3601 166.611 73.9843V78.6472H165.482V74.0608C165.482 73.4843 165.332 73.0353 165.033 72.7135C164.733 72.3887 164.32 72.2262 163.798 72.2262C163.437 72.2262 163.115 72.3043 162.831 72.4604C162.55 72.6164 162.328 72.8441 162.166 73.1435C162.003 73.4429 161.921 73.806 161.921 74.2328ZM171.873 71.309V72.2645H168.063V71.309H171.873ZM169.173 69.5508H170.303V76.5451C170.303 76.8636 170.349 77.1025 170.442 77.2617C170.537 77.4178 170.659 77.5229 170.805 77.577C170.955 77.628 171.113 77.6535 171.278 77.6535C171.403 77.6535 171.506 77.6471 171.585 77.6344C171.665 77.6184 171.728 77.6057 171.777 77.5962L172.006 78.609C171.93 78.6377 171.823 78.6664 171.686 78.695C171.549 78.7268 171.375 78.7427 171.164 78.7427C170.845 78.7427 170.532 78.6743 170.226 78.5373C169.923 78.4004 169.671 78.1918 169.47 77.9115C169.273 77.6312 169.173 77.2777 169.173 76.8509V69.5508ZM179.525 78.8192C179.059 78.8192 178.637 78.7317 178.256 78.5565C177.877 78.378 177.575 78.1217 177.352 77.7872C177.128 77.4497 177.018 77.042 177.018 76.5642C177.018 76.1438 177.1 75.8031 177.266 75.5418C177.432 75.2774 177.654 75.0705 177.931 74.9207C178.209 74.7711 178.516 74.6596 178.85 74.5863C179.188 74.5099 179.528 74.4493 179.869 74.4048C180.316 74.3475 180.678 74.3044 180.956 74.2758C181.237 74.2439 181.441 74.1914 181.569 74.1182C181.699 74.0449 181.764 73.9175 181.764 73.736V73.6977C181.764 73.2263 181.636 72.8601 181.377 72.5988C181.122 72.3377 180.734 72.2071 180.214 72.2071C179.675 72.2071 179.253 72.325 178.946 72.5607C178.64 72.7963 178.424 73.048 178.3 73.3155L177.228 72.9333C177.419 72.4874 177.675 72.1403 177.993 71.8918C178.315 71.6402 178.667 71.465 179.046 71.3663C179.429 71.2644 179.805 71.2134 180.175 71.2134C180.412 71.2134 180.683 71.2421 180.989 71.2994C181.299 71.3536 181.598 71.4666 181.885 71.6386C182.175 71.8106 182.415 72.0701 182.607 72.4173C182.798 72.7645 182.894 73.2295 182.894 73.8124V78.6472H181.764V77.6535H181.707C181.631 77.8127 181.503 77.9831 181.324 78.1647C181.146 78.3463 180.908 78.5007 180.612 78.6281C180.314 78.7555 179.952 78.8192 179.525 78.8192ZM179.697 77.8064C180.144 77.8064 180.52 77.7188 180.826 77.5436C181.136 77.3684 181.369 77.1423 181.525 76.8652C181.685 76.5881 181.764 76.2967 181.764 75.9909V74.959C181.717 75.0163 181.611 75.0689 181.448 75.1166C181.29 75.1612 181.104 75.2011 180.894 75.236C180.686 75.2679 180.483 75.2966 180.286 75.322C180.091 75.3444 179.934 75.3634 179.812 75.3794C179.518 75.4177 179.244 75.4798 178.989 75.5658C178.736 75.6485 178.533 75.7744 178.377 75.9432C178.223 76.1088 178.146 76.3349 178.146 76.6215C178.146 77.0133 178.292 77.3095 178.582 77.5102C178.875 77.7077 179.247 77.8064 179.697 77.8064ZM186.085 74.2328V78.6472H184.955V71.309H186.047V72.4555H186.142C186.314 72.083 186.577 71.7836 186.927 71.5573C187.279 71.3281 187.732 71.2134 188.286 71.2134C188.784 71.2134 189.219 71.3153 189.593 71.5191C189.967 71.7198 190.257 72.0256 190.464 72.4365C190.672 72.8441 190.775 73.3601 190.775 73.9843V78.6472H189.645V74.0608C189.645 73.4843 189.496 73.0353 189.195 72.7135C188.896 72.3887 188.484 72.2262 187.961 72.2262C187.601 72.2262 187.279 72.3043 186.994 72.4604C186.714 72.6164 186.492 72.8441 186.329 73.1435C186.166 73.4429 186.085 73.806 186.085 74.2328ZM195.614 78.8001C195.002 78.8001 194.462 78.6457 193.992 78.3367C193.523 78.0245 193.156 77.585 192.891 77.0181C192.627 76.448 192.494 75.7744 192.494 74.9972C192.494 74.2264 192.627 73.5576 192.891 72.9906C193.156 72.4237 193.524 71.9858 193.997 71.6769C194.469 71.3678 195.015 71.2134 195.634 71.2134C196.112 71.2134 196.49 71.293 196.768 71.4523C197.049 71.6084 197.263 71.7867 197.409 71.9873C197.559 72.1848 197.675 72.3473 197.758 72.4747H197.855V68.8628H198.984V78.6472H197.893V77.5197H197.758C197.675 77.6535 197.558 77.8223 197.405 78.0262C197.251 78.2268 197.033 78.4067 196.749 78.566C196.464 78.722 196.087 78.8001 195.614 78.8001ZM195.768 77.7872C196.221 77.7872 196.603 77.6695 196.917 77.4337C197.23 77.1949 197.467 76.8651 197.63 76.4448C197.792 76.0212 197.873 75.5323 197.873 74.978C197.873 74.4303 197.794 73.9509 197.634 73.5401C197.475 73.126 197.239 72.8043 196.926 72.575C196.614 72.3425 196.227 72.2262 195.768 72.2262C195.289 72.2262 194.891 72.3488 194.572 72.5941C194.255 72.8361 194.018 73.1659 193.858 73.583C193.702 73.9971 193.624 74.4622 193.624 74.978C193.624 75.5005 193.704 75.9749 193.863 76.4017C194.026 76.8254 194.265 77.163 194.581 77.4146C194.9 77.663 195.295 77.7872 195.768 77.7872ZM204.999 78.6472V71.309H206.091V72.4173H206.168C206.302 72.0543 206.544 71.7597 206.895 71.5335C207.246 71.3073 207.641 71.1943 208.081 71.1943C208.164 71.1943 208.268 71.1959 208.393 71.1991C208.517 71.2023 208.611 71.207 208.675 71.2134V72.36C208.637 72.3505 208.549 72.3361 208.412 72.317C208.277 72.2947 208.135 72.2835 207.986 72.2835C207.628 72.2835 207.309 72.3584 207.029 72.5081C206.751 72.6546 206.531 72.8585 206.368 73.1196C206.209 73.3776 206.129 73.6722 206.129 74.0035V78.6472H204.999ZM212.872 78.8001C212.164 78.8001 211.553 78.644 211.039 78.3319C210.529 78.0166 210.135 77.577 209.857 77.0133C209.583 76.4463 209.446 75.7871 209.446 75.0354C209.446 74.2837 209.583 73.6213 209.857 73.048C210.135 72.4715 210.521 72.0224 211.015 71.7007C211.513 71.3758 212.093 71.2134 212.757 71.2134C213.14 71.2134 213.518 71.2771 213.892 71.4045C214.265 71.5319 214.604 71.739 214.911 72.0256C215.217 72.3091 215.462 72.6848 215.643 73.153C215.825 73.6213 215.916 74.1977 215.916 74.8825V75.3603H210.249V74.3857H214.767C214.767 73.9716 214.684 73.6022 214.518 73.2773C214.355 72.9525 214.123 72.696 213.819 72.5081C213.52 72.3202 213.165 72.2262 212.757 72.2262C212.308 72.2262 211.918 72.3377 211.59 72.5607C211.264 72.7805 211.014 73.067 210.838 73.4206C210.663 73.7742 210.575 74.1531 210.575 74.5577V75.2074C210.575 75.7616 210.671 76.2314 210.862 76.6168C211.057 76.999 211.326 77.2904 211.672 77.491C212.016 77.6885 212.416 77.7872 212.872 77.7872C213.168 77.7872 213.437 77.7458 213.676 77.663C213.919 77.577 214.127 77.4497 214.304 77.2809C214.479 77.1089 214.615 76.8955 214.71 76.6407L215.802 76.9464C215.687 77.3158 215.494 77.6408 215.222 77.921C214.95 78.1981 214.616 78.4147 214.217 78.5707C213.818 78.7237 213.37 78.8001 212.872 78.8001ZM217.634 78.6472V71.309H218.725V72.4555H218.821C218.974 72.0638 219.222 71.7597 219.563 71.5431C219.904 71.3232 220.314 71.2134 220.793 71.2134C221.277 71.2134 221.682 71.3232 222.004 71.5431C222.328 71.7597 222.582 72.0638 222.765 72.4555H222.841C223.029 72.0765 223.311 71.7756 223.689 71.5526C224.065 71.3265 224.516 71.2134 225.043 71.2134C225.7 71.2134 226.238 71.4189 226.656 71.8297C227.073 72.2374 227.282 72.8728 227.282 73.736V78.6472H226.153V73.736C226.153 73.1945 226.005 72.8075 225.708 72.575C225.411 72.3425 225.061 72.2262 224.66 72.2262C224.143 72.2262 223.743 72.3823 223.458 72.6945C223.174 73.0034 223.032 73.3951 223.032 73.8697V78.6472H221.884V73.6213C221.884 73.204 221.748 72.868 221.477 72.6132C221.206 72.3552 220.856 72.2262 220.429 72.2262C220.136 72.2262 219.861 72.3043 219.606 72.4604C219.354 72.6164 219.15 72.8329 218.994 73.1101C218.84 73.384 218.763 73.7009 218.763 74.0608V78.6472H217.634ZM232.333 78.8001C231.67 78.8001 231.087 78.6425 230.587 78.3271C230.089 78.0118 229.7 77.5706 229.419 77.0037C229.142 76.4368 229.003 75.7744 229.003 75.0163C229.003 74.2519 229.142 73.5847 229.419 73.0146C229.7 72.4444 230.089 72.0017 230.587 71.6864C231.087 71.3711 231.67 71.2134 232.333 71.2134C232.997 71.2134 233.577 71.3711 234.076 71.6864C234.577 72.0017 234.966 72.4444 235.243 73.0146C235.524 73.5847 235.664 74.2519 235.664 75.0163C235.664 75.7744 235.524 76.4368 235.243 77.0037C234.966 77.5706 234.577 78.0118 234.076 78.3271C233.577 78.6425 232.997 78.8001 232.333 78.8001ZM232.333 77.7872C232.837 77.7872 233.253 77.6583 233.577 77.4003C233.903 77.1423 234.145 76.8031 234.301 76.3827C234.457 75.9622 234.535 75.5068 234.535 75.0163C234.535 74.5258 234.457 74.0688 234.301 73.6451C234.145 73.2215 233.903 72.8792 233.577 72.618C233.253 72.3568 232.837 72.2262 232.333 72.2262C231.83 72.2262 231.415 72.3568 231.089 72.618C230.764 72.8792 230.523 73.2215 230.367 73.6451C230.21 74.0688 230.133 74.5258 230.133 75.0163C230.133 75.5068 230.21 75.9622 230.367 76.3827C230.523 76.8031 230.764 77.1423 231.089 77.4003C231.415 77.6583 231.83 77.7872 232.333 77.7872ZM243.137 71.309L240.418 78.6472H239.27L236.551 71.309H237.776L239.806 77.1567H239.883L241.911 71.309H243.137ZM247.446 78.8001C246.738 78.8001 246.126 78.644 245.613 78.3319C245.102 78.0166 244.708 77.577 244.43 77.0133C244.157 76.4463 244.019 75.7871 244.019 75.0354C244.019 74.2837 244.157 73.6213 244.43 73.048C244.708 72.4715 245.095 72.0224 245.589 71.7007C246.087 71.3758 246.668 71.2134 247.331 71.2134C247.714 71.2134 248.092 71.2771 248.465 71.4045C248.838 71.5319 249.178 71.739 249.484 72.0256C249.791 72.3091 250.035 72.6848 250.217 73.153C250.399 73.6213 250.49 74.1977 250.49 74.8825V75.3603H244.823V74.3857H249.341C249.341 73.9716 249.258 73.6022 249.092 73.2773C248.93 72.9525 248.696 72.696 248.394 72.5081C248.094 72.3202 247.739 72.2262 247.331 72.2262C246.881 72.2262 246.492 72.3377 246.164 72.5607C245.838 72.7805 245.587 73.067 245.412 73.4206C245.237 73.7742 245.149 74.1531 245.149 74.5577V75.2074C245.149 75.7616 245.244 76.2314 245.436 76.6168C245.631 76.999 245.9 77.2904 246.245 77.491C246.59 77.6885 246.99 77.7872 247.446 77.7872C247.743 77.7872 248.011 77.7458 248.25 77.663C248.492 77.577 248.702 77.4497 248.877 77.2809C249.052 77.1089 249.188 76.8955 249.284 76.6407L250.375 76.9464C250.26 77.3158 250.067 77.6408 249.796 77.921C249.525 78.1981 249.19 78.4147 248.791 78.5707C248.392 78.7237 247.944 78.8001 247.446 78.8001ZM256.725 81.3991C256.535 81.3991 256.364 81.3831 256.213 81.3513C256.064 81.3226 255.96 81.2939 255.902 81.2653L256.189 80.2716C256.464 80.3416 256.707 80.3671 256.917 80.3481C257.128 80.3289 257.314 80.2349 257.477 80.0662C257.643 79.9005 257.794 79.6314 257.932 79.2587L258.143 78.6854L255.424 71.309H256.649L258.678 77.1567H258.755L260.784 71.309H262.009L258.889 79.7174C258.748 80.0964 258.575 80.4101 258.367 80.6585C258.16 80.9102 257.919 81.0965 257.645 81.2176C257.373 81.3385 257.067 81.3991 256.725 81.3991ZM266.223 78.8001C265.559 78.8001 264.977 78.6425 264.477 78.3271C263.978 78.0118 263.589 77.5706 263.308 77.0037C263.03 76.4368 262.893 75.7744 262.893 75.0163C262.893 74.2519 263.03 73.5847 263.308 73.0146C263.589 72.4444 263.978 72.0017 264.477 71.6864C264.977 71.3711 265.559 71.2134 266.223 71.2134C266.887 71.2134 267.467 71.3711 267.965 71.6864C268.466 72.0017 268.855 72.4444 269.132 73.0146C269.413 73.5847 269.554 74.2519 269.554 75.0163C269.554 75.7744 269.413 76.4368 269.132 77.0037C268.855 77.5706 268.466 78.0118 267.965 78.3271C267.467 78.6425 266.887 78.8001 266.223 78.8001ZM266.223 77.7872C266.727 77.7872 267.142 77.6583 267.467 77.4003C267.793 77.1423 268.033 76.8031 268.19 76.3827C268.346 75.9622 268.424 75.5068 268.424 75.0163C268.424 74.5258 268.346 74.0688 268.19 73.6451C268.033 73.2215 267.793 72.8792 267.467 72.618C267.142 72.3568 266.727 72.2262 266.223 72.2262C265.719 72.2262 265.304 72.3568 264.978 72.618C264.653 72.8792 264.412 73.2215 264.256 73.6451C264.099 74.0688 264.021 74.5258 264.021 75.0163C264.021 75.5068 264.099 75.9622 264.256 76.3827C264.412 76.8031 264.653 77.1423 264.978 77.4003C265.304 77.6583 265.719 77.7872 266.223 77.7872ZM275.911 75.6469V71.309H277.04V78.6472H275.911V77.405H275.834C275.661 77.7777 275.394 78.0946 275.03 78.3558C274.666 78.6138 274.207 78.7427 273.652 78.7427C273.192 78.7427 272.783 78.6425 272.427 78.4418C272.069 78.2379 271.788 77.9322 271.584 77.5245C271.38 77.1136 271.278 76.5961 271.278 75.9718V71.309H272.407V75.8954C272.407 76.4304 272.557 76.8573 272.857 77.1757C273.161 77.4943 273.546 77.6535 274.015 77.6535C274.296 77.6535 274.582 77.5818 274.872 77.4385C275.166 77.2951 275.411 77.0754 275.609 76.7793C275.811 76.483 275.911 76.1055 275.911 75.6469ZM279.108 78.6472V71.309H280.2V72.4173H280.277C280.41 72.0543 280.653 71.7597 281.004 71.5335C281.355 71.3073 281.751 71.1943 282.19 71.1943C282.273 71.1943 282.378 71.1959 282.502 71.1991C282.627 71.2023 282.72 71.207 282.784 71.2134V72.36C282.746 72.3505 282.658 72.3361 282.521 72.317C282.387 72.2947 282.245 72.2835 282.095 72.2835C281.737 72.2835 281.419 72.3584 281.138 72.5081C280.86 72.6546 280.64 72.8585 280.478 73.1196C280.318 73.3776 280.238 73.6722 280.238 74.0035V78.6472H279.108ZM290.689 78.8001C290.076 78.8001 289.536 78.6457 289.067 78.3367C288.598 78.0245 288.231 77.585 287.966 77.0181C287.701 76.448 287.569 75.7744 287.569 74.9972C287.569 74.2264 287.701 73.5576 287.966 72.9906C288.231 72.4237 288.599 71.9858 289.072 71.6769C289.543 71.3678 290.09 71.2134 290.709 71.2134C291.187 71.2134 291.565 71.293 291.843 71.4523C292.124 71.6084 292.337 71.7867 292.483 71.9873C292.634 72.1848 292.75 72.3473 292.833 72.4747H292.929V68.8628H294.058V78.6472H292.968V77.5197H292.833C292.75 77.6535 292.632 77.8223 292.479 78.0262C292.326 78.2268 292.107 78.4067 291.823 78.566C291.539 78.722 291.162 78.8001 290.689 78.8001ZM290.842 77.7872C291.295 77.7872 291.678 77.6695 291.991 77.4337C292.303 77.1949 292.541 76.8651 292.704 76.4448C292.867 76.0212 292.948 75.5323 292.948 74.978C292.948 74.4303 292.868 73.9509 292.708 73.5401C292.549 73.126 292.313 72.8043 292 72.575C291.687 72.3425 291.302 72.2262 290.842 72.2262C290.363 72.2262 289.965 72.3488 289.646 72.5941C289.33 72.8361 289.092 73.1659 288.933 73.583C288.776 73.9971 288.698 74.4622 288.698 74.978C288.698 75.5005 288.778 75.9749 288.938 76.4017C289.101 76.8254 289.339 77.163 289.655 77.4146C289.975 77.663 290.37 77.7872 290.842 77.7872ZM298.446 78.8192C297.981 78.8192 297.558 78.7317 297.179 78.5565C296.799 78.378 296.497 78.1217 296.275 77.7872C296.051 77.4497 295.939 77.042 295.939 76.5642C295.939 76.1438 296.022 75.8031 296.188 75.5418C296.354 75.2774 296.575 75.0705 296.853 74.9207C297.131 74.7711 297.437 74.6596 297.773 74.5863C298.11 74.5099 298.45 74.4493 298.792 74.4048C299.238 74.3475 299.6 74.3044 299.878 74.2758C300.159 74.2439 300.363 74.1914 300.491 74.1182C300.621 74.0449 300.687 73.9175 300.687 73.736V73.6977C300.687 73.2263 300.557 72.8601 300.299 72.5988C300.044 72.3377 299.656 72.2071 299.136 72.2071C298.597 72.2071 298.174 72.325 297.868 72.5607C297.561 72.7963 297.346 73.048 297.222 73.3155L296.15 72.9333C296.341 72.4874 296.596 72.1403 296.915 71.8918C297.238 71.6402 297.589 71.465 297.968 71.3663C298.351 71.2644 298.727 71.2134 299.097 71.2134C299.334 71.2134 299.605 71.2421 299.911 71.2994C300.221 71.3536 300.519 71.4666 300.806 71.6386C301.096 71.8106 301.338 72.0701 301.529 72.4173C301.72 72.7645 301.816 73.2295 301.816 73.8124V78.6472H300.687V77.6535H300.63C300.553 77.8127 300.425 77.9831 300.246 78.1647C300.068 78.3463 299.83 78.5007 299.533 78.6281C299.236 78.7555 298.874 78.8192 298.446 78.8192ZM298.619 77.8064C299.066 77.8064 299.443 77.7188 299.748 77.5436C300.058 77.3684 300.291 77.1423 300.447 76.8652C300.607 76.5881 300.687 76.2967 300.687 75.9909V74.959C300.639 75.0163 300.533 75.0689 300.37 75.1166C300.211 75.1612 300.026 75.2011 299.816 75.236C299.608 75.2679 299.405 75.2966 299.208 75.322C299.013 75.3444 298.855 75.3634 298.734 75.3794C298.44 75.4177 298.166 75.4798 297.91 75.5658C297.658 75.6485 297.454 75.7744 297.299 75.9432C297.145 76.1088 297.069 76.3349 297.069 76.6215C297.069 77.0133 297.214 77.3095 297.504 77.5102C297.797 77.7077 298.17 77.8064 298.619 77.8064ZM307.075 71.309V72.2645H303.265V71.309H307.075ZM304.375 69.5508H305.505V76.5451C305.505 76.8636 305.551 77.1025 305.644 77.2617C305.739 77.4178 305.861 77.5229 306.007 77.577C306.157 77.628 306.315 77.6535 306.481 77.6535C306.605 77.6535 306.708 77.6471 306.787 77.6344C306.867 77.6184 306.93 77.6057 306.979 77.5962L307.208 78.609C307.132 78.6377 307.025 78.6664 306.888 78.695C306.75 78.7268 306.577 78.7427 306.367 78.7427C306.047 78.7427 305.734 78.6743 305.428 78.5373C305.125 78.4004 304.873 78.1918 304.672 77.9115C304.475 77.6312 304.375 77.2777 304.375 76.8509V69.5508ZM310.936 78.8192C310.471 78.8192 310.048 78.7317 309.668 78.5565C309.289 78.378 308.987 78.1217 308.763 77.7872C308.54 77.4497 308.428 77.042 308.428 76.5642C308.428 76.1438 308.511 75.8031 308.677 75.5418C308.843 75.2774 309.065 75.0705 309.343 74.9207C309.621 74.7711 309.926 74.6596 310.261 74.5863C310.6 74.5099 310.939 74.4493 311.281 74.4048C311.728 74.3475 312.09 74.3044 312.368 74.2758C312.649 74.2439 312.852 74.1914 312.981 74.1182C313.111 74.0449 313.176 73.9175 313.176 73.736V73.6977C313.176 73.2263 313.047 72.8601 312.789 72.5988C312.534 72.3377 312.146 72.2071 311.626 72.2071C311.087 72.2071 310.664 72.325 310.358 72.5607C310.051 72.7963 309.836 73.048 309.712 73.3155L308.639 72.9333C308.831 72.4874 309.086 72.1403 309.405 71.8918C309.727 71.6402 310.078 71.465 310.458 71.3663C310.841 71.2644 311.217 71.2134 311.587 71.2134C311.824 71.2134 312.095 71.2421 312.401 71.2994C312.711 71.3536 313.009 71.4666 313.296 71.6386C313.586 71.8106 313.827 72.0701 314.018 72.4173C314.21 72.7645 314.305 73.2295 314.305 73.8124V78.6472H313.176V77.6535H313.118C313.043 77.8127 312.914 77.9831 312.736 78.1647C312.558 78.3463 312.32 78.5007 312.023 78.6281C311.726 78.7555 311.364 78.8192 310.936 78.8192ZM311.109 77.8064C311.555 77.8064 311.932 77.7188 312.238 77.5436C312.548 77.3684 312.78 77.1423 312.937 76.8652C313.097 76.5881 313.176 76.2967 313.176 75.9909V74.959C313.129 75.0163 313.023 75.0689 312.86 75.1166C312.701 75.1612 312.516 75.2011 312.306 75.236C312.098 75.2679 311.895 75.2966 311.697 75.322C311.503 75.3444 311.345 75.3634 311.223 75.3794C310.93 75.4177 310.656 75.4798 310.4 75.5658C310.148 75.6485 309.944 75.7744 309.788 75.9432C309.635 76.1088 309.558 76.3349 309.558 76.6215C309.558 77.0133 309.704 77.3095 309.994 77.5102C310.287 77.7077 310.659 77.8064 311.109 77.8064ZM323.431 71.309V72.2645H319.468V71.309H323.431ZM320.655 78.6472V70.2961C320.655 69.8756 320.755 69.5253 320.952 69.2451C321.15 68.9647 321.407 68.7546 321.723 68.6144C322.038 68.4743 322.372 68.4042 322.723 68.4042C323 68.4042 323.227 68.4265 323.402 68.4711C323.577 68.5157 323.709 68.5571 323.795 68.5953L323.47 69.5699C323.412 69.5508 323.332 69.5269 323.23 69.4982C323.132 69.4696 323 69.4553 322.837 69.4553C322.464 69.4553 322.194 69.5492 322.029 69.7372C321.866 69.925 321.785 70.2006 321.785 70.5636V78.6472H320.655ZM325.014 78.6472V71.309H326.105V72.4173H326.182C326.315 72.0543 326.558 71.7597 326.909 71.5335C327.26 71.3073 327.656 71.1943 328.096 71.1943C328.179 71.1943 328.283 71.1959 328.407 71.1991C328.532 71.2023 328.626 71.207 328.689 71.2134V72.36C328.651 72.3505 328.564 72.3361 328.426 72.317C328.292 72.2947 328.15 72.2835 328 72.2835C327.643 72.2835 327.324 72.3584 327.043 72.5081C326.765 72.6546 326.545 72.8585 326.383 73.1196C326.223 73.3776 326.143 73.6722 326.143 74.0035V78.6472H325.014ZM332.79 78.8001C332.127 78.8001 331.545 78.6425 331.044 78.3271C330.546 78.0118 330.157 77.5706 329.876 77.0037C329.598 76.4368 329.459 75.7744 329.459 75.0163C329.459 74.2519 329.598 73.5847 329.876 73.0146C330.157 72.4444 330.546 72.0017 331.044 71.6864C331.545 71.3711 332.127 71.2134 332.79 71.2134C333.455 71.2134 334.035 71.3711 334.533 71.6864C335.034 72.0017 335.424 72.4444 335.7 73.0146C335.981 73.5847 336.122 74.2519 336.122 75.0163C336.122 75.7744 335.981 76.4368 335.7 77.0037C335.424 77.5706 335.034 78.0118 334.533 78.3271C334.035 78.6425 333.455 78.8001 332.79 78.8001ZM332.79 77.7872C333.295 77.7872 333.71 77.6583 334.035 77.4003C334.361 77.1423 334.601 76.8031 334.758 76.3827C334.914 75.9622 334.992 75.5068 334.992 75.0163C334.992 74.5258 334.914 74.0688 334.758 73.6451C334.601 73.2215 334.361 72.8792 334.035 72.618C333.71 72.3568 333.295 72.2262 332.79 72.2262C332.287 72.2262 331.872 72.3568 331.546 72.618C331.221 72.8792 330.98 73.2215 330.824 73.6451C330.667 74.0688 330.589 74.5258 330.589 75.0163C330.589 75.5068 330.667 75.9622 330.824 76.3827C330.98 76.8031 331.221 77.1423 331.546 77.4003C331.872 77.6583 332.287 77.7872 332.79 77.7872ZM337.846 78.6472V71.309H338.937V72.4555H339.033C339.186 72.0638 339.433 71.7597 339.774 71.5431C340.115 71.3232 340.526 71.2134 341.005 71.2134C341.489 71.2134 341.893 71.3232 342.215 71.5431C342.54 71.7597 342.794 72.0638 342.977 72.4555H343.052C343.241 72.0765 343.523 71.7756 343.899 71.5526C344.277 71.3265 344.728 71.2134 345.254 71.2134C345.912 71.2134 346.45 71.4189 346.867 71.8297C347.285 72.2374 347.494 72.8728 347.494 73.736V78.6472H346.365V73.736C346.365 73.1945 346.216 72.8075 345.92 72.575C345.622 72.3425 345.273 72.2262 344.872 72.2262C344.354 72.2262 343.954 72.3823 343.67 72.6945C343.386 73.0034 343.244 73.3951 343.244 73.8697V78.6472H342.096V73.6213C342.096 73.204 341.96 72.868 341.689 72.6132C341.418 72.3552 341.068 72.2262 340.641 72.2262C340.348 72.2262 340.073 72.3043 339.818 72.4604C339.565 72.6164 339.362 72.8329 339.205 73.1101C339.052 73.384 338.975 73.7009 338.975 74.0608V78.6472H337.846ZM356.335 78.8001C355.672 78.8001 355.09 78.6425 354.589 78.3271C354.091 78.0118 353.702 77.5706 353.421 77.0037C353.143 76.4368 353.004 75.7744 353.004 75.0163C353.004 74.2519 353.143 73.5847 353.421 73.0146C353.702 72.4444 354.091 72.0017 354.589 71.6864C355.09 71.3711 355.672 71.2134 356.335 71.2134C357 71.2134 357.58 71.3711 358.078 71.6864C358.579 72.0017 358.967 72.4444 359.245 73.0146C359.526 73.5847 359.666 74.2519 359.666 75.0163C359.666 75.7744 359.526 76.4368 359.245 77.0037C358.967 77.5706 358.579 78.0118 358.078 78.3271C357.58 78.6425 357 78.8001 356.335 78.8001ZM356.335 77.7872C356.84 77.7872 357.255 77.6583 357.58 77.4003C357.906 77.1423 358.146 76.8031 358.303 76.3827C358.459 75.9622 358.537 75.5068 358.537 75.0163C358.537 74.5258 358.459 74.0688 358.303 73.6451C358.146 73.2215 357.906 72.8792 357.58 72.618C357.255 72.3568 356.84 72.2262 356.335 72.2262C355.831 72.2262 355.417 72.3568 355.091 72.618C354.766 72.8792 354.525 73.2215 354.369 73.6451C354.212 74.0688 354.134 74.5258 354.134 75.0163C354.134 75.5068 354.212 75.9622 354.369 76.3827C354.525 76.8031 354.766 77.1423 355.091 77.4003C355.417 77.6583 355.831 77.7872 356.335 77.7872ZM366.023 75.6469V71.309H367.153V78.6472H366.023V77.405H365.946C365.774 77.7777 365.507 78.0946 365.143 78.3558C364.779 78.6138 364.32 78.7427 363.764 78.7427C363.305 78.7427 362.896 78.6425 362.54 78.4418C362.182 78.2379 361.901 77.9322 361.697 77.5245C361.493 77.1136 361.391 76.5961 361.391 75.9718V71.309H362.52V75.8954C362.52 76.4304 362.67 76.8573 362.97 77.1757C363.273 77.4943 363.659 77.6535 364.128 77.6535C364.409 77.6535 364.694 77.5818 364.985 77.4385C365.279 77.2951 365.524 77.0754 365.721 76.7793C365.922 76.483 366.023 76.1055 366.023 75.6469ZM369.221 78.6472V71.309H370.313V72.4173H370.39C370.523 72.0543 370.766 71.7597 371.116 71.5335C371.468 71.3073 371.864 71.1943 372.303 71.1943C372.386 71.1943 372.49 71.1959 372.614 71.1991C372.739 71.2023 372.833 71.207 372.897 71.2134V72.36C372.859 72.3505 372.771 72.3361 372.634 72.317C372.5 72.2947 372.358 72.2835 372.208 72.2835C371.85 72.2835 371.531 72.3584 371.251 72.5081C370.973 72.6546 370.753 72.8585 370.591 73.1196C370.431 73.3776 370.351 73.6722 370.351 74.0035V78.6472H369.221ZM51.8545 91.5804L50.8399 91.8669C50.776 91.6981 50.6819 91.5341 50.5575 91.3748C50.4363 91.2125 50.2704 91.0787 50.0598 90.9736C49.8493 90.8685 49.5796 90.8159 49.251 90.8159C48.8012 90.8159 48.4262 90.9194 48.1264 91.1265C47.8296 91.3303 47.6813 91.5899 47.6813 91.9052C47.6813 92.1855 47.7834 92.4068 47.9876 92.5693C48.1917 92.7317 48.5108 92.867 48.9448 92.9754L50.0359 93.2429C50.6931 93.4022 51.1828 93.6458 51.5051 93.9738C51.8273 94.2987 51.9884 94.7175 51.9884 95.2303C51.9884 95.6508 51.8673 96.0266 51.6248 96.3578C51.3855 96.6891 51.0505 96.9503 50.6197 97.1413C50.1891 97.3325 49.6882 97.428 49.1171 97.428C48.3672 97.428 47.7467 97.2656 47.2554 96.9407C46.764 96.6158 46.4529 96.1412 46.3221 95.517L47.3941 95.2494C47.4962 95.6444 47.6892 95.9406 47.9732 96.1381C48.2604 96.3356 48.6352 96.4343 49.0979 96.4343C49.6243 96.4343 50.0423 96.3228 50.3517 96.0998C50.6644 95.8737 50.8207 95.603 50.8207 95.2876C50.8207 95.0328 50.7315 94.8195 50.5527 94.6475C50.3741 94.4724 50.0997 94.3417 49.7296 94.2558L48.5045 93.9691C47.8313 93.8098 47.3367 93.563 47.0208 93.2285C46.7081 92.8909 46.5518 92.4689 46.5518 91.9626C46.5518 91.5485 46.6683 91.1821 46.9012 90.8637C47.1373 90.5452 47.458 90.2951 47.8631 90.1136C48.2715 89.9321 48.7341 89.8413 49.251 89.8413C49.9784 89.8413 50.5495 90.0005 50.9643 90.3191C51.3823 90.6376 51.679 91.058 51.8545 91.5804ZM56.7707 97.428C56.0624 97.428 55.4515 97.2719 54.9378 96.9598C54.4272 96.6445 54.0332 96.205 53.7557 95.6413C53.4813 95.0742 53.3441 94.415 53.3441 93.6633C53.3441 92.9116 53.4813 92.2492 53.7557 91.6759C54.0332 91.0994 54.4192 90.6503 54.9138 90.3286C55.4115 90.0037 55.9922 89.8413 56.6559 89.8413C57.0387 89.8413 57.4168 89.905 57.7901 90.0324C58.1634 90.1598 58.5031 90.3669 58.8095 90.6535C59.1157 90.937 59.3598 91.3128 59.5417 91.7809C59.7235 92.2492 59.8144 92.8256 59.8144 93.5104V93.9882H54.148V93.0136H58.6659C58.6659 92.5995 58.5829 92.2301 58.417 91.9052C58.2543 91.5804 58.0214 91.3239 57.7182 91.136C57.4183 90.9481 57.0642 90.8541 56.6559 90.8541C56.2059 90.8541 55.8167 90.9656 55.488 91.1886C55.1626 91.4084 54.9122 91.6949 54.7368 92.0486C54.5613 92.4021 54.4736 92.781 54.4736 93.1856V93.8353C54.4736 94.3895 54.5692 94.8593 54.7606 95.2447C54.9553 95.6269 55.2248 95.9183 55.5694 96.119C55.914 96.3164 56.3145 96.4151 56.7707 96.4151C57.0674 96.4151 57.3354 96.3737 57.5747 96.291C57.8171 96.205 58.0261 96.0776 58.2016 95.9088C58.3772 95.7368 58.5128 95.5234 58.6084 95.2686L59.6995 95.5743C59.5848 95.9438 59.3917 96.2687 59.1206 96.549C58.8494 96.826 58.5143 97.0426 58.1155 97.1987C57.7167 97.3516 57.2684 97.428 56.7707 97.428ZM61.5326 97.2751V89.9369H62.6237V91.0452H62.7003C62.8342 90.6822 63.0767 90.3876 63.4277 90.1614C63.7786 89.9352 64.1743 89.8222 64.6146 89.8222C64.6976 89.8222 64.8012 89.8238 64.9256 89.827C65.0501 89.8302 65.1443 89.8349 65.208 89.8413V90.9879C65.1698 90.9784 65.082 90.964 64.9448 90.945C64.8108 90.9226 64.6688 90.9114 64.5188 90.9114C64.1615 90.9114 63.8425 90.9864 63.5617 91.136C63.2842 91.2825 63.064 91.4864 62.9013 91.7475C62.7418 92.0055 62.6619 92.3001 62.6619 92.6314V97.2751H61.5326ZM72.7815 89.9369L70.0632 97.2751H68.9146L66.1963 89.9369H67.4214L69.4506 95.7846H69.5272L71.5564 89.9369H72.7815ZM77.0911 97.428C76.3828 97.428 75.7718 97.2719 75.2582 96.9598C74.7477 96.6445 74.3537 96.205 74.076 95.6413C73.8017 95.0742 73.6645 94.415 73.6645 93.6633C73.6645 92.9116 73.8017 92.2492 74.076 91.6759C74.3537 91.0994 74.7397 90.6503 75.2342 90.3286C75.7319 90.0037 76.3127 89.8413 76.9762 89.8413C77.3591 89.8413 77.7372 89.905 78.1105 90.0324C78.4838 90.1598 78.8236 90.3669 79.1298 90.6535C79.4362 90.937 79.6802 91.3128 79.8621 91.7809C80.044 92.2492 80.1349 92.8256 80.1349 93.5104V93.9882H74.4685V93.0136H78.9864C78.9864 92.5995 78.9033 92.2301 78.7374 91.9052C78.5747 91.5804 78.3419 91.3239 78.0387 91.136C77.7388 90.9481 77.3847 90.8541 76.9762 90.8541C76.5264 90.8541 76.1372 90.9656 75.8085 91.1886C75.4831 91.4084 75.2327 91.6949 75.0572 92.0486C74.8817 92.4021 74.7939 92.781 74.7939 93.1856V93.8353C74.7939 94.3895 74.8896 94.8593 75.0811 95.2447C75.2757 95.6269 75.5453 95.9183 75.8899 96.119C76.2345 96.3164 76.6349 96.4151 77.0911 96.4151C77.3878 96.4151 77.6559 96.3737 77.8951 96.291C78.1376 96.205 78.3466 96.0776 78.5221 95.9088C78.6975 95.7368 78.8331 95.5234 78.9289 95.2686L80.02 95.5743C79.9052 95.9438 79.7121 96.2687 79.4409 96.549C79.1697 96.826 78.8348 97.0426 78.436 97.1987C78.0371 97.3516 77.5888 97.428 77.0911 97.428ZM81.853 97.2751V89.9369H82.9442V91.0452H83.0207C83.1547 90.6822 83.3972 90.3876 83.7481 90.1614C84.0991 89.9352 84.4947 89.8222 84.935 89.8222C85.018 89.8222 85.1217 89.8238 85.2461 89.827C85.3705 89.8302 85.4646 89.8349 85.5285 89.8413V90.9879C85.4901 90.9784 85.4024 90.964 85.2653 90.945C85.1312 90.9226 84.9893 90.9114 84.8393 90.9114C84.482 90.9114 84.1629 90.9864 83.8822 91.136C83.6046 91.2825 83.3844 91.4864 83.2217 91.7475C83.0622 92.0055 82.9824 92.3001 82.9824 92.6314V97.2751H81.853ZM92.0743 91.5804L91.0597 91.8669C90.9958 91.6981 90.9017 91.5341 90.7773 91.3748C90.656 91.2125 90.4901 91.0787 90.2796 90.9736C90.069 90.8685 89.7994 90.8159 89.4708 90.8159C89.0208 90.8159 88.646 90.9194 88.3461 91.1265C88.0494 91.3303 87.901 91.5899 87.901 91.9052C87.901 92.1855 88.0031 92.4068 88.2073 92.5693C88.4115 92.7317 88.7306 92.867 89.1644 92.9754L90.2556 93.2429C90.9129 93.4022 91.4026 93.6458 91.7249 93.9738C92.0471 94.2987 92.2082 94.7175 92.2082 95.2303C92.2082 95.6508 92.087 96.0266 91.8445 96.3578C91.6052 96.6891 91.2702 96.9503 90.8395 97.1413C90.4087 97.3325 89.9078 97.428 89.3367 97.428C88.587 97.428 87.9664 97.2656 87.4751 96.9407C86.9838 96.6158 86.6727 96.1412 86.5418 95.517L87.6139 95.2494C87.716 95.6444 87.909 95.9406 88.193 96.1381C88.4801 96.3356 88.855 96.4343 89.3176 96.4343C89.8441 96.4343 90.2621 96.3228 90.5715 96.0998C90.8842 95.8737 91.0405 95.603 91.0405 95.2876C91.0405 95.0328 90.9511 94.8195 90.7725 94.6475C90.5938 94.4724 90.3195 94.3417 89.9493 94.2558L88.7241 93.9691C88.0509 93.8098 87.5564 93.563 87.2406 93.2285C86.9279 92.8909 86.7716 92.4689 86.7716 91.9626C86.7716 91.5485 86.888 91.1821 87.1209 90.8637C87.3571 90.5452 87.6777 90.2951 88.0829 90.1136C88.4913 89.9321 88.9539 89.8413 89.4708 89.8413C90.1982 89.8413 90.7693 90.0005 91.1841 90.3191C91.6021 90.6376 91.8988 91.058 92.0743 91.5804ZM94.7316 97.3516C94.4954 97.3516 94.2929 97.2672 94.1238 97.0984C93.9547 96.9296 93.8701 96.7273 93.8701 96.4916C93.8701 96.2559 93.9547 96.0537 94.1238 95.8849C94.2929 95.7161 94.4954 95.6316 94.7316 95.6316C94.9676 95.6316 95.1702 95.7161 95.3394 95.8849C95.5085 96.0537 95.5929 96.2559 95.5929 96.4916C95.5929 96.6477 95.5531 96.791 95.4733 96.9216C95.3968 97.0522 95.293 97.1573 95.1622 97.2369C95.0346 97.3133 94.891 97.3516 94.7316 97.3516Z" fill="#FF4D00" fill-opacity="0.6"/>
<path d="M256.059 118.49H204.225C202.221 118.49 200.597 120.112 200.597 122.112V144.88C200.597 146.88 202.221 148.502 204.225 148.502H256.059C258.063 148.502 259.687 146.88 259.687 144.88V122.112C259.687 120.112 258.063 118.49 256.059 118.49Z" stroke="#FF4D00"/>
<path d="M220.229 130.64H219.731V130.146H219.236V129.648H218.738V129.151H215.753V128.654H219.731V129.648H220.229V130.64ZM215.753 136.107H214.756V135.609H214.259V135.112H213.76V134.118H213.266V131.137H213.76V130.146H214.259V129.648H214.756V129.151H215.753V129.648H215.255V130.146H214.756V131.137H214.259V134.118H214.756V135.112H215.255V135.609H215.753V136.107ZM219.731 136.601H215.753V136.107H218.738V135.609H219.236V135.112H219.731V134.615H220.229V135.609H219.731V136.601ZM226.203 136.601H225.207V136.107H224.214V135.609H224.709V133.62H224.214V133.126H224.709V132.132H224.214V131.634H222.72V132.132H222.221V132.629H221.228V132.132H221.724V131.634H222.221V131.137H224.709V131.634H225.207V132.132H225.706V136.107H226.203V136.601ZM224.214 134.118H222.72V133.62H224.214V134.118ZM224.214 136.601H222.221V136.107H221.724V135.609H221.228V134.615H221.724V134.118H222.72V134.615H222.221V135.609H222.72V136.107H224.214V136.601ZM228.94 136.601H226.951V136.107H227.445V132.132H226.951V131.634H227.445V131.137H227.944V130.64H228.442V131.634H228.94V132.132H228.442V136.107H228.94V136.601ZM232.672 136.601H230.681V136.107H231.178V132.132H230.681V131.634H228.94V131.137H231.178V131.634H231.676V132.132H232.175V136.107H232.672V136.601ZM237.405 136.601H234.917V136.107H234.419V135.609H233.921V134.615H233.426V133.126H233.921V132.132H234.419V131.634H234.917V131.137H237.405V131.634H237.902V132.132H238.401V132.629H237.405V132.132H236.906V131.634H235.415V132.132H234.917V133.126H234.419V134.615H234.917V135.609H235.415V136.107H237.405V136.601ZM238.401 135.609H237.902V135.112H238.401V135.609ZM237.902 136.107H237.405V135.609H237.902V136.107ZM243.126 136.601H240.639V136.107H240.141V135.609H239.643V134.615H239.148V133.126H239.643V132.132H240.141V132.629H243.126V132.132H242.628V131.634H240.639V131.137H243.126V131.634H243.625V132.132H244.122V133.126H240.141V134.615H240.639V135.609H241.137V136.107H243.126V136.601ZM240.639 132.132H240.141V131.634H240.639V132.132ZM244.122 135.609H243.625V135.112H244.122V135.609ZM243.625 136.107H243.126V135.609H243.625V136.107ZM246.859 136.601H244.87V136.107H245.365V128.654H244.87V128.157H245.365V127.659H245.863V127.166H246.361V136.107H246.859V136.601Z" fill="#FF4D00"/>
<path fill-rule="evenodd" clip-rule="evenodd" d="M274.719 117.973H403.267C405.557 117.973 407.413 119.826 407.413 122.112V144.88C407.413 147.166 405.557 149.019 403.267 149.019H274.719C272.429 149.019 270.572 147.166 270.572 144.88V122.112C270.572 119.826 272.429 117.973 274.719 117.973ZM285.247 136.601H288.233V136.107H287.236V133.126H287.735V132.132H288.233V131.137H288.731V130.146H289.229V129.151H290.222V128.654H287.735V129.151H288.731V130.146H288.233V131.137H287.735V132.132H287.236V133.126H286.742V132.132H286.243V131.137H285.746V130.146H285.247V129.151H286.243V128.654H283.261V129.151H284.251V130.146H284.749V131.137H285.247V132.132H285.746V133.126H286.243V136.107H285.247V136.601ZM290.711 136.601H293.198V136.107H293.697V135.609H294.195V135.112H293.697V135.609H293.198V136.107H291.209V135.609H290.711V134.615H290.213V133.126H294.195V132.132H293.697V131.634H293.198V131.137H290.711V131.634H290.213V132.132H289.715V133.126H289.22V134.615H289.715V135.609H290.213V136.107H290.711V136.601ZM290.213 132.132H290.711V131.634H292.701V132.132H293.198V132.629H290.213V132.132ZM298.173 132.629H298.671V131.634H298.173V131.137H295.935V131.634H295.436V132.132H294.942V133.126H295.436V133.62H296.433V134.118H297.429V134.615H297.928V135.609H297.429V136.107H295.935V135.609H295.436V134.863H294.942V136.107H295.436V136.601H297.928V136.107H298.422V135.609H298.921V134.118H298.422V133.62H297.429V133.126H296.433V132.629H295.935V131.634H297.678V132.132H298.173V132.629ZM300.163 137.592H300.66V135.609H299.667V136.601H300.163V137.592ZM300.163 137.592V138.09H299.667V137.592H300.163ZM303.652 136.601H308.627V136.107H309.623V135.609H310.118V135.112H310.617V134.118H311.114V131.137H310.617V130.146H310.118V129.648H309.623V129.151H308.627V128.654H303.652V129.151H304.645V136.107H303.652V136.601ZM308.627 129.151V129.648H309.125V130.146H309.623V131.137H310.118V134.118H309.623V135.112H309.125V135.609H308.627V136.107H305.642V129.151H308.627ZM313.599 136.601H316.086V136.107H316.585V135.609H317.082V135.112H316.585V135.609H316.086V136.107H314.097V135.609H313.599V134.615H313.1V133.126H317.082V132.132H316.585V131.634H316.086V131.137H313.599V131.634H313.1V132.132H312.603V133.126H312.107V134.615H312.603V135.609H313.1V136.107H313.599V136.601ZM313.1 132.132H313.599V131.634H315.588V132.132H316.086V132.629H313.1V132.132ZM317.83 136.601H319.819V136.107H319.32V127.166H318.823V127.659H318.324V128.157H317.83V128.654H318.324V136.107H317.83V136.601ZM322.054 136.601H324.542V136.107H325.04V135.609H325.537V135.112H325.04V135.609H324.542V136.107H322.553V135.609H322.054V134.615H321.557V133.126H325.537V132.132H325.04V131.634H324.542V131.137H322.054V131.634H321.557V132.132H321.058V133.126H320.563V134.615H321.058V135.609H321.557V136.107H322.054V136.601ZM321.557 132.132H322.054V131.634H324.044V132.132H324.542V132.629H321.557V132.132ZM327.278 136.601H328.773V136.107H329.27V135.609H328.773V136.107H327.777V131.634H329.27V131.137H327.777V130.146H327.278V130.64H326.78V131.137H326.285V131.634H326.78V136.107H327.278V136.601ZM331.263 136.601H333.75V136.107H334.249V135.609H334.746V135.112H334.249V135.609H333.75V136.107H331.761V135.609H331.263V134.615H330.764V133.126H334.746V132.132H334.249V131.634H333.75V131.137H331.263V131.634H330.764V132.132H330.267V133.126H329.771V134.615H330.267V135.609H330.764V136.107H331.263V136.601ZM330.764 132.132H331.263V131.634H333.252V132.132H333.75V132.629H330.764V132.132ZM337.741 136.601H339.73V136.107H339.232V132.132H339.73V131.634H341.221V132.132H341.72V136.107H341.221V136.601H343.214V136.107H342.716V132.132H343.214V131.634H344.706V132.132H345.203V136.107H344.706V136.601H346.698V136.107H346.199V132.132H345.702V131.634H345.203V131.137H343.214V131.634H342.716V132.132H342.217V131.634H341.72V131.137H339.73V131.634H339.232V130.64H338.734V131.137H338.237V131.634H337.741V132.132H338.237V136.107H337.741V136.601ZM348.936 137.592H349.434V136.601H349.932V135.361H350.43V134.118H350.926V132.877H351.423V131.634H352.171V131.137H350.181V131.634H350.926V132.877H350.43V134.118H349.932V135.361H349.434V134.118H348.936V132.877H348.438V131.634H349.185V131.137H346.701V131.634H347.444V132.877H347.94V134.118H348.438V135.361H348.936V137.592ZM348.438 138.587V137.592H348.936V138.587H348.438ZM348.438 138.587V139.084H347.94V139.581H346.95V138.587H348.438ZM358.885 136.601H359.881V136.107H359.384V132.132H358.885V131.634H358.388V131.137H355.901V131.634H355.402V132.132H354.907V132.629H355.901V132.132H356.398V131.634H357.892V132.132H358.388V133.126H357.892V133.62H356.398V134.118H355.402V134.615H354.907V135.609H355.402V136.107H355.901V136.601H357.892V136.107H358.885V136.601ZM357.892 136.107H356.398V135.609H355.901V134.615H356.398V134.118H357.892V133.62H358.388V135.609H357.892V136.107ZM361.865 136.601H364.353V136.107H364.85V135.609H365.349V135.112H364.85V135.609H364.353V136.107H362.363V135.609H361.865V134.615H361.367V133.126H361.865V132.132H362.363V131.634H363.854V132.132H364.353V132.629H365.349V132.132H364.85V131.634H364.353V131.137H361.865V131.634H361.367V132.132H360.869V133.126H360.374V134.615H360.869V135.609H361.367V136.107H361.865V136.601ZM367.587 136.601H370.074V136.107H370.573V135.609H371.07V135.112H370.573V135.609H370.074V136.107H368.085V135.609H367.587V134.615H367.089V133.126H367.587V132.132H368.085V131.634H369.576V132.132H370.074V132.629H371.07V132.132H370.573V131.634H370.074V131.137H367.587V131.634H367.089V132.132H366.591V133.126H366.096V134.615H366.591V135.609H367.089V136.107H367.587V136.601ZM373.309 136.601H375.796V136.107H376.294V135.609H376.793V134.615H377.29V133.126H376.793V132.132H376.294V131.634H375.796V131.137H373.309V131.634H372.811V132.132H372.313V133.126H371.818V134.615H372.313V135.609H372.811V136.107H373.309V136.601ZM375.298 136.107H373.807V135.609H373.309V134.615H372.811V133.126H373.309V132.132H373.807V131.634H375.298V132.132H375.796V133.126H376.294V134.615H375.796V135.609H375.298V136.107ZM379.28 136.601H381.02V136.107H381.518V135.609H382.016V136.601H383.51V136.107H383.013V131.137H381.518V131.634H382.016V135.112H381.518V135.609H381.02V136.107H379.778V135.609H379.28V131.137H377.789V131.634H378.283V135.609H378.782V136.107H379.28V136.601ZM384.258 136.601H386.247V136.107H385.75V132.132H386.247V131.634H387.988V132.132H388.485V136.107H387.988V136.601H389.98V136.107H389.482V132.132H388.984V131.634H388.485V131.137H386.247V131.634H385.75V130.64H385.251V131.137H384.753V131.634H384.258V132.132H384.753V136.107H384.258V136.601ZM391.471 136.601H392.965V136.107H393.463V135.609H392.965V136.107H391.97V131.634H393.463V131.137H391.97V130.146H391.471V130.64H390.973V131.137H390.478V131.634H390.973V136.107H391.471V136.601Z" fill="#FF4D00"/>
</g>
<defs>
<clipPath id="clip0_244_66">
<rect width="424" height="178" fill="white"/>
</clipPath>
</defs>
</svg>
