<svg width="120" height="120" viewBox="0 0 120 120" fill="none" xmlns="http://www.w3.org/2000/svg">
<path fill-rule="evenodd" clip-rule="evenodd" d="M60 120C93.1371 120 120 93.1371 120 60C120 26.8629 93.1371 0 60 0C26.8629 0 0 26.8629 0 60C0 93.1371 26.8629 120 60 120ZM58.5469 95.8203H62.3906V92H66.2344V88.1797H70.0781V84.3359H73.9219V80.4922H77.7422V76.6484H81.5859V72.8047H85.4297V68.9609H89.2734V61.2969H93.1172V45.9219H89.2734V38.2578H85.4297V34.4141H81.5859V30.5703H66.2344V34.4141H62.3906V38.2578H58.5469V34.4141H54.7031V30.5703H39.3516V34.4141H35.5078V38.2578H31.6641V45.9219H27.8438V61.2969H31.6641V68.9609H35.5078V72.8047H39.3516V76.6484H43.1953V80.4922H47.0391V84.3359H50.8828V88.1797H54.7031V92H58.5469V95.8203Z" fill="#FF4D00"/>
</svg>
