<svg width="56" height="56" viewBox="0 0 56 56" fill="none" xmlns="http://www.w3.org/2000/svg">
<path fill-rule="evenodd" clip-rule="evenodd" d="M28 56C43.4639 56 56 43.4639 56 28C56 12.5361 43.4639 0 28 0C12.5361 0 0 12.5361 0 28C0 43.4639 12.5361 56 28 56ZM37.9717 22.2051H40.041V13.8896H31.7256V15.9717H35.8896V18.041H33.8076V20.123H31.7256V22.2051H29.6436V24.2871H27.5615V26.3691H25.4922V28.4512H23.4102V30.5205H21.3281V32.6025H19.2461V34.6846H17.1641V36.7666H15.082V38.8486H17.1641V36.7666H19.2461V34.6846H21.3281V32.6025H23.4102V30.5205H25.4922V28.4512H27.5615V26.3691H29.6436V24.2871H31.7256V22.2051H33.8076V20.123H35.8896V18.041H37.9717V22.2051Z" fill="#FF4D00"/>
</svg>
