<svg width="120" height="120" viewBox="0 0 120 120" fill="none" xmlns="http://www.w3.org/2000/svg">
<path fill-rule="evenodd" clip-rule="evenodd" d="M60 120C93.1371 120 120 93.1371 120 60C120 26.8629 93.1371 0 60 0C26.8629 0 0 26.8629 0 60C0 93.1371 26.8629 120 60 120ZM53.8828 41.1016H59.6484V44.9219H63.4922V41.1016H59.6484V37.2578H55.8047V33.4141H51.9844V29.5703H42.375V33.4141H48.1406V37.2578H53.8828V41.1016ZM63.4922 79.4922V83.3359H55.8047V87.1797H44.2969V83.3359H36.6094V87.1797H40.4531V91H55.8047V87.1797H63.4922V83.3359H71.1797V79.4922H75.0234V75.6484H78.8438V71.8047H82.6875V67.9609H86.5312V60.2969H90.375V52.6094H94.2188V41.1016H86.5312V52.6094H82.6875V60.2969H78.8438V67.9609H75.0234V71.8047H71.1797V75.6484H67.3359V79.4922H63.4922ZM42.375 56.4531H48.1406V60.2969H51.9844V56.4531H48.1406V52.6094H44.2969V48.7656H40.4531V44.9219H30.8438V48.7656H36.6094V52.6094H42.375V56.4531Z" fill="#FF4D00"/>
</svg>
