<svg width="120" height="120" viewBox="0 0 120 120" fill="none" xmlns="http://www.w3.org/2000/svg">
<path d="M120 60C120 60.6583 119.989 61.3142 119.968 61.9674L117.969 61.903C117.99 61.2713 118 60.6369 118 60C118 59.3631 117.99 58.7287 117.969 58.097L119.968 58.0326C119.989 58.6858 120 59.3417 120 60Z" fill="#FF4D00"/>
<path d="M117.725 65.6896L119.715 65.8833C119.588 67.1944 119.418 68.4931 119.207 69.7781L117.234 69.4546C117.437 68.2126 117.601 66.9571 117.725 65.6896Z" fill="#FF4D00"/>
<path d="M116.497 73.1782L118.445 73.6308C118.148 74.9111 117.809 76.1756 117.431 77.423L115.517 76.8431C115.882 75.6376 116.209 74.4155 116.497 73.1782Z" fill="#FF4D00"/>
<path d="M114.298 80.4366L116.169 81.1414C115.707 82.3704 115.205 83.5801 114.665 84.7691L112.844 83.9426C113.365 82.7934 113.85 81.6243 114.298 80.4366Z" fill="#FF4D00"/>
<path d="M111.163 87.3445L112.926 88.2888C112.307 89.445 111.651 90.5785 110.959 91.6878L109.262 90.6301C109.93 89.5577 110.564 88.4621 111.163 87.3445Z" fill="#FF4D00"/>
<path d="M107.15 93.7846L108.775 94.9509C108.011 96.0152 107.213 97.0535 106.382 98.0642L104.837 96.7945C105.64 95.8174 106.411 94.8135 107.15 93.7846Z" fill="#FF4D00"/>
<path d="M102.333 99.6481L103.792 101.016C102.897 101.971 101.971 102.897 101.016 103.792L99.6481 102.333C100.572 101.467 101.467 100.572 102.333 99.6481Z" fill="#FF4D00"/>
<path d="M96.7945 104.837L98.0642 106.382C97.0535 107.213 96.0152 108.011 94.9509 108.775L93.7846 107.15C94.8135 106.411 95.8174 105.64 96.7945 104.837Z" fill="#FF4D00"/>
<path d="M90.6301 109.262L91.6878 110.959C90.5785 111.651 89.445 112.307 88.2888 112.926L87.3445 111.163C88.4621 110.564 89.5577 109.93 90.6301 109.262Z" fill="#FF4D00"/>
<path d="M83.9426 112.844L84.7691 114.665C83.5801 115.205 82.3703 115.707 81.1414 116.169L80.4366 114.298C81.6243 113.85 82.7934 113.365 83.9426 112.844Z" fill="#FF4D00"/>
<path d="M76.8431 115.517L77.423 117.431C76.1756 117.809 74.911 118.148 73.6308 118.445L73.1782 116.497C74.4155 116.209 75.6376 115.882 76.8431 115.517Z" fill="#FF4D00"/>
<path d="M69.4546 117.234L69.7781 119.207C68.4931 119.418 67.1944 119.588 65.8833 119.715L65.6896 117.725C66.9571 117.601 68.2126 117.437 69.4546 117.234Z" fill="#FF4D00"/>
<path d="M61.903 117.969L61.9674 119.968C61.3142 119.989 60.6583 120 60 120C59.3417 120 58.6858 119.989 58.0326 119.968L58.097 117.969C58.7287 117.99 59.3631 118 60 118C60.6369 118 61.2713 117.99 61.903 117.969Z" fill="#FF4D00"/>
<path d="M54.3104 117.725L54.1167 119.715C52.8056 119.588 51.5069 119.418 50.2219 119.207L50.5454 117.234C51.7874 117.437 53.0429 117.601 54.3104 117.725Z" fill="#FF4D00"/>
<path d="M46.8218 116.497L46.3692 118.445C45.0889 118.148 43.8244 117.809 42.577 117.431L43.1569 115.517C44.3624 115.882 45.5845 116.209 46.8218 116.497Z" fill="#FF4D00"/>
<path d="M39.5634 114.298L38.8586 116.169C37.6296 115.707 36.4199 115.205 35.2309 114.665L36.0574 112.844C37.2066 113.365 38.3757 113.85 39.5634 114.298Z" fill="#FF4D00"/>
<path d="M32.6555 111.163L31.7112 112.926C30.555 112.307 29.4215 111.651 28.3122 110.959L29.3699 109.262C30.4423 109.93 31.5379 110.564 32.6555 111.163Z" fill="#FF4D00"/>
<path d="M26.2154 107.15L25.0491 108.775C23.9848 108.011 22.9465 107.213 21.9358 106.382L23.2055 104.837C24.1826 105.64 25.1865 106.411 26.2154 107.15Z" fill="#FF4D00"/>
<path d="M20.3519 102.333L18.9845 103.792C18.0291 102.897 17.103 101.971 16.2079 101.016L17.6673 99.6481C18.5328 100.572 19.4282 101.467 20.3519 102.333Z" fill="#FF4D00"/>
<path d="M15.1629 96.7945L13.6176 98.0642C12.7872 97.0535 11.9892 96.0152 11.2252 94.9509L12.8499 93.7846C13.5885 94.8135 14.3601 95.8174 15.1629 96.7945Z" fill="#FF4D00"/>
<path d="M10.738 90.6301L9.04062 91.6878C8.34937 90.5785 7.69333 89.445 7.07406 88.2888L8.83709 87.3445C9.43566 88.4621 10.0698 89.5577 10.738 90.6301Z" fill="#FF4D00"/>
<path d="M7.15626 83.9426L5.33503 84.7691C4.79543 83.5801 4.29348 82.3703 3.8307 81.1414L5.70239 80.4366C6.14963 81.6243 6.63474 82.7934 7.15626 83.9426Z" fill="#FF4D00"/>
<path d="M4.48288 76.8431L2.5688 77.423C2.19088 76.1756 1.85248 74.911 1.55507 73.6308L3.5032 73.1782C3.79062 74.4155 4.11765 75.6376 4.48288 76.8431Z" fill="#FF4D00"/>
<path d="M2.76644 69.4546L0.79278 69.7781C0.582166 68.4931 0.412374 67.1944 0.28478 65.8833L2.27538 65.6896C2.39873 66.9571 2.56287 68.2126 2.76644 69.4546Z" fill="#FF4D00"/>
<path d="M0 60C0 60.6583 0.010603 61.3142 0.0316477 61.9674L2.03061 61.903C2.01026 61.2713 2 60.6369 2 60C2 59.3631 2.01026 58.7287 2.03061 58.097L0.0316479 58.0326C0.0106031 58.6858 0 59.3417 0 60Z" fill="#FF4D00"/>
<path d="M2.27538 54.3104L0.28478 54.1167C0.412375 52.8056 0.582167 51.5069 0.79278 50.2219L2.76645 50.5454C2.56287 51.7874 2.39873 53.0429 2.27538 54.3104Z" fill="#FF4D00"/>
<path d="M3.5032 46.8218L1.55507 46.3692C1.85248 45.0889 2.19088 43.8244 2.5688 42.577L4.48288 43.1569C4.11766 44.3624 3.79063 45.5845 3.5032 46.8218Z" fill="#FF4D00"/>
<path d="M5.70239 39.5634L3.8307 38.8586C4.29348 37.6296 4.79543 36.4199 5.33503 35.2309L7.15626 36.0574C6.63474 37.2066 6.14963 38.3757 5.70239 39.5634Z" fill="#FF4D00"/>
<path d="M8.8371 32.6555L7.07406 31.7112C7.69333 30.555 8.34937 29.4215 9.04062 28.3122L10.738 29.3699C10.0698 30.4423 9.43566 31.5379 8.8371 32.6555Z" fill="#FF4D00"/>
<path d="M12.8499 26.2154L11.2252 25.0491C11.9892 23.9848 12.7872 22.9465 13.6176 21.9358L15.1629 23.2055C14.3601 24.1826 13.5885 25.1865 12.8499 26.2154Z" fill="#FF4D00"/>
<path d="M17.6673 20.3519L16.2079 18.9845C17.103 18.0291 18.0291 17.103 18.9845 16.2079L20.3519 17.6673C19.4282 18.5328 18.5328 19.4282 17.6673 20.3519Z" fill="#FF4D00"/>
<path d="M23.2055 15.1629L21.9358 13.6176C22.9465 12.7872 23.9848 11.9892 25.0491 11.2252L26.2154 12.8499C25.1865 13.5885 24.1826 14.3601 23.2055 15.1629Z" fill="#FF4D00"/>
<path d="M29.3699 10.738L28.3122 9.04062C29.4215 8.34937 30.555 7.69333 31.7112 7.07406L32.6555 8.83709C31.5379 9.43566 30.4423 10.0698 29.3699 10.738Z" fill="#FF4D00"/>
<path d="M36.0574 7.15626L35.2309 5.33503C36.4199 4.79543 37.6297 4.29348 38.8586 3.8307L39.5634 5.70239C38.3757 6.14963 37.2066 6.63474 36.0574 7.15626Z" fill="#FF4D00"/>
<path d="M43.1569 4.48288L42.577 2.5688C43.8244 2.19087 45.089 1.85248 46.3692 1.55507L46.8218 3.5032C45.5845 3.79062 44.3624 4.11765 43.1569 4.48288Z" fill="#FF4D00"/>
<path d="M50.5454 2.76644L50.2219 0.792779C51.5069 0.582166 52.8056 0.412374 54.1167 0.28478L54.3104 2.27538C53.0429 2.39873 51.7874 2.56287 50.5454 2.76644Z" fill="#FF4D00"/>
<path d="M58.097 2.03061L58.0326 0.0316477C58.6858 0.010603 59.3417 0 60 0C60.6583 0 61.3142 0.0106031 61.9674 0.0316479L61.903 2.03061C61.2713 2.01026 60.6369 2 60 2C59.3631 2 58.7287 2.01026 58.097 2.03061Z" fill="#FF4D00"/>
<path d="M65.6896 2.27538L65.8833 0.28478C67.1944 0.412375 68.4931 0.582167 69.7781 0.79278L69.4546 2.76645C68.2126 2.56287 66.9571 2.39873 65.6896 2.27538Z" fill="#FF4D00"/>
<path d="M73.1782 3.5032L73.6308 1.55507C74.9111 1.85248 76.1756 2.19088 77.423 2.5688L76.8431 4.48288C75.6376 4.11766 74.4155 3.79063 73.1782 3.5032Z" fill="#FF4D00"/>
<path d="M80.4366 5.70239L81.1414 3.8307C82.3704 4.29348 83.5801 4.79543 84.7691 5.33503L83.9426 7.15626C82.7934 6.63474 81.6243 6.14963 80.4366 5.70239Z" fill="#FF4D00"/>
<path d="M87.3445 8.8371L88.2888 7.07406C89.445 7.69333 90.5785 8.34937 91.6878 9.04062L90.6301 10.738C89.5577 10.0698 88.4621 9.43566 87.3445 8.8371Z" fill="#FF4D00"/>
<path d="M93.7846 12.8499L94.9509 11.2252C96.0152 11.9892 97.0535 12.7872 98.0642 13.6176L96.7945 15.1629C95.8174 14.3601 94.8135 13.5885 93.7846 12.8499Z" fill="#FF4D00"/>
<path d="M99.6481 17.6673L101.016 16.2079C101.971 17.103 102.897 18.0291 103.792 18.9845L102.333 20.3519C101.467 19.4282 100.572 18.5328 99.6481 17.6673Z" fill="#FF4D00"/>
<path d="M104.837 23.2055L106.382 21.9358C107.213 22.9465 108.011 23.9848 108.775 25.0491L107.15 26.2154C106.411 25.1865 105.64 24.1826 104.837 23.2055Z" fill="#FF4D00"/>
<path d="M109.262 29.3699L110.959 28.3122C111.651 29.4215 112.307 30.555 112.926 31.7112L111.163 32.6555C110.564 31.5379 109.93 30.4423 109.262 29.3699Z" fill="#FF4D00"/>
<path d="M112.844 36.0574L114.665 35.2309C115.205 36.4199 115.707 37.6297 116.169 38.8586L114.298 39.5634C113.85 38.3757 113.365 37.2066 112.844 36.0574Z" fill="#FF4D00"/>
<path d="M115.517 43.1569L117.431 42.577C117.809 43.8244 118.148 45.089 118.445 46.3692L116.497 46.8218C116.209 45.5845 115.882 44.3624 115.517 43.1569Z" fill="#FF4D00"/>
<path d="M117.234 50.5454L119.207 50.2219C119.418 51.5069 119.588 52.8056 119.715 54.1167L117.725 54.3104C117.601 53.0429 117.437 51.7874 117.234 50.5454Z" fill="#FF4D00"/>
<path d="M71.5312 52.4531H75.375V44.7656H79.2188V40.9219H86.8828V37.1016H79.2188V33.2578H75.375V25.5703H71.5312V33.2578H67.6875V37.1016H60V40.9219H67.6875V44.7656H71.5312V52.4531Z" fill="#FF4D00"/>
<path d="M44.6484 33.2578H48.4922V29.4141H44.6484V33.2578Z" fill="#FF4D00"/>
<path d="M36.9609 44.7656H40.8047V40.9219H36.9609V44.7656Z" fill="#FF4D00"/>
<path d="M48.4922 79.3359H52.3359V67.8047H56.1797V63.9609H67.6875V60.1406H56.1797V56.2969H52.3359V44.7656H48.4922V56.2969H44.6484V60.1406H33.1406V63.9609H44.6484V67.8047H48.4922V79.3359Z" fill="#FF4D00"/>
<path d="M83.0391 60.1406H86.8828V56.2969H83.0391V60.1406Z" fill="#FF4D00"/>
<path d="M75.375 87H79.2188V79.3359H86.8828V75.4922H79.2188V67.8047H75.375V75.4922H67.6875V79.3359H75.375V87Z" fill="#FF4D00"/>
<path d="M36.9609 83.1797H40.8047V79.3359H36.9609V83.1797Z" fill="#FF4D00"/>
</svg>
